# Blender v3.6.5 OBJ File: 'Level2.blend'
# www.blender.org
mtllib Barrel_Cube.mtl
o Barrel_Cube.199
v 0.018907 0.139425 0.032748
v 0.032748 0.139425 0.018907
v 0.037814 0.139425 0.000000
v 0.032748 0.139425 -0.018907
v 0.018907 0.139425 -0.032748
v 0.000000 0.139425 -0.037814
v -0.018907 0.139425 -0.032748
v -0.032748 0.139425 -0.018907
v -0.037814 0.139425 0.000000
v -0.032748 0.139425 0.018907
v -0.018907 0.139425 0.032748
v 0.000000 0.139425 0.037814
v -0.018922 0.004587 0.032774
v 0.000000 0.004587 0.037844
v -0.032774 0.004587 0.018922
v -0.037844 0.004587 0.000000
v -0.032774 0.004587 -0.018922
v -0.018922 0.004587 -0.032774
v 0.000000 0.004587 -0.037844
v 0.018922 0.004587 -0.032774
v 0.032773 0.004587 -0.018922
v 0.037844 0.004587 0.000000
v 0.032773 0.004587 0.018922
v 0.018922 0.004587 0.032774
v 0.000000 0.055788 0.048774
v 0.000000 0.024496 0.044023
v -0.022012 0.024496 0.038125
v -0.024387 0.055788 0.042240
v -0.038125 0.024496 0.022011
v -0.042240 0.055788 0.024387
v -0.044023 0.024496 0.000000
v -0.048774 0.055788 0.000000
v -0.038125 0.024496 -0.022011
v -0.042240 0.055788 -0.024387
v -0.022012 0.024496 -0.038125
v -0.024387 0.055788 -0.042240
v 0.000000 0.024496 -0.044023
v 0.000000 0.055788 -0.048774
v 0.022011 0.024496 -0.038125
v 0.024387 0.055788 -0.042240
v 0.038125 0.024496 -0.022011
v 0.042239 0.055788 -0.024387
v 0.044022 0.024496 0.000000
v 0.048774 0.055788 0.000000
v 0.038125 0.024496 0.022011
v 0.042239 0.055788 0.024387
v 0.022011 0.024496 0.038125
v 0.024387 0.055788 0.042240
v 0.000000 0.114500 0.044052
v 0.000000 0.078207 0.048639
v -0.024320 0.078207 0.042123
v -0.022026 0.114500 0.038150
v -0.042123 0.078207 0.024319
v -0.038150 0.114500 0.022026
v -0.048639 0.078207 0.000000
v -0.044052 0.114500 0.000000
v -0.042123 0.078207 -0.024319
v -0.038150 0.114500 -0.022026
v -0.024320 0.078207 -0.042123
v -0.022026 0.114500 -0.038150
v 0.000000 0.078207 -0.048639
v 0.000000 0.114500 -0.044052
v 0.024319 0.078207 -0.042123
v 0.022026 0.114500 -0.038150
v 0.042122 0.078207 -0.024320
v 0.038150 0.114500 -0.022026
v 0.048639 0.078207 0.000000
v 0.044051 0.114500 0.000000
v 0.042122 0.078207 0.024319
v 0.038150 0.114500 0.022026
v 0.024319 0.078207 0.042123
v 0.022026 0.114500 0.038150
v 0.019490 0.142348 0.033758
v 0.033757 0.142348 0.019490
v 0.038980 0.142348 0.000000
v 0.033757 0.142348 -0.019490
v 0.019490 0.142348 -0.033758
v 0.000000 0.142348 -0.038980
v -0.019490 0.142348 -0.033758
v -0.033758 0.142348 -0.019490
v -0.038980 0.142348 0.000000
v -0.033758 0.142348 0.019490
v -0.019490 0.142348 0.033758
v 0.000000 0.142348 0.038980
v 0.034708 0.135750 0.020039
v 0.020039 0.135750 0.034708
v 0.040077 0.135750 0.000000
v 0.020039 0.135750 -0.034708
v 0.034708 0.135750 -0.020039
v 0.000000 0.135750 -0.040078
v -0.034708 0.135750 -0.020039
v -0.020039 0.135750 -0.034708
v -0.040078 0.135750 0.000000
v -0.020039 0.135750 0.034708
v -0.034708 0.135750 0.020039
v 0.000000 0.135750 0.040078
v 0.019490 0.000000 0.033758
v 0.033757 0.000000 0.019490
v 0.038980 0.000000 0.000000
v 0.033757 0.000000 -0.019490
v 0.019490 0.000000 -0.033758
v 0.000000 0.000000 -0.038980
v -0.019490 0.000000 -0.033758
v -0.033758 0.000000 -0.019490
v -0.038980 0.000000 0.000000
v -0.033758 0.000000 0.019490
v -0.019490 0.000000 0.033758
v 0.000000 0.000000 0.038980
v 0.034708 0.006599 0.020039
v 0.020039 0.006599 0.034708
v 0.040077 0.006599 0.000000
v 0.020039 0.006599 -0.034708
v 0.034708 0.006599 -0.020039
v 0.000000 0.006599 -0.040078
v -0.034708 0.006599 -0.020039
v -0.020039 0.006599 -0.034708
v -0.040078 0.006599 0.000000
v -0.020039 0.006599 0.034708
v -0.034708 0.006599 0.020039
v 0.000000 0.006599 0.040078
v 0.025102 0.045397 0.043478
v 0.043478 0.045397 0.025102
v 0.050204 0.045397 0.000000
v 0.043478 0.045397 -0.025102
v 0.025102 0.045397 -0.043478
v 0.000000 0.045397 -0.050204
v -0.025102 0.045397 -0.043478
v -0.043478 0.045397 -0.025102
v -0.050204 0.045397 0.000000
v -0.043478 0.045397 0.025102
v -0.025102 0.045397 0.043478
v 0.000000 0.045397 0.050204
v 0.044702 0.051904 0.025809
v 0.025809 0.051904 0.044702
v 0.051617 0.051904 0.000000
v 0.025809 0.051904 -0.044702
v 0.044702 0.051904 -0.025809
v 0.000000 0.051904 -0.051618
v -0.044702 0.051904 -0.025809
v -0.025809 0.051904 -0.044702
v -0.051618 0.051904 0.000000
v -0.025809 0.051904 0.044702
v -0.044702 0.051904 0.025809
v 0.000000 0.051904 0.051618
v 0.024625 0.096586 0.042465
v 0.042476 0.096586 0.024615
v 0.049010 0.096586 0.000230
v 0.042476 0.096586 -0.024154
v 0.024625 0.096586 -0.042005
v 0.000240 0.096586 -0.048539
v -0.024144 0.096586 -0.042005
v -0.041995 0.096586 -0.024154
v -0.048529 0.096586 0.000230
v -0.041995 0.096586 0.024615
v -0.024144 0.096586 0.042466
v 0.000241 0.096586 0.048999
v 0.042233 0.102907 0.024102
v 0.024485 0.102907 0.041577
v 0.048729 0.102907 0.000230
v 0.024485 0.102907 -0.041117
v 0.042233 0.102907 -0.023642
v 0.000240 0.102907 -0.047513
v -0.041752 0.102907 -0.023642
v -0.024004 0.102907 -0.041117
v -0.048248 0.102907 0.000230
v -0.024004 0.102907 0.041577
v -0.041752 0.102907 0.024102
v 0.000241 0.102907 0.047974
vt 0.000000 0.000000
vt 0.000000 0.000000
vt 0.000000 0.000000
vt 0.000000 0.000000
vt 0.000000 0.000000
vt 0.000000 0.000000
vt 0.000000 0.000000
vt 0.000000 0.000000
vt 0.000000 0.000000
vt 0.000000 0.000000
vt 0.000000 0.000000
vt 0.000000 0.000000
vt 0.000000 0.000000
vt 0.000000 0.000000
vt 0.000000 0.000000
vt 0.000000 0.000000
vt 0.000000 0.000000
vt 0.000000 0.000000
vt 0.000000 0.000000
vt 0.000000 0.000000
vt 0.000000 0.000000
vt 0.000000 0.000000
vt 0.000000 0.000000
vt 0.000000 0.000000
vt 0.000000 0.000000
vt 0.000000 0.000000
vt 0.000000 0.000000
vt 0.000000 0.000000
vt 0.000000 0.000000
vt 0.000000 0.000000
vt 0.000000 0.000000
vt 0.000000 0.000000
vt 0.000000 0.000000
vt 0.000000 0.000000
vt 0.000000 0.000000
vt 0.000000 0.000000
vt 0.000000 0.000000
vt 0.000000 0.000000
vt 0.000000 0.000000
vt 0.000000 0.000000
vt 0.000000 0.000000
vt 0.000000 0.000000
vt 0.000000 0.000000
vt 0.000000 0.000000
vt 0.000000 0.000000
vt 0.000000 0.000000
vt 0.000000 0.000000
vt 0.000000 0.000000
vt 0.000000 0.000000
vt 0.000000 0.000000
vt 0.000000 0.000000
vt 0.000000 0.000000
vt 0.000000 0.000000
vt 0.000000 0.000000
vt 0.000000 0.000000
vt 0.000000 0.000000
vt 0.000000 0.000000
vt 0.000000 0.000000
vt 0.000000 0.000000
vt 0.000000 0.000000
vt 0.000000 0.000000
vt 0.000000 0.000000
vt 0.000000 0.000000
vt 0.000000 0.000000
vt 0.000000 0.000000
vt 0.000000 0.000000
vt 0.000000 0.000000
vt 0.000000 0.000000
vt 0.000000 0.000000
vt 0.000000 0.000000
vt 0.000000 0.000000
vt 0.000000 0.000000
vt 0.000000 0.000000
vt 0.000000 0.000000
vt 0.000000 0.000000
vt 0.000000 0.000000
vt 0.000000 0.000000
vt 0.000000 0.000000
vt 0.000000 0.000000
vt 0.000000 0.000000
vt 0.000000 0.000000
vt 0.000000 0.000000
vt 0.000000 0.000000
vt 0.000000 0.000000
vt 0.000000 0.000000
vt 0.000000 0.000000
vt 0.000000 0.000000
vt 0.000000 0.000000
vt 0.000000 0.000000
vt 0.000000 0.000000
vt 0.000000 0.000000
vt 0.000000 0.000000
vt 0.000000 0.000000
vt 0.000000 0.000000
vt 0.000000 0.000000
vt 0.000000 0.000000
vt 0.000000 0.000000
vt 0.000000 0.000000
vt 0.000000 0.000000
vt 0.000000 0.000000
vt 0.000000 0.000000
vt 0.000000 0.000000
vt 0.000000 0.000000
vt 0.000000 0.000000
vt 0.000000 0.000000
vt 0.000000 0.000000
vt 0.000000 0.000000
vt 0.000000 0.000000
vt 0.000000 0.000000
vt 0.000000 0.000000
vt 0.000000 0.000000
vt 0.000000 0.000000
vt 0.000000 0.000000
vt 0.000000 0.000000
vt 0.000000 0.000000
vt 0.000000 0.000000
vt 0.000000 0.000000
vt 0.000000 0.000000
vt 0.000000 0.000000
vt 0.000000 0.000000
vt 0.000000 0.000000
vt 0.000000 0.000000
vt 0.000000 0.000000
vt 0.000000 0.000000
vt 0.000000 0.000000
vt 0.000000 0.000000
vt 0.000000 0.000000
vt 0.000000 0.000000
vt 0.000000 0.000000
vt 0.000000 0.000000
vt 0.000000 0.000000
vt 0.000000 0.000000
vt 0.000000 0.000000
vt 0.000000 0.000000
vt 0.000000 0.000000
vt 0.000000 0.000000
vt 0.000000 0.000000
vt 0.000000 0.000000
vt 0.000000 0.000000
vt 0.000000 0.000000
vt 0.000000 0.000000
vt 0.000000 0.000000
vt 0.000000 0.000000
vt 0.000000 0.000000
vt 0.000000 0.000000
vt 0.000000 0.000000
vt 0.000000 0.000000
vt 0.000000 0.000000
vt 0.000000 0.000000
vt 0.000000 0.000000
vt 0.000000 0.000000
vt 0.000000 0.000000
vt 0.000000 0.000000
vt 0.000000 0.000000
vt 0.000000 0.000000
vt 0.000000 0.000000
vt 0.000000 0.000000
vt 0.000000 0.000000
vt 0.000000 0.000000
vt 0.000000 0.000000
vt 0.000000 0.000000
vt 0.000000 0.000000
vt 0.000000 0.000000
vt 0.000000 0.000000
vt 0.000000 0.000000
vt 0.000000 0.000000
vt 0.000000 0.000000
vt 0.000000 0.000000
vn -0.2588 0.0058 0.9659
vn -0.6774 -0.2871 0.6773
vn -0.9252 -0.2872 0.2479
vn -0.9252 -0.2872 -0.2479
vn -0.6774 -0.2871 -0.6773
vn -0.2479 -0.2872 -0.9252
vn 0.2479 -0.2872 -0.9252
vn 0.6773 -0.2872 -0.6773
vn 0.9253 -0.2871 -0.2479
vn 0.9253 -0.2871 0.2479
vn -0.2516 0.2350 -0.9389
vn 0.6773 -0.2872 0.6773
vn 0.2479 -0.2872 0.9252
vn -0.9389 0.2350 0.2516
vn 0.0000 -1.0000 -0.0000
vn -0.6873 0.2350 0.6873
vn -0.7071 0.0058 0.7071
vn -0.6873 0.2350 -0.6873
vn 0.0000 1.0000 0.0000
vn -0.9389 0.2350 -0.2516
vn 0.6873 0.2350 0.6873
vn 0.9389 0.2350 0.2515
vn 0.9389 0.2350 -0.2515
vn 0.6873 0.2350 -0.6873
vn 0.2516 0.2350 -0.9389
vn -0.2561 -0.1451 0.9557
vn -0.6996 -0.1451 0.6996
vn -0.9557 -0.1451 0.2561
vn -0.9557 -0.1451 -0.2561
vn -0.6996 -0.1451 -0.6996
vn -0.2561 -0.1451 -0.9557
vn 0.2561 -0.1451 -0.9557
vn 0.6996 -0.1451 -0.6996
vn 0.9557 -0.1451 -0.2561
vn 0.9557 -0.1451 0.2561
vn 0.6996 -0.1451 0.6996
vn 0.2561 -0.1451 0.9557
vn -0.2479 -0.2872 0.9252
vn 0.9659 0.0058 0.2588
vn 0.9659 0.0058 -0.2588
vn 0.7071 0.0058 -0.7071
vn 0.2588 0.0058 -0.9659
vn -0.2588 0.0058 -0.9659
vn -0.7071 0.0058 -0.7071
vn -0.9659 0.0058 -0.2588
vn 0.2588 0.0058 0.9659
vn 0.2516 0.2350 0.9389
vn -0.9659 0.0058 0.2588
vn 0.7071 0.0058 0.7071
vn -0.2569 0.1212 0.9588
vn -0.7019 0.1212 0.7019
vn -0.9588 0.1212 0.2569
vn -0.9588 0.1212 -0.2569
vn -0.7019 0.1212 -0.7019
vn -0.2569 0.1212 -0.9588
vn 0.2569 0.1212 -0.9588
vn 0.7019 0.1212 -0.7019
vn 0.9588 0.1212 -0.2569
vn 0.9588 0.1212 0.2569
vn 0.7019 0.1212 0.7019
vn 0.2569 0.1212 0.9588
vn -0.2516 0.2350 0.9389
vn -0.6773 -0.2872 0.6773
vn -0.9252 -0.2871 0.2479
vn -0.9252 -0.2871 -0.2479
vn -0.6773 -0.2872 -0.6773
vn 0.2479 -0.2871 -0.9252
vn 0.6774 -0.2871 -0.6773
vn 0.9252 -0.2872 -0.2480
vn 0.9252 -0.2872 0.2480
vn 0.6774 -0.2871 0.6773
vn 0.2479 -0.2871 0.9252
vn 0.9389 0.2349 0.2516
vn 0.9389 0.2349 -0.2516
vn 0.9557 -0.1451 -0.2560
vn 0.9557 -0.1451 0.2560
vn -0.9537 0.1586 0.2556
vn -0.9537 0.1587 -0.2555
vn 0.6982 0.1586 -0.6981
vn -0.2556 0.1586 -0.9537
vn -0.6982 0.1586 0.6982
vn 0.2555 0.1587 -0.9537
vn 0.9537 0.1587 -0.2555
vn 0.6981 0.1587 0.6981
vn -0.2555 0.1587 0.9537
vn -0.6982 0.1586 -0.6982
vn 0.2556 0.1586 0.9537
vn 0.9537 0.1586 0.2556
vn -0.9537 -0.1587 0.2555
vn -0.9537 -0.1587 -0.2555
vn 0.6982 -0.1586 -0.6981
vn -0.2555 -0.1587 -0.9537
vn -0.6982 -0.1586 0.6982
vn 0.2555 -0.1587 -0.9537
vn 0.9537 -0.1585 -0.2556
vn 0.6982 -0.1586 0.6981
vn -0.2555 -0.1587 0.9537
vn -0.6982 -0.1586 -0.6982
vn 0.2555 -0.1587 0.9537
vn 0.9537 -0.1585 0.2556
vn -0.9453 -0.2054 0.2533
vn -0.9453 -0.2054 -0.2533
vn 0.6920 -0.2054 -0.6920
vn -0.2533 -0.2054 -0.9453
vn -0.6920 -0.2054 0.6920
vn 0.2533 -0.2054 -0.9453
vn 0.9454 -0.2053 -0.2533
vn 0.6920 -0.2054 0.6920
vn -0.2533 -0.2054 0.9453
vn -0.6920 -0.2054 -0.6920
vn 0.2533 -0.2054 0.9453
vn 0.9454 -0.2053 0.2533
vn -0.9642 0.0505 0.2603
vn -0.9642 0.0505 -0.2603
vn 0.7009 0.0995 -0.7063
vn -0.2542 0.1475 -0.9558
vn -0.7009 0.0996 0.7063
vn 0.2542 0.1475 -0.9558
vn 0.9642 0.0505 -0.2603
vn 0.7009 0.0995 0.7063
vn -0.2541 0.1475 0.9558
vn -0.7009 0.0995 -0.7063
vn 0.2542 0.1474 0.9559
vn 0.9642 0.0505 0.2603
vn -0.9537 0.1587 0.2555
vn -0.9537 0.1586 -0.2556
vn 0.6981 0.1587 -0.6981
vn -0.2555 0.1587 -0.9537
vn 0.2556 0.1586 -0.9537
vn 0.9537 0.1586 -0.2556
vn 0.6982 0.1586 0.6981
vn -0.2556 0.1586 0.9537
vn 0.2555 0.1587 0.9537
vn 0.9537 0.1587 0.2555
vn -0.9537 -0.1586 0.2556
vn -0.9537 -0.1586 -0.2556
vn 0.6981 -0.1587 -0.6981
vn -0.2556 -0.1586 -0.9537
vn 0.2556 -0.1586 -0.9537
vn 0.9537 -0.1587 -0.2555
vn 0.6981 -0.1587 0.6981
vn -0.2556 -0.1586 0.9537
vn 0.2556 -0.1586 0.9537
vn 0.9537 -0.1587 0.2555
vn -0.9453 -0.2053 0.2533
vn -0.9453 -0.2053 -0.2533
vn -0.2533 -0.2053 -0.9453
vn 0.2533 -0.2053 -0.9453
vn 0.9453 -0.2053 -0.2533
vn -0.2533 -0.2053 0.9453
vn 0.2533 -0.2053 0.9453
vn 0.9453 -0.2053 0.2533
vn 0.2541 0.1475 -0.9558
vn -0.2541 0.1475 0.9559
usemtl Wood.024
s off
f 50/1/1 28/2/1 25/3/1
f 15/4/2 27/5/2 29/6/2
f 16/7/3 29/6/3 31/8/3
f 33/9/4 16/7/4 31/8/4
f 35/10/5 17/11/5 33/9/5
f 37/12/6 18/13/6 35/10/6
f 39/14/7 19/15/7 37/12/7
f 21/16/8 39/14/8 41/17/8
f 22/18/9 41/17/9 43/19/9
f 45/20/10 22/18/10 43/19/10
f 7/21/11 62/22/11 60/23/11
f 47/24/12 23/25/12 45/20/12
f 14/26/13 47/24/13 26/27/13
f 10/28/14 56/29/14 54/30/14
f 23/25/15 14/26/15 17/11/15
f 52/31/16 10/28/16 54/30/16
f 51/32/17 30/33/17 28/2/17
f 8/34/18 60/23/18 58/35/18
f 9/36/19 11/37/19 3/38/19
f 56/29/20 8/34/20 58/35/20
f 2/39/21 72/40/21 70/41/21
f 68/42/22 2/39/22 70/41/22
f 4/43/23 68/42/23 66/44/23
f 64/45/24 4/43/24 66/44/24
f 62/22/25 5/46/25 64/45/25
f 28/2/26 26/27/26 25/3/26
f 30/33/27 27/5/27 28/2/27
f 32/47/28 29/6/28 30/33/28
f 33/9/29 32/47/29 34/48/29
f 35/10/30 34/48/30 36/49/30
f 37/12/31 36/49/31 38/50/31
f 39/14/32 38/50/32 40/51/32
f 42/52/33 39/14/33 40/51/33
f 44/53/34 41/17/34 42/52/34
f 45/20/35 44/53/35 46/54/35
f 47/24/36 46/54/36 48/55/36
f 25/3/37 47/24/37 48/55/37
f 13/56/38 26/27/38 27/5/38
f 69/57/39 44/53/39 67/58/39
f 67/58/40 42/52/40 65/59/40
f 65/59/41 40/51/41 63/60/41
f 63/60/42 38/50/42 61/61/42
f 61/61/43 36/49/43 59/62/43
f 59/62/44 34/48/44 57/63/44
f 57/63/45 32/47/45 55/64/45
f 71/65/46 25/3/46 48/55/46
f 1/66/47 49/67/47 72/40/47
f 53/68/48 32/47/48 30/33/48
f 71/65/49 46/54/49 69/57/49
f 50/1/50 52/31/50 51/32/50
f 51/32/51 54/30/51 53/68/51
f 53/68/52 56/29/52 55/64/52
f 56/29/53 57/63/53 55/64/53
f 58/35/54 59/62/54 57/63/54
f 60/23/55 61/61/55 59/62/55
f 62/22/56 63/60/56 61/61/56
f 64/45/57 65/59/57 63/60/57
f 66/44/58 67/58/58 65/59/58
f 68/42/59 69/57/59 67/58/59
f 69/57/60 72/40/60 71/65/60
f 71/65/61 49/67/61 50/1/61
f 49/67/62 11/37/62 52/31/62
f 50/1/1 51/32/1 28/2/1
f 15/4/63 13/56/63 27/5/63
f 16/7/64 15/4/64 29/6/64
f 33/9/65 17/11/65 16/7/65
f 35/10/66 18/13/66 17/11/66
f 37/12/6 19/15/6 18/13/6
f 39/14/67 20/69/67 19/15/67
f 21/16/68 20/69/68 39/14/68
f 22/18/69 21/16/69 41/17/69
f 45/20/70 23/25/70 22/18/70
f 7/21/11 6/70/11 62/22/11
f 47/24/71 24/71/71 23/25/71
f 14/26/72 24/71/72 47/24/72
f 10/28/14 9/36/14 56/29/14
f 14/26/15 13/56/15 15/4/15
f 15/4/15 16/7/15 14/26/15
f 16/7/15 17/11/15 14/26/15
f 17/11/15 18/13/15 21/16/15
f 18/13/15 19/15/15 21/16/15
f 19/15/15 20/69/15 21/16/15
f 21/16/15 22/18/15 23/25/15
f 23/25/15 24/71/15 14/26/15
f 21/16/15 23/25/15 17/11/15
f 52/31/16 11/37/16 10/28/16
f 51/32/17 53/68/17 30/33/17
f 8/34/18 7/21/18 60/23/18
f 11/37/19 12/72/19 3/38/19
f 12/72/19 1/66/19 3/38/19
f 1/66/19 2/39/19 3/38/19
f 3/38/19 4/43/19 5/46/19
f 5/46/19 6/70/19 3/38/19
f 6/70/19 7/21/19 3/38/19
f 7/21/19 8/34/19 9/36/19
f 9/36/19 10/28/19 11/37/19
f 7/21/19 9/36/19 3/38/19
f 56/29/20 9/36/20 8/34/20
f 2/39/21 1/66/21 72/40/21
f 68/42/73 3/38/73 2/39/73
f 4/43/74 3/38/74 68/42/74
f 64/45/24 5/46/24 4/43/24
f 62/22/25 6/70/25 5/46/25
f 28/2/26 27/5/26 26/27/26
f 30/33/27 29/6/27 27/5/27
f 32/47/28 31/8/28 29/6/28
f 33/9/29 31/8/29 32/47/29
f 35/10/30 33/9/30 34/48/30
f 37/12/31 35/10/31 36/49/31
f 39/14/32 37/12/32 38/50/32
f 42/52/33 41/17/33 39/14/33
f 44/53/75 43/19/75 41/17/75
f 45/20/76 43/19/76 44/53/76
f 47/24/36 45/20/36 46/54/36
f 25/3/37 26/27/37 47/24/37
f 13/56/38 14/26/38 26/27/38
f 69/57/39 46/54/39 44/53/39
f 67/58/40 44/53/40 42/52/40
f 65/59/41 42/52/41 40/51/41
f 63/60/42 40/51/42 38/50/42
f 61/61/43 38/50/43 36/49/43
f 59/62/44 36/49/44 34/48/44
f 57/63/45 34/48/45 32/47/45
f 71/65/46 50/1/46 25/3/46
f 1/66/47 12/72/47 49/67/47
f 53/68/48 55/64/48 32/47/48
f 71/65/49 48/55/49 46/54/49
f 50/1/50 49/67/50 52/31/50
f 51/32/51 52/31/51 54/30/51
f 53/68/52 54/30/52 56/29/52
f 56/29/53 58/35/53 57/63/53
f 58/35/54 60/23/54 59/62/54
f 60/23/55 62/22/55 61/61/55
f 62/22/56 64/45/56 63/60/56
f 64/45/57 66/44/57 65/59/57
f 66/44/58 68/42/58 67/58/58
f 68/42/59 70/41/59 69/57/59
f 69/57/60 70/41/60 72/40/60
f 71/65/61 72/40/61 49/67/61
f 49/67/62 12/72/62 11/37/62
usemtl Metal_Light.002
f 81/73/19 83/74/19 75/75/19
f 87/76/15 86/77/15 93/78/15
f 82/79/77 93/78/77 95/80/77
f 80/81/78 93/78/78 81/73/78
f 76/82/79 88/83/79 77/84/79
f 79/85/80 90/86/80 92/87/80
f 82/79/81 94/88/81 83/74/81
f 77/84/82 90/86/82 78/89/82
f 76/82/83 87/76/83 89/90/83
f 74/91/84 86/77/84 85/92/84
f 83/74/85 96/93/85 84/94/85
f 79/85/86 91/95/86 80/81/86
f 73/96/87 96/93/87 86/77/87
f 74/91/88 87/76/88 75/75/88
f 105/97/15 101/98/15 97/99/15
f 111/100/19 116/101/19 118/102/19
f 106/103/89 117/104/89 105/97/89
f 117/104/90 104/105/90 105/97/90
f 112/106/91 100/107/91 101/98/91
f 103/108/92 114/109/92 102/110/92
f 107/111/93 119/112/93 106/103/93
f 114/109/94 101/98/94 102/110/94
f 100/107/95 111/100/95 99/113/95
f 98/114/96 110/115/96 97/99/96
f 120/116/97 107/111/97 108/117/97
f 115/118/98 103/108/98 104/105/98
f 97/99/99 120/116/99 108/117/99
f 111/100/100 98/114/100 99/113/100
f 123/119/15 121/120/15 129/121/15
f 135/122/19 140/123/19 142/124/19
f 130/125/101 141/126/101 129/121/101
f 141/126/102 128/127/102 129/121/102
f 136/128/103 124/129/103 125/130/103
f 127/131/104 138/132/104 126/133/104
f 142/124/105 130/125/105 131/134/105
f 138/132/106 125/130/106 126/133/106
f 124/129/107 135/122/107 123/119/107
f 133/135/108 121/120/108 122/136/108
f 144/137/109 131/134/109 132/138/109
f 139/139/110 127/131/110 128/127/110
f 121/120/111 144/137/111 132/138/111
f 135/122/112 122/136/112 123/119/112
f 151/140/15 149/141/15 145/142/15
f 166/143/19 163/144/19 167/145/19
f 167/145/113 153/146/113 154/147/113
f 153/146/114 163/144/114 152/148/114
f 160/149/115 148/150/115 149/141/115
f 151/140/116 162/151/116 150/152/116
f 166/143/117 154/147/117 155/153/117
f 162/151/118 149/141/118 150/152/118
f 161/154/119 147/155/119 148/150/119
f 146/156/120 158/157/120 145/142/120
f 168/158/121 155/153/121 156/159/121
f 152/148/122 164/160/122 151/140/122
f 145/142/123 168/158/123 156/159/123
f 147/155/124 157/161/124 146/156/124
f 83/74/19 84/94/19 73/96/19
f 73/96/19 74/91/19 83/74/19
f 74/91/19 75/75/19 83/74/19
f 75/75/19 76/82/19 79/85/19
f 76/82/19 77/84/19 79/85/19
f 77/84/19 78/89/19 79/85/19
f 79/85/19 80/81/19 81/73/19
f 81/73/19 82/79/19 83/74/19
f 79/85/19 81/73/19 75/75/19
f 86/77/15 96/93/15 94/88/15
f 94/88/15 95/80/15 86/77/15
f 95/80/15 93/78/15 86/77/15
f 93/78/15 91/95/15 88/83/15
f 91/95/15 92/87/15 88/83/15
f 92/87/15 90/86/15 88/83/15
f 88/83/15 89/90/15 87/76/15
f 87/76/15 85/92/15 86/77/15
f 88/83/15 87/76/15 93/78/15
f 82/79/125 81/73/125 93/78/125
f 80/81/126 91/95/126 93/78/126
f 76/82/127 89/90/127 88/83/127
f 79/85/128 78/89/128 90/86/128
f 82/79/81 95/80/81 94/88/81
f 77/84/129 88/83/129 90/86/129
f 76/82/130 75/75/130 87/76/130
f 74/91/131 73/96/131 86/77/131
f 83/74/132 94/88/132 96/93/132
f 79/85/86 92/87/86 91/95/86
f 73/96/133 84/94/133 96/93/133
f 74/91/134 85/92/134 87/76/134
f 97/99/15 108/117/15 105/97/15
f 108/117/15 107/111/15 105/97/15
f 107/111/15 106/103/15 105/97/15
f 105/97/15 104/105/15 103/108/15
f 103/108/15 102/110/15 105/97/15
f 102/110/15 101/98/15 105/97/15
f 101/98/15 100/107/15 97/99/15
f 100/107/15 99/113/15 97/99/15
f 99/113/15 98/114/15 97/99/15
f 118/102/19 120/116/19 110/115/19
f 110/115/19 109/162/19 111/100/19
f 111/100/19 113/163/19 112/106/19
f 112/106/19 114/109/19 116/101/19
f 116/101/19 115/118/19 117/104/19
f 117/104/19 119/112/19 116/101/19
f 119/112/19 118/102/19 116/101/19
f 118/102/19 110/115/19 111/100/19
f 111/100/19 112/106/19 116/101/19
f 106/103/135 119/112/135 117/104/135
f 117/104/136 115/118/136 104/105/136
f 112/106/137 113/163/137 100/107/137
f 103/108/138 116/101/138 114/109/138
f 107/111/93 118/102/93 119/112/93
f 114/109/139 112/106/139 101/98/139
f 100/107/140 113/163/140 111/100/140
f 98/114/141 109/162/141 110/115/141
f 120/116/142 118/102/142 107/111/142
f 115/118/98 116/101/98 103/108/98
f 97/99/143 110/115/143 120/116/143
f 111/100/144 109/162/144 98/114/144
f 121/120/15 132/138/15 129/121/15
f 132/138/15 131/134/15 129/121/15
f 131/134/15 130/125/15 129/121/15
f 129/121/15 128/127/15 127/131/15
f 127/131/15 126/133/15 129/121/15
f 126/133/15 125/130/15 129/121/15
f 125/130/15 124/129/15 123/119/15
f 123/119/15 122/136/15 121/120/15
f 125/130/15 123/119/15 129/121/15
f 142/124/19 144/137/19 134/164/19
f 134/164/19 133/135/19 135/122/19
f 135/122/19 137/165/19 136/128/19
f 136/128/19 138/132/19 140/123/19
f 140/123/19 139/139/19 142/124/19
f 139/139/19 141/126/19 142/124/19
f 141/126/19 143/166/19 142/124/19
f 142/124/19 134/164/19 135/122/19
f 135/122/19 136/128/19 140/123/19
f 130/125/145 143/166/145 141/126/145
f 141/126/146 139/139/146 128/127/146
f 136/128/103 137/165/103 124/129/103
f 127/131/147 140/123/147 138/132/147
f 142/124/105 143/166/105 130/125/105
f 138/132/148 136/128/148 125/130/148
f 124/129/149 137/165/149 135/122/149
f 133/135/108 134/164/108 121/120/108
f 144/137/150 142/124/150 131/134/150
f 139/139/110 140/123/110 127/131/110
f 121/120/151 134/164/151 144/137/151
f 135/122/152 133/135/152 122/136/152
f 145/142/15 156/159/15 153/146/15
f 156/159/15 155/153/15 153/146/15
f 155/153/15 154/147/15 153/146/15
f 153/146/15 152/148/15 151/140/15
f 151/140/15 150/152/15 149/141/15
f 149/141/15 148/150/15 145/142/15
f 148/150/15 147/155/15 145/142/15
f 147/155/15 146/156/15 145/142/15
f 153/146/15 151/140/15 145/142/15
f 166/143/19 168/158/19 164/160/19
f 168/158/19 158/157/19 162/151/19
f 164/160/19 168/158/19 162/151/19
f 158/157/19 157/161/19 161/154/19
f 157/161/19 159/167/19 161/154/19
f 161/154/19 160/149/19 158/157/19
f 160/149/19 162/151/19 158/157/19
f 164/160/19 163/144/19 166/143/19
f 163/144/19 165/168/19 167/145/19
f 167/145/113 165/168/113 153/146/113
f 153/146/114 165/168/114 163/144/114
f 160/149/115 161/154/115 148/150/115
f 151/140/116 164/160/116 162/151/116
f 166/143/117 167/145/117 154/147/117
f 162/151/153 160/149/153 149/141/153
f 161/154/119 159/167/119 147/155/119
f 146/156/120 157/161/120 158/157/120
f 168/158/154 166/143/154 155/153/154
f 152/148/122 163/144/122 164/160/122
f 145/142/123 158/157/123 168/158/123
f 147/155/124 159/167/124 157/161/124
