# Blender v3.6.5 OBJ File: 'Level2.blend'
# www.blender.org
mtllib Plant_2_Cylinder.mtl
o Plant_2_Cylinder.020
v -0.027598 -0.000206 0.004657
v -0.003631 1.774251 0.000613
v -0.014225 -0.000206 -0.022256
v 0.015503 -0.000206 -0.017855
v 0.020503 -0.000206 0.011779
v -0.006134 -0.000206 0.025692
v -0.030864 0.242523 0.035088
v -0.018866 0.242523 0.010940
v 0.007809 0.242523 0.014889
v 0.012295 0.242523 0.041478
v -0.011606 0.242523 0.053962
v -0.039994 0.841592 0.013469
v -0.030272 0.841592 -0.006097
v -0.008660 0.841592 -0.002897
v -0.005024 0.841592 0.018646
v -0.024390 0.841592 0.028761
v -0.013544 1.038145 0.002830
v -0.005312 1.038145 -0.013736
v 0.012987 1.038145 -0.011027
v 0.016065 1.038145 0.007214
v -0.000332 1.038145 0.015778
v 0.214122 0.586401 -0.166908
v 0.173244 0.586401 -0.207972
v 0.289823 0.799248 -0.217398
v 0.000922 0.302280 0.033926
v -0.271700 0.756534 0.003310
v -0.263688 0.756534 0.060695
v -0.372206 0.982913 0.031042
v 0.003056 0.472414 0.029591
v -0.029023 0.527916 0.260945
v 0.028597 0.527916 0.267044
v -0.100000 0.750040 0.336511
v 0.000805 0.300908 0.028746
v 0.247743 0.671468 0.111040
v 0.264886 0.671468 0.055692
v 0.305371 0.910402 0.138651
v -0.000298 0.387347 0.032325
v -0.012530 0.671468 -0.271200
v -0.069664 0.671468 -0.261559
v -0.055181 0.919017 -0.340763
v 0.002708 0.387347 0.033748
v 0.031422 1.176409 0.083877
v 0.057742 1.176409 0.068123
v 0.078255 1.408601 0.177310
v -0.001587 1.076840 -0.001137
v 0.020245 0.680144 -0.137830
v -0.010260 0.680144 -0.141046
v 0.145562 0.948282 -0.178711
v -0.006991 0.553603 0.018050
v -0.118478 1.047641 -0.045751
v -0.138470 1.046958 0.008628
v -0.283438 1.264933 -0.086746
v 0.003469 0.972629 -0.000001
v -0.139751 0.931002 0.133189
v -0.090177 0.931002 0.163185
v -0.195398 1.092183 0.191107
v -0.009365 0.820032 0.015516
v 0.109896 0.782541 -0.018811
v 0.116758 0.783207 -0.076341
v 0.173108 1.040481 -0.051349
v -0.009949 0.680359 0.014604
v 0.148506 1.420699 0.076120
v 0.164512 1.420699 0.044824
v 0.184364 1.566609 0.099556
v -0.001949 1.243133 -0.000123
v -0.040972 1.420699 -0.172138
v -0.072568 1.420699 -0.156733
v -0.072854 1.547328 -0.231380
v 0.002835 1.243133 0.000562
v -0.151251 1.341486 -0.001912
v -0.143942 1.341486 0.032471
v -0.201822 1.500621 0.014967
v 0.002941 1.163920 -0.001840
v -0.005508 1.420699 0.147741
v 0.029640 1.420699 0.147230
v 0.021086 1.550384 0.206091
v -0.000804 1.243133 -0.001779
v 0.166076 1.279498 -0.074220
v 0.149779 1.279498 -0.105365
v 0.216336 1.407425 -0.143161
v -0.001226 1.101932 0.001519
v 0.216637 0.581705 -0.169411
v 0.175685 0.581548 -0.210401
v 0.292766 0.795703 -0.220328
v 0.002852 0.296571 0.032006
v -0.275215 0.751840 0.003801
v -0.267128 0.751727 0.061175
v -0.376223 0.979144 0.031603
v 0.000200 0.466868 0.029989
v -0.029411 0.523442 0.264610
v 0.028232 0.523088 0.270485
v -0.100450 0.746803 0.340762
v 0.000518 0.295198 0.031452
v 0.251467 0.667377 0.112193
v 0.268538 0.667234 0.056823
v 0.309697 0.907963 0.139991
v 0.002512 0.381864 0.033195
v -0.013142 0.666983 -0.274829
v -0.070275 0.666973 -0.265181
v -0.055919 0.916257 -0.345138
v 0.002266 0.381575 0.031128
v 0.033273 1.171803 0.086971
v 0.059571 1.171733 0.071179
v 0.080348 1.404877 0.180807
v -0.000063 1.071386 0.001409
v 0.020664 0.676246 -0.141803
v -0.009894 0.675369 -0.144524
v 0.146050 0.946382 -0.183338
v -0.006742 0.547583 0.015693
v -0.120860 1.041773 -0.046663
v -0.140921 1.041156 0.007691
v -0.286471 1.259806 -0.087893
v 0.001782 0.966226 -0.000661
v -0.141430 0.925877 0.135965
v -0.091694 0.925507 0.165692
v -0.197457 1.088248 0.194509
v -0.010417 0.813766 0.017254
v 0.113487 0.777947 -0.018409
v 0.120786 0.779435 -0.075882
v 0.177678 1.038339 -0.050816
v -0.007415 0.674489 0.014873
v 0.151906 1.416457 0.077859
v 0.167854 1.416340 0.046533
v 0.188342 1.563955 0.101591
v 0.000610 1.237577 0.001185
v -0.042461 1.415783 -0.175193
v -0.074023 1.415674 -0.159717
v -0.074545 1.543159 -0.234848
v 0.001603 1.237512 -0.001965
v -0.155010 1.337288 -0.001113
v -0.147627 1.337151 0.033255
v -0.206098 1.497659 0.015876
v -0.000073 1.158594 -0.001199
v -0.005456 1.416066 0.151330
v 0.029693 1.416136 0.150862
v 0.021145 1.546637 0.210156
v -0.000759 1.237827 0.001318
v 0.168897 1.274297 -0.075695
v 0.152659 1.274383 -0.106872
v 0.219598 1.402944 -0.144868
v 0.001182 1.096220 0.000259
vn -0.8955 0.0107 -0.4450
vn 0.1464 0.0189 -0.9890
vn 0.9858 0.0249 -0.1663
vn 0.4629 0.0203 0.8862
vn -0.6999 0.0116 0.7142
vn 0.0000 -1.0000 -0.0000
vn -0.6965 -0.0985 0.7107
vn 0.4610 -0.0924 0.8826
vn 0.9846 0.0536 -0.1661
vn 0.1451 0.1368 -0.9799
vn -0.8947 0.0437 -0.4446
vn -0.6999 0.0151 0.7141
vn 0.4625 0.0471 0.8854
vn 0.9858 0.0222 -0.1663
vn 0.1464 -0.0253 -0.9889
vn -0.8952 -0.0297 -0.4448
vn -0.6938 0.1317 0.7080
vn 0.4630 0.0019 0.8864
vn 0.9795 -0.1147 -0.1653
vn 0.1462 -0.0570 -0.9876
vn -0.8914 0.0960 -0.4429
vn -0.8947 0.0437 -0.4445
vn 0.4624 0.0471 0.8854
vn 0.9858 0.0222 -0.1664
vn -0.8951 -0.0297 -0.4448
vn 0.4629 0.0019 0.8864
vn 0.9796 -0.1147 -0.1653
vn -0.8914 0.0960 -0.4430
vn -0.1028 0.1967 0.9751
vn -0.6536 0.3868 0.6506
vn -0.4936 0.7176 0.4913
vn 0.9009 0.4154 -0.1258
vn 0.2851 0.8347 -0.4712
vn 0.0987 0.3486 -0.9321
vn 0.0733 0.7178 -0.6924
vn -0.9235 0.2558 -0.2860
vn -0.7044 0.6754 -0.2182
vn 0.1591 0.2924 0.9430
vn -0.3812 0.6701 -0.6369
vn 0.3126 0.7008 0.6412
vn -0.0656 0.7803 0.6220
vn 0.1138 0.7297 0.6742
vn 0.7387 0.6135 0.2793
vn -0.6584 0.7494 -0.0699
vn 0.4656 0.4372 -0.7695
vn -0.6164 0.7183 0.3225
vn -0.9682 0.2230 -0.1129
vn 0.7455 0.6473 -0.1585
vn -0.8546 0.2802 -0.4371
vn -0.0111 0.6439 -0.7650
vn 0.3871 0.4689 0.7939
vn 0.4648 0.8665 0.1818
vn 0.9281 0.3159 -0.1973
vn -0.6455 0.6887 -0.3301
vn -0.0132 0.4125 -0.9108
vn -0.7604 0.5132 0.3979
vn -0.4685 0.4095 -0.7828
vn 0.7198 0.6868 -0.1005
vn 0.0925 -0.1931 -0.9768
vn 0.6530 -0.3872 -0.6509
vn 0.4942 -0.7174 -0.4910
vn -0.9007 -0.4157 0.1261
vn -0.2875 -0.8342 0.4706
vn -0.0972 -0.3487 0.9322
vn -0.0750 -0.7174 0.6926
vn 0.9235 -0.2565 0.2854
vn 0.7046 -0.6750 0.2190
vn -0.1591 -0.2932 -0.9427
vn 0.3810 -0.6697 0.6375
vn -0.3122 -0.7006 -0.6416
vn 0.0778 -0.7787 -0.6226
vn -0.1138 -0.7293 -0.6746
vn -0.7384 -0.6137 -0.2795
vn 0.6590 -0.7494 0.0643
vn -0.4637 -0.4377 0.7703
vn 0.6163 -0.7182 -0.3230
vn 0.9675 -0.2239 0.1171
vn -0.7461 -0.6469 0.1577
vn 0.8547 -0.2813 0.4362
vn 0.0115 -0.6437 0.7652
vn -0.3875 -0.4692 -0.7935
vn -0.4655 -0.8662 -0.1816
vn -0.9277 -0.3165 0.1980
vn 0.6456 -0.6881 0.3313
vn 0.0129 -0.4129 0.9107
vn 0.7605 -0.5135 -0.3975
vn 0.4688 -0.4097 0.7825
vn -0.7200 -0.6867 0.1001
vn 0.6930 -0.0104 0.7209
vn 0.6600 -0.0568 0.7491
vn -0.4855 0.2274 -0.8441
vn -0.7763 -0.0630 -0.6272
vn 0.0034 -0.0886 -0.9961
vn -0.1817 0.0396 -0.9826
vn -0.0067 0.1262 0.9920
vn 0.1246 0.0083 0.9922
vn -0.9929 -0.0087 -0.1190
vn -0.9354 -0.1986 -0.2925
vn 0.8293 0.3395 0.4438
vn 0.9959 -0.0827 -0.0370
vn -0.2994 -0.0030 0.9541
vn -0.3194 -0.0323 0.9471
vn 0.4530 0.2219 -0.8634
vn 0.1770 -0.0842 -0.9806
vn 0.9946 -0.0458 -0.0926
vn 0.9638 0.0956 -0.2491
vn -0.9923 0.0862 0.0892
vn -0.9769 -0.0286 0.2118
vn -0.9025 -0.0640 0.4260
vn -0.8701 -0.0225 0.4923
vn 0.9084 0.1092 -0.4037
vn 0.8015 -0.0635 -0.5946
vn 0.9884 -0.0286 0.1491
vn 0.8735 -0.3560 0.3321
vn -0.8096 0.4083 -0.4216
vn -0.8096 0.4084 -0.4216
vn -0.9987 -0.0474 -0.0176
vn 0.3528 0.0029 -0.9357
vn 0.2876 0.0376 -0.9570
vn -0.4727 0.0697 0.8785
vn -0.0075 -0.1272 0.9918
vn -0.7141 -0.1032 -0.6924
vn -0.7139 -0.1033 -0.6926
vn -0.8069 -0.0673 -0.5868
vn 0.5941 0.2532 0.7635
vn 0.8725 -0.0143 0.4884
vn 0.1450 0.1476 0.9784
vn -0.0092 0.1265 0.9919
vn 0.1560 0.0614 -0.9859
vn -0.3666 -0.3156 -0.8752
vn -0.4534 0.0014 0.8913
vn -0.4736 -0.0249 0.8804
vn 0.5961 0.2081 -0.7755
vn 0.3410 -0.0820 -0.9365
vn 0.9451 -0.0757 -0.3179
vn 0.8917 0.0127 -0.4525
vn -0.9555 0.1476 0.2556
vn -0.9007 0.0024 0.4345
vn -0.0950 -0.0824 -0.9921
vn -0.2325 0.0291 -0.9722
vn 0.0833 0.1380 0.9869
vn 0.2186 -0.0077 0.9758
vn -0.9998 -0.0171 -0.0110
vn -0.9792 0.1298 0.1563
vn 0.9981 0.0484 0.0378
vn 0.9905 -0.0706 -0.1179
vn 0.4301 -0.0202 0.9026
vn 0.6393 0.1540 0.7534
vn -0.4774 -0.0112 -0.8786
vn -0.5386 -0.0481 -0.8412
vn -0.4855 0.2274 -0.8442
vn -0.7763 -0.0630 -0.6273
vn 0.1247 0.0084 0.9922
vn -0.2997 -0.0027 0.9540
vn -0.3195 -0.0322 0.9470
vn 0.4531 0.2219 -0.8634
vn 0.9637 0.0956 -0.2491
vn -0.9025 -0.0639 0.4260
vn -0.8702 -0.0225 0.4923
vn 0.3527 0.0027 -0.9357
vn 0.2875 0.0376 -0.9570
vn -0.7141 -0.1031 -0.6924
vn -0.8069 -0.0673 -0.5869
vn 0.5940 0.2532 0.7636
vn 0.1559 0.0614 -0.9859
vn -0.4531 0.0012 0.8914
vn 0.9451 -0.0756 -0.3179
vn 0.8917 0.0128 -0.4525
vn -0.2326 0.0291 -0.9721
vn 0.0834 0.1380 0.9869
vn 0.2187 -0.0076 0.9758
vn -0.9998 -0.0172 -0.0110
vn 0.9981 0.0485 0.0378
vn 0.4301 -0.0201 0.9026
vn -0.4773 -0.0112 -0.8786
usemtl Wood.010
s off
f 17//1 2//1 18//1
f 18//2 2//2 19//2
f 19//3 2//3 20//3
f 20//4 2//4 21//4
f 21//5 2//5 17//5
f 3//6 4//6 5//6
f 6//7 7//7 1//7
f 10//8 6//8 5//8
f 9//9 5//9 4//9
f 3//10 9//10 4//10
f 1//11 8//11 3//11
f 16//12 7//12 11//12
f 15//13 11//13 10//13
f 9//14 15//14 10//14
f 8//15 14//15 9//15
f 12//16 8//16 7//16
f 16//17 17//17 12//17
f 15//18 21//18 16//18
f 14//19 20//19 15//19
f 18//20 14//20 13//20
f 17//21 13//21 12//21
f 6//6 1//6 5//6
f 1//6 3//6 5//6
f 6//7 11//7 7//7
f 10//8 11//8 6//8
f 9//9 10//9 5//9
f 3//10 8//10 9//10
f 1//22 7//22 8//22
f 16//12 12//12 7//12
f 15//23 16//23 11//23
f 9//24 14//24 15//24
f 8//15 13//15 14//15
f 12//25 13//25 8//25
f 16//17 21//17 17//17
f 15//26 20//26 21//26
f 14//27 19//27 20//27
f 18//20 19//20 14//20
f 17//28 18//28 13//28
usemtl Leaves
f 46//29 48//29 47//29
f 23//30 22//30 24//30
f 23//31 25//31 22//31
f 27//32 26//32 28//32
f 55//33 57//33 54//33
f 31//34 30//34 32//34
f 31//35 33//35 30//35
f 35//36 34//36 36//36
f 35//37 37//37 34//37
f 39//38 38//38 40//38
f 42//39 43//39 45//39
f 67//40 69//40 66//40
f 46//41 47//41 49//41
f 39//42 41//42 38//42
f 51//43 50//43 52//43
f 59//44 61//44 58//44
f 55//45 54//45 56//45
f 79//46 81//46 78//46
f 59//47 58//47 60//47
f 71//48 73//48 70//48
f 63//49 62//49 64//49
f 75//50 77//50 74//50
f 67//51 66//51 68//51
f 51//52 53//52 50//52
f 71//53 70//53 72//53
f 63//54 65//54 62//54
f 75//55 74//55 76//55
f 79//56 78//56 80//56
f 42//57 44//57 43//57
f 27//58 29//58 26//58
f 106//59 107//59 108//59
f 83//60 84//60 82//60
f 83//61 82//61 85//61
f 87//62 88//62 86//62
f 115//63 114//63 117//63
f 91//64 92//64 90//64
f 91//65 90//65 93//65
f 95//66 96//66 94//66
f 95//67 94//67 97//67
f 99//68 100//68 98//68
f 102//69 105//69 103//69
f 127//70 126//70 129//70
f 106//71 109//71 107//71
f 99//72 98//72 101//72
f 111//73 112//73 110//73
f 119//74 118//74 121//74
f 115//75 116//75 114//75
f 139//76 138//76 141//76
f 119//77 120//77 118//77
f 131//78 130//78 133//78
f 123//79 124//79 122//79
f 135//80 134//80 137//80
f 127//81 128//81 126//81
f 111//82 110//82 113//82
f 131//83 132//83 130//83
f 123//84 122//84 125//84
f 135//85 136//85 134//85
f 139//86 140//86 138//86
f 102//87 103//87 104//87
f 87//88 86//88 89//88
f 25//89 82//89 22//89
f 22//90 84//90 24//90
f 23//91 84//91 83//91
f 25//92 83//92 85//92
f 29//93 86//93 26//93
f 26//94 88//94 28//94
f 27//95 88//95 87//95
f 29//96 87//96 89//96
f 33//97 90//97 30//97
f 30//98 92//98 32//98
f 31//99 92//99 91//99
f 33//100 91//100 93//100
f 37//101 94//101 34//101
f 34//102 96//102 36//102
f 35//103 96//103 95//103
f 37//104 95//104 97//104
f 41//105 98//105 38//105
f 38//106 100//106 40//106
f 39//107 100//107 99//107
f 41//108 99//108 101//108
f 45//109 102//109 42//109
f 42//110 104//110 44//110
f 43//111 104//111 103//111
f 45//112 103//112 105//112
f 49//113 106//113 46//113
f 46//114 108//114 48//114
f 47//115 108//116 107//116
f 49//117 107//117 109//117
f 53//118 110//118 50//118
f 50//119 112//119 52//119
f 51//120 112//120 111//120
f 53//121 111//121 113//121
f 57//122 114//123 54//122
f 54//124 116//124 56//124
f 55//125 116//125 115//125
f 57//126 115//126 117//126
f 61//127 118//127 58//127
f 58//128 120//128 60//128
f 59//129 120//129 119//129
f 61//130 119//130 121//130
f 65//131 122//131 62//131
f 62//132 124//132 64//132
f 63//133 124//133 123//133
f 65//134 123//134 125//134
f 69//135 126//135 66//135
f 66//136 128//136 68//136
f 67//137 128//137 127//137
f 69//138 127//138 129//138
f 73//139 130//139 70//139
f 70//140 132//140 72//140
f 71//141 132//141 131//141
f 73//142 131//142 133//142
f 77//143 134//143 74//143
f 74//144 136//144 76//144
f 75//145 136//145 135//145
f 77//146 135//146 137//146
f 81//147 138//147 78//147
f 78//148 140//148 80//148
f 79//149 140//149 139//149
f 81//150 139//150 141//150
f 25//89 85//89 82//89
f 22//90 82//90 84//90
f 23//151 24//151 84//151
f 25//152 23//152 83//152
f 29//93 89//93 86//93
f 26//94 86//94 88//94
f 27//95 28//95 88//95
f 29//153 27//153 87//153
f 33//97 93//97 90//97
f 30//98 90//98 92//98
f 31//99 32//99 92//99
f 33//100 31//100 91//100
f 37//154 97//154 94//154
f 34//155 94//155 96//155
f 35//156 36//156 96//156
f 37//104 35//104 95//104
f 41//105 101//105 98//105
f 38//157 98//157 100//157
f 39//107 40//107 100//107
f 41//108 39//108 99//108
f 45//158 105//158 102//158
f 42//159 102//159 104//159
f 43//111 44//111 104//111
f 45//112 43//112 103//112
f 49//113 109//113 106//113
f 46//114 106//114 108//114
f 47//115 48//116 108//116
f 49//117 47//117 107//117
f 53//160 113//160 110//160
f 50//161 110//161 112//161
f 51//120 52//120 112//120
f 53//121 51//121 111//121
f 57//162 117//162 114//162
f 54//163 114//163 116//163
f 55//164 56//164 116//164
f 57//126 55//126 115//126
f 61//127 121//127 118//127
f 58//128 118//128 120//128
f 59//165 60//165 120//165
f 61//130 59//130 119//130
f 65//166 125//166 122//166
f 62//132 122//132 124//132
f 63//133 64//133 124//133
f 65//134 63//134 123//134
f 69//167 129//167 126//167
f 66//168 126//168 128//168
f 67//137 68//137 128//137
f 69//138 67//138 127//138
f 73//139 133//139 130//139
f 70//169 130//169 132//169
f 71//170 72//170 132//170
f 73//171 71//171 131//171
f 77//172 137//172 134//172
f 74//144 134//144 136//144
f 75//173 76//173 136//173
f 77//146 75//146 135//146
f 81//174 141//174 138//174
f 78//148 138//148 140//148
f 79//175 80//175 140//175
f 81//150 79//150 139//150
