# Blender v3.6.5 OBJ File: 'Level2.blend'
# www.blender.org
mtllib Plant_1_Plane.mtl
o Plant_1_Plane.004
v 0.005831 -0.011696 0.001863
v 0.579784 0.137139 0.027011
v 0.579171 0.137139 -0.037947
v 0.547718 0.222525 0.050921
v 0.547182 0.222893 -0.050580
v 0.607368 0.084456 -0.005731
v 0.118280 0.218001 -0.089253
v 0.131939 0.218001 0.089920
v 0.023222 0.101721 -0.324477
v -0.031411 0.101589 -0.325514
v 0.030124 0.161539 -0.280825
v -0.051899 0.161341 -0.282040
v -0.002707 0.066665 -0.367404
v -0.074032 0.181339 -0.156270
v 0.041994 0.181376 -0.154248
v -0.571423 0.137139 0.057761
v -0.561382 0.137139 0.121941
v -0.541771 0.222941 0.038913
v -0.527389 0.222941 0.130831
v -0.593959 0.084456 0.094162
v -0.179561 0.193402 0.147679
v -0.136284 0.218823 -0.091714
v 0.099122 0.179211 0.540000
v 0.152552 0.181479 0.529005
v -0.012541 0.297212 0.322122
v 0.130629 0.301388 0.304368
v 0.136556 0.141829 0.571338
v 0.091416 0.178601 0.160496
v -0.056830 0.184708 0.167514
v 0.009199 -0.017994 0.013845
v 0.378173 0.234504 0.454200
v 0.425676 0.234504 0.409889
v 0.338886 0.379360 0.446690
v 0.413396 0.379986 0.377762
v 0.420950 0.145127 0.452440
v 0.152334 0.371686 0.035272
v 0.029390 0.371686 0.166323
v 0.261665 0.174416 -0.193666
v 0.225542 0.174194 -0.234667
v 0.234125 0.275898 -0.159102
v 0.179641 0.275563 -0.220427
v 0.275823 0.114945 -0.241777
v 0.071924 0.309488 -0.151834
v 0.148771 0.309552 -0.064883
v -0.421788 0.234504 -0.374223
v -0.462350 0.234504 -0.323483
v -0.387863 0.380066 -0.365076
v -0.445957 0.380066 -0.292406
v -0.463855 0.145127 -0.366269
v -0.223536 0.329953 -0.024456
v -0.017728 0.373080 -0.154168
v -0.324768 0.305878 0.446003
v -0.280582 0.309727 0.477993
v -0.322609 0.242460 0.494775
v -0.050031 0.304844 0.184083
v -0.155301 0.315204 0.079469
v 0.004263 -0.022135 0.000151
v 0.565812 0.133969 0.027115
v 0.565204 0.133956 -0.037843
v 0.535943 0.216237 0.050811
v 0.535090 0.216927 -0.050671
v 0.593687 0.080682 -0.005602
v 0.129264 0.211029 -0.090010
v 0.142429 0.210641 0.089212
v 0.023036 0.095907 -0.312244
v -0.031598 0.095815 -0.313246
v 0.030009 0.152949 -0.272285
v -0.052008 0.152592 -0.273817
v -0.002884 0.059701 -0.356385
v -0.073917 0.171537 -0.161760
v 0.042115 0.171692 -0.160125
v -0.557624 0.133955 0.055602
v -0.547583 0.133955 0.119782
v -0.529830 0.216969 0.037045
v -0.515448 0.216969 0.128963
v -0.580442 0.080682 0.092047
v -0.190483 0.186587 0.145206
v -0.147452 0.212240 -0.094290
v 0.097187 0.173476 0.527848
v 0.150618 0.175734 0.516862
v -0.012110 0.287098 0.326373
v 0.130960 0.290996 0.307044
v 0.134635 0.135687 0.559572
v 0.091938 0.172135 0.172073
v -0.056323 0.178282 0.179134
v 0.008652 -0.028052 0.009364
v 0.368375 0.232549 0.443656
v 0.415878 0.232544 0.399346
v 0.330745 0.373582 0.437515
v 0.405230 0.374246 0.368564
v 0.411204 0.142804 0.441992
v 0.161448 0.366290 0.043967
v 0.038417 0.366154 0.174944
v 0.251486 0.170510 -0.184632
v 0.215356 0.170305 -0.225625
v 0.226378 0.268438 -0.152195
v 0.172036 0.267967 -0.213645
v 0.266082 0.110097 -0.233144
v 0.076553 0.299892 -0.155881
v 0.153599 0.300047 -0.069106
v -0.410545 0.232543 -0.365237
v -0.451108 0.232543 -0.314496
v -0.378280 0.374668 -0.356905
v -0.436315 0.374750 -0.284200
v -0.452694 0.142804 -0.357347
v -0.229594 0.324364 -0.035312
v -0.023735 0.367332 -0.164893
v -0.316264 0.302084 0.435299
v -0.272071 0.305948 0.467283
v -0.314249 0.238360 0.484174
v -0.059424 0.300386 0.193472
v -0.164668 0.310713 0.088854
v 0.118309 0.470109 0.282369
v 0.185855 0.473885 0.344333
v 0.324068 0.479259 0.218921
v 0.268321 0.476935 0.146012
v 0.187633 0.462855 0.344407
v 0.119934 0.459032 0.282797
v 0.269554 0.465902 0.146606
v 0.324708 0.468181 0.219838
v -0.175971 0.462056 -0.269285
v -0.263628 0.456159 -0.317042
v -0.369402 0.458898 -0.200413
v -0.315890 0.456319 -0.135969
v -0.263720 0.445310 -0.317695
v -0.175261 0.451665 -0.272348
v -0.315284 0.445239 -0.138336
v -0.368068 0.447739 -0.201902
v 0.305204 0.288606 0.127708
v 0.442093 0.281759 0.108313
v 0.442666 0.284340 -0.060162
v 0.306090 0.292874 -0.072502
v 0.440784 0.270885 0.106072
v 0.305034 0.277733 0.126526
v 0.305429 0.282031 -0.073298
v 0.441342 0.273287 -0.060066
v -0.210215 0.434007 0.168918
v -0.266659 0.436202 0.289723
v -0.178369 0.441539 0.364303
v -0.103375 0.438442 0.268513
v -0.268241 0.423025 0.294955
v -0.214398 0.423239 0.172644
v -0.106500 0.426782 0.271195
v -0.180905 0.427915 0.366890
v -0.326968 0.301380 -0.019459
v -0.419811 0.294838 0.009445
v -0.402257 0.294838 0.121639
v -0.314634 0.292047 0.125024
v -0.420372 0.283675 0.008305
v -0.328107 0.290914 -0.022295
v -0.316167 0.281093 0.123219
v -0.403117 0.283617 0.119937
vn 0.9364 0.3509 -0.0057
vn 0.2995 -0.3500 0.8876
vn -0.3766 0.9261 0.0231
vn 0.8837 0.4679 -0.0083
vn -0.8853 0.4602 0.0675
vn 0.0118 0.5898 -0.8075
vn 0.0102 0.7715 -0.6362
vn -0.0137 0.6302 0.7763
vn 0.0014 0.9878 -0.1559
vn -0.9250 0.3514 0.1447
vn -0.2472 0.0059 -0.9689
vn 0.4964 0.8601 0.1179
vn -0.8732 0.4679 0.1366
vn 0.7940 0.5725 0.2043
vn -0.0457 -0.8789 -0.4748
vn -0.0466 0.7908 -0.6103
vn 0.1146 0.7031 0.7018
vn -0.0098 0.6429 -0.7659
vn 0.6636 0.2157 0.7163
vn -0.6175 -0.1808 0.7655
vn -0.3991 0.8316 -0.3862
vn 0.6511 0.2979 0.6980
vn -0.6975 0.2922 -0.6543
vn 0.6866 0.3954 -0.6101
vn 0.6089 0.5815 -0.5396
vn -0.6761 0.4316 0.5972
vn 0.1923 0.9660 -0.1729
vn -0.7626 0.2161 -0.6097
vn 0.4255 -0.1633 -0.8901
vn 0.2613 0.8273 0.4972
vn 0.2613 0.8274 0.4972
vn -0.7456 0.2979 -0.5961
vn 0.4347 0.3806 0.8162
vn -0.8581 -0.1972 -0.4740
vn -0.8581 -0.1972 -0.4741
vn -0.5350 0.5035 0.6784
vn 0.6534 0.4434 -0.6136
vn -0.9398 -0.3416 0.0069
vn -0.5083 -0.8611 -0.0094
vn -0.8839 -0.4675 0.0084
vn 0.8688 -0.4909 -0.0649
vn -0.0133 -0.5731 0.8194
vn -0.0104 -0.7701 0.6378
vn 0.0117 -0.6386 -0.7695
vn -0.0001 -0.9862 0.1658
vn 0.9280 -0.3432 -0.1452
vn 0.5037 -0.8603 -0.0783
vn 0.8733 -0.4675 -0.1366
vn -0.7824 -0.5885 -0.2036
vn -0.9040 -0.1189 0.4106
vn 0.0500 -0.7845 0.6182
vn -0.1146 -0.7029 -0.7020
vn 0.0080 -0.6647 0.7470
vn -0.6650 -0.2073 -0.7175
vn -0.3146 -0.8737 -0.3710
vn -0.6512 -0.2978 -0.6981
vn 0.6897 -0.3241 0.6475
vn -0.6917 -0.3813 0.6134
vn -0.6093 -0.5808 0.5399
vn 0.6721 -0.4395 -0.5960
vn -0.2062 -0.9605 0.1869
vn 0.7638 -0.2092 0.6106
vn 0.4122 -0.8343 0.3662
vn 0.4122 -0.8343 0.3661
vn 0.7456 -0.2978 0.5961
vn -0.4295 -0.3934 -0.8128
vn 0.7638 -0.0385 0.6443
vn 0.4425 -0.7463 -0.4972
vn 0.5350 -0.5034 -0.6784
vn -0.6447 -0.4711 0.6020
vn 0.0886 -0.2417 0.9663
vn 0.4996 0.8662 0.0095
vn 0.0649 -0.0514 -0.9966
vn 0.0460 -0.1325 -0.9901
vn 0.0459 0.1131 -0.9925
vn 0.1261 -0.4728 0.8721
vn 0.1114 -0.4723 -0.8744
vn 0.3807 -0.9244 -0.0243
vn -0.2179 -0.2380 0.9465
vn 0.9953 -0.0859 -0.0451
vn 0.9951 -0.0139 -0.0977
vn -0.9614 -0.2177 -0.1682
vn 0.8936 -0.3992 -0.2054
vn -0.8756 -0.4178 -0.2422
vn -0.9837 -0.0265 -0.1778
vn -0.2032 -0.1454 -0.9683
vn -0.4924 0.8669 0.0770
vn 0.1414 -0.1131 0.9835
vn 0.1022 -0.1454 0.9841
vn -0.2236 -0.0772 0.9716
vn -0.2525 -0.4725 -0.8444
vn 0.0175 -0.4725 0.8812
vn -0.5033 -0.8558 -0.1195
vn 0.9931 -0.0326 -0.1127
vn -0.9731 0.1283 0.1912
vn -0.7946 -0.4829 0.3679
vn 0.9362 -0.3507 0.0234
vn 0.9775 -0.1053 -0.1830
vn -0.4485 -0.1169 -0.8861
vn -0.4486 -0.1169 -0.8861
vn -0.9245 -0.0672 0.3753
vn -0.9244 -0.0672 0.3753
vn 0.9892 -0.1084 0.0988
vn 0.2480 -0.3942 0.8849
vn 0.4276 -0.0934 -0.8991
vn 0.9447 -0.2069 -0.2544
vn -0.9651 -0.0847 -0.2476
vn -0.9652 -0.0847 -0.2476
vn -0.6998 -0.1550 0.6973
vn 0.3088 0.8783 0.3651
vn 0.8383 -0.1124 -0.5335
vn 0.7529 -0.0829 -0.6529
vn 0.6818 0.0159 -0.7314
vn -0.6574 -0.3272 0.6788
vn 0.7240 -0.3269 -0.6074
vn 0.4047 -0.8265 0.3913
vn -0.7233 -0.2195 0.6547
vn -0.7233 -0.2196 0.6547
vn 0.6852 -0.0629 0.7256
vn 0.7421 -0.0217 0.6699
vn -0.5949 -0.1630 -0.7871
vn 0.7033 -0.3362 0.6264
vn -0.5294 -0.3532 -0.7714
vn -0.5372 -0.0410 -0.8425
vn 0.6132 -0.0934 -0.7844
vn -0.4004 0.8432 -0.3588
vn -0.6831 -0.1651 0.7114
vn -0.6515 -0.0901 0.7533
vn -0.8370 -0.1449 0.5277
vn 0.5511 -0.3270 -0.7677
vn -0.6275 -0.3270 0.7066
vn -0.6275 -0.3271 0.7066
vn -0.2656 -0.8227 -0.5027
vn 0.7585 -0.1078 0.6427
vn 0.7585 -0.1078 0.6426
vn -0.4379 0.7609 0.4788
vn 0.0388 0.8850 0.4640
vn -0.7864 -0.3923 -0.4771
vn 0.7021 -0.2743 0.6571
vn -0.5579 -0.6079 0.5650
vn 0.3457 -0.0636 -0.9362
vn 0.3458 -0.0636 -0.9362
vn 0.3457 -0.0637 -0.9362
vn -0.9173 -0.0180 -0.3977
vn 0.7159 -0.1470 0.6826
vn -0.6594 -0.3656 0.6569
vn 0.9411 -0.0727 -0.3301
vn 0.6874 -0.2388 0.6859
vn -0.4231 -0.0171 -0.9059
vn -0.4231 -0.0170 -0.9059
vn 0.5529 0.6204 -0.5563
vn -0.0455 0.9990 -0.0036
vn 0.0457 -0.9989 0.0036
vn -0.6694 -0.0863 0.7379
vn 0.7959 0.0261 -0.6048
vn -0.7409 -0.1146 0.6618
vn -0.0185 0.9998 -0.0062
vn 0.0226 -0.9997 0.0061
vn 0.4518 0.1665 -0.8765
vn -0.7609 -0.1751 0.6248
vn 0.6673 0.3449 -0.6601
vn 0.0566 0.9982 0.0188
vn -0.0578 -0.9982 -0.0184
vn 0.1347 -0.1630 0.9774
vn 0.0949 0.0232 -0.9952
vn -0.1430 -0.1818 0.9729
vn -0.0183 0.9992 -0.0355
vn 0.0261 -0.9995 0.0195
vn -0.9086 0.0643 -0.4127
vn 0.7870 -0.0481 0.6151
vn -0.7616 0.1309 -0.6347
vn -0.0154 0.9992 0.0381
vn 0.0201 -0.9990 -0.0406
vn -0.3133 0.1955 -0.9293
vn -0.0423 -0.1516 0.9875
vn -0.1711 0.4082 -0.8967
vn 0.9364 0.3508 -0.0057
vn 0.2995 -0.3499 0.8876
vn 0.0119 0.5897 -0.8075
vn 0.0013 0.9878 -0.1559
vn 0.0013 0.9878 -0.1558
vn -0.9250 0.3515 0.1447
vn 0.4963 0.8601 0.1179
vn 0.6637 0.2157 0.7163
vn 0.1922 0.9660 -0.1729
vn -0.7626 0.2160 -0.6097
vn -0.8582 -0.1971 -0.4740
vn -0.8581 -0.1971 -0.4741
vn -0.0132 -0.5732 0.8193
vn -0.0001 -0.9862 0.1657
vn 0.5038 -0.8602 -0.0786
vn 0.0499 -0.7845 0.6182
vn -0.6651 -0.2072 -0.7175
vn -0.6916 -0.3813 0.6134
vn 0.7641 -0.2095 0.6102
vn 0.4121 -0.8343 0.3662
vn 0.0884 -0.2414 0.9664
vn 0.0648 -0.0514 -0.9966
vn 0.1261 -0.4727 0.8721
vn 0.1115 -0.4723 -0.8744
vn -0.2180 -0.2379 0.9465
vn -0.4924 0.8669 0.0771
vn 0.1023 -0.1454 0.9841
vn -0.2235 -0.0772 0.9716
vn 0.9931 -0.0325 -0.1127
vn -0.6998 -0.1550 0.6974
vn 0.7530 -0.0829 -0.6528
vn 0.6818 0.0159 -0.7313
vn -0.7232 -0.2195 0.6548
vn -0.7232 -0.2196 0.6548
vn -0.5294 -0.3531 -0.7714
vn -0.6515 -0.0900 0.7533
vn -0.8370 -0.1448 0.5277
vn -0.6274 -0.3270 0.7067
vn -0.6274 -0.3271 0.7066
vn 0.0388 0.8850 0.4641
vn 0.7020 -0.2743 0.6572
vn -0.5579 -0.6080 0.5649
vn 0.7159 -0.1470 0.6825
vn 0.9412 -0.0727 -0.3301
vn 0.0457 -0.9989 0.0035
vn -0.7409 -0.1145 0.6618
vn 0.4507 0.1666 -0.8770
vn -0.7609 -0.1744 0.6250
vn 0.7870 -0.0480 0.6151
vn -0.7616 0.1309 -0.6348
vn 0.0201 -0.9990 -0.0407
vn -0.3133 0.1954 -0.9293
usemtl Green
s off
f 2//1 5//1 4//1
f 130//2 60//2 4//2
f 8//3 132//3 7//3
f 3//4 2//4 6//4
f 1//5 8//5 7//5
f 11//6 10//6 12//6
f 10//7 9//7 13//7
f 1//8 15//8 14//8
f 15//9 12//9 14//9
f 16//10 19//10 18//10
f 146//11 74//11 18//11
f 145//12 21//12 22//12
f 17//13 16//13 20//13
f 1//14 22//14 21//14
f 82//15 79//15 81//15
f 25//16 28//16 29//16
f 24//17 23//17 27//17
f 1//18 29//18 28//18
f 31//19 34//19 33//19
f 114//20 89//20 33//20
f 37//21 116//21 36//21
f 32//22 31//22 35//22
f 30//23 37//23 36//23
f 40//24 39//24 41//24
f 39//25 38//25 42//25
f 30//26 44//26 43//26
f 44//27 41//27 43//27
f 45//28 48//28 47//28
f 122//29 103//29 47//29
f 121//30 50//31 51//31
f 46//32 45//32 49//32
f 30//33 51//33 50//33
f 52//34 141//35 108//35
f 53//36 52//36 54//36
f 30//37 56//37 55//37
f 61//38 58//38 60//38
f 136//39 60//39 133//39
f 59//40 62//40 58//40
f 57//41 63//41 64//41
f 67//42 66//42 65//42
f 66//43 69//43 65//43
f 57//44 70//44 71//44
f 71//45 68//45 67//45
f 74//46 73//46 72//46
f 152//47 74//47 149//47
f 73//48 76//48 72//48
f 57//49 77//49 78//49
f 23//50 81//50 79//50
f 84//51 81//51 85//51
f 80//52 83//52 79//52
f 57//53 84//53 85//53
f 90//54 87//54 89//54
f 117//55 90//55 89//55
f 88//56 91//56 87//56
f 86//57 92//57 93//57
f 96//58 95//58 94//58
f 95//59 98//59 94//59
f 86//60 99//60 100//60
f 100//61 97//61 96//61
f 103//62 102//62 101//62
f 128//63 103//64 125//64
f 102//65 105//65 101//65
f 86//66 106//66 107//66
f 53//67 144//67 139//67
f 144//68 108//68 141//68
f 109//69 110//69 108//69
f 86//70 111//70 112//70
f 2//71 60//71 58//71
f 4//72 131//72 130//72
f 131//73 61//73 136//73
f 5//74 59//74 61//74
f 132//75 63//75 7//75
f 2//76 62//76 6//76
f 3//77 62//77 59//77
f 64//78 135//78 134//78
f 1//79 64//79 8//79
f 11//80 65//80 9//80
f 11//81 71//81 67//81
f 10//82 68//82 12//82
f 9//83 69//83 13//83
f 10//84 69//84 66//84
f 12//85 70//85 14//85
f 18//86 72//86 16//86
f 146//87 19//87 147//87
f 19//88 152//88 147//88
f 19//89 73//89 75//89
f 21//90 151//90 77//90
f 16//91 76//91 20//91
f 17//92 76//92 73//92
f 77//93 150//93 78//93
f 24//94 82//94 26//94
f 25//95 85//95 81//95
f 23//96 83//96 27//96
f 24//97 83//97 80//97
f 28//98 82//98 84//98
f 1//99 63//99 57//100
f 1//101 70//102 57//102
f 1//103 71//103 15//103
f 1//104 77//104 57//104
f 1//105 78//105 22//105
f 1//106 84//106 57//106
f 1//107 85//108 29//107
f 31//109 89//109 87//109
f 114//110 34//110 115//110
f 115//111 90//111 120//111
f 32//112 90//112 34//112
f 116//113 92//113 36//113
f 31//114 91//114 35//114
f 32//115 91//115 88//115
f 93//116 119//116 118//116
f 37//117 86//117 93//118
f 38//119 96//119 94//119
f 40//120 100//120 96//120
f 39//121 97//121 41//121
f 38//122 98//122 42//122
f 39//123 98//123 95//123
f 41//124 99//124 43//124
f 45//125 103//125 101//125
f 47//126 123//126 122//126
f 48//127 128//127 123//127
f 46//128 104//128 48//128
f 50//129 127//129 106//129
f 45//130 105//130 49//130
f 46//131 105//131 102//132
f 106//133 126//133 107//133
f 55//134 143//134 111//135
f 52//136 139//136 138//136
f 23//137 26//137 25//137
f 52//138 110//138 54//138
f 53//139 110//139 109//139
f 111//140 142//140 112//140
f 30//141 92//142 86//143
f 30//144 99//144 86//144
f 30//145 100//145 44//145
f 30//146 106//146 86//146
f 30//147 107//147 51//147
f 30//148 111//148 86//148
f 30//149 112//150 56//149
f 137//151 55//151 56//151
f 114//152 116//152 113//152
f 119//153 117//153 118//153
f 118//154 114//154 113//154
f 115//155 119//155 116//155
f 113//156 93//156 118//156
f 122//157 124//157 121//157
f 127//158 125//158 126//158
f 126//159 122//159 121//159
f 123//160 127//160 124//160
f 121//161 107//161 126//161
f 130//162 132//162 129//162
f 135//163 133//163 134//163
f 134//164 130//164 129//164
f 136//165 132//165 131//165
f 129//166 64//166 134//166
f 138//167 140//167 137//167
f 143//168 141//168 142//168
f 142//169 138//169 137//169
f 139//170 143//170 140//170
f 56//171 142//171 137//171
f 146//172 148//172 145//172
f 151//173 149//173 150//173
f 150//174 146//174 145//174
f 147//175 151//175 148//175
f 145//176 78//176 150//176
f 2//1 3//177 5//177
f 130//178 133//178 60//178
f 8//3 129//3 132//3
f 11//179 9//179 10//179
f 15//180 11//181 12//181
f 16//182 17//182 19//182
f 146//11 149//11 74//11
f 145//183 148//183 21//183
f 82//15 80//15 79//15
f 25//16 26//16 28//16
f 31//184 32//184 34//184
f 114//20 117//20 89//20
f 37//21 113//21 116//21
f 40//24 38//24 39//24
f 44//185 40//185 41//185
f 45//186 46//186 48//186
f 122//29 125//29 103//29
f 121//31 124//30 50//31
f 52//187 138//188 141//187
f 61//38 59//38 58//38
f 136//39 61//39 60//39
f 67//189 68//189 66//189
f 71//190 70//190 68//190
f 74//46 75//46 73//46
f 152//191 75//191 74//191
f 23//50 25//50 81//50
f 84//192 82//192 81//192
f 90//193 88//193 87//193
f 117//55 120//55 90//55
f 96//194 97//194 95//194
f 100//61 99//61 97//61
f 103//195 104//195 102//195
f 128//196 104//196 103//196
f 53//67 109//67 144//67
f 144//68 109//68 108//68
f 2//71 4//197 60//71
f 4//72 5//72 131//72
f 131//198 5//198 61//198
f 5//74 3//74 59//74
f 132//75 135//75 63//75
f 2//199 58//199 62//199
f 3//200 6//200 62//200
f 64//78 63//78 135//78
f 1//201 57//201 64//201
f 11//80 67//80 65//80
f 11//81 15//81 71//81
f 10//82 66//82 68//82
f 9//83 65//83 69//83
f 10//84 13//84 69//84
f 12//85 68//85 70//85
f 18//86 74//86 72//86
f 146//202 18//202 19//202
f 19//88 75//88 152//88
f 19//203 17//203 73//203
f 21//90 148//204 151//204
f 16//91 72//91 76//91
f 17//92 20//92 76//92
f 77//93 151//93 150//93
f 24//205 80//205 82//205
f 25//95 29//95 85//95
f 23//96 79//96 83//96
f 24//97 27//97 83//97
f 28//98 26//98 82//98
f 1//100 7//100 63//100
f 1//101 14//101 70//101
f 1//103 57//103 71//103
f 1//104 21//104 77//104
f 1//105 57//105 78//105
f 1//106 28//106 84//106
f 1//108 57//108 85//108
f 31//206 33//206 89//206
f 114//110 33//110 34//110
f 115//111 34//111 90//111
f 32//207 88//207 90//207
f 116//208 119//208 92//208
f 31//114 87//114 91//114
f 32//115 35//115 91//115
f 93//116 92//116 119//116
f 37//209 30//210 86//210
f 38//119 40//119 96//119
f 40//120 44//120 100//120
f 39//121 95//121 97//121
f 38//122 94//122 98//122
f 39//211 42//211 98//211
f 41//124 97//124 99//124
f 45//125 47//125 103//125
f 47//126 48//126 123//126
f 48//127 104//127 128//127
f 46//128 102//212 104//212
f 50//213 124//213 127//213
f 45//130 101//130 105//130
f 46//214 49//215 105//214
f 106//133 127//133 126//133
f 55//134 140//134 143//134
f 52//136 53//136 139//136
f 23//216 24//216 26//216
f 52//138 108//138 110//138
f 53//217 54//217 110//217
f 111//218 143//218 142//218
f 30//142 36//141 92//141
f 30//144 43//144 99//144
f 30//219 86//219 100//219
f 30//146 50//146 106//146
f 30//220 86//220 107//220
f 30//148 55//148 111//148
f 30//150 86//149 112//150
f 137//151 140//151 55//151
f 114//152 115//152 116//152
f 119//221 120//221 117//221
f 118//154 117//154 114//154
f 115//155 120//155 119//155
f 113//222 37//222 93//222
f 122//157 123//157 124//157
f 127//158 128//158 125//158
f 126//159 125//223 122//159
f 123//224 128//224 127//224
f 121//161 51//161 107//161
f 130//162 131//162 132//162
f 135//163 136//163 133//163
f 134//164 133//164 130//164
f 136//165 135//165 132//165
f 129//166 8//166 64//166
f 138//167 139//167 140//167
f 143//168 144//168 141//168
f 142//169 141//169 138//169
f 139//225 144//225 143//225
f 56//226 112//226 142//226
f 146//172 147//172 148//172
f 151//227 152//227 149//227
f 150//228 149//228 146//228
f 147//175 152//175 151//175
f 145//176 22//176 78//176
