# Blender v3.6.5 OBJ File: 'Level2.blend'
# www.blender.org
mtllib Rock_7_Cube.mtl
o Rock_7_Cube.030
v -0.299917 0.441715 0.246215
v 0.181244 0.424579 0.154834
v -0.380029 0.452047 -0.248656
v 0.123077 0.297819 -0.232413
v 0.090952 0.420267 0.093848
v 0.029866 0.435259 -0.298383
v 0.004376 0.530762 -0.297440
v -0.290612 0.546030 -0.234804
v -0.243685 0.546688 0.169692
v -0.290827 0.354926 0.293840
v 0.016228 0.427042 0.238594
v 0.235541 0.234762 0.152256
v 0.119447 0.063600 -0.427353
v -0.443175 0.168892 -0.349262
v -0.067333 0.167138 -0.452952
v -0.412974 0.295000 0.276714
v 0.219539 0.243792 0.266245
v 0.014148 0.293296 0.291022
v -0.412933 0.296362 0.370268
v 0.128996 0.182642 -0.271718
v -0.393154 0.312402 -0.240793
v -0.019947 0.302456 -0.316108
v 0.119781 -0.227213 -0.424840
v -0.532077 -0.227213 -0.343319
v -0.066543 -0.227213 -0.447010
v -0.484026 -0.227213 0.286096
v 0.256146 -0.302694 0.226585
v 0.038190 -0.302693 0.247770
v -0.478574 -0.302693 0.327092
v 0.144281 0.121890 -0.241793
v 0.152020 -0.227213 -0.274514
v -0.483359 0.193279 -0.223955
v -0.553190 -0.227213 -0.196513
v 0.322356 -0.227213 0.176060
v 0.312766 0.192819 0.161779
v 0.250574 0.069700 -0.164367
v 0.245175 -0.227213 -0.201720
v -0.096205 -0.227213 0.645318
v 0.206759 -0.227213 0.428210
v -0.478216 -0.227213 0.414063
v -0.097442 0.167754 0.636012
v 0.192955 0.187383 0.415312
v -0.389771 0.239954 0.404681
v 0.272969 -0.227213 0.377685
v 0.263378 0.136411 0.363404
v -0.263328 0.295288 0.342508
v -0.523074 -0.227213 -0.345325
v 0.232092 -0.227213 0.188377
v 0.021280 -0.227213 0.217143
vn 0.5557 0.7477 -0.3634
vn -0.0120 0.9985 -0.0529
vn 0.9489 0.2008 -0.2434
vn -0.1549 0.0715 -0.9853
vn -0.1505 0.1273 -0.9804
vn 0.6636 0.7195 -0.2047
vn -0.7698 0.5334 -0.3507
vn 0.0521 0.9156 0.3986
vn 0.2381 0.9667 0.0935
vn 0.3492 0.4226 0.8363
vn -0.7834 0.6104 0.1172
vn 0.9564 0.2566 -0.1391
vn 0.3084 0.4672 0.8287
vn 0.3083 0.4672 0.8287
vn -0.9832 0.0598 0.1724
vn -0.9832 0.0597 0.1724
vn -0.4390 0.8984 -0.0129
vn 0.9557 0.2719 0.1126
vn 0.5047 0.1076 -0.8565
vn 0.5215 0.5910 -0.6155
vn -0.1597 0.6829 -0.7128
vn 0.1410 0.6642 0.7342
vn -0.9876 0.1172 0.1049
vn -0.9875 0.1172 0.1049
vn 0.1237 -0.0120 -0.9922
vn -0.2393 0.0121 -0.9709
vn 0.7129 0.6077 0.3499
vn -0.9567 0.1765 -0.2313
vn 0.6138 0.0873 -0.7846
vn 0.0028 0.9014 0.4329
vn 0.9714 0.1562 -0.1791
vn 0.9851 0.0205 -0.1709
vn -0.9807 0.1514 0.1235
vn -0.6446 0.7645 0.0010
vn 0.9805 0.0120 -0.1962
vn 0.0000 -1.0000 0.0000
vn 0.4775 0.8786 -0.0026
vn 0.9697 0.0326 0.2421
vn 0.5927 0.0331 0.8047
vn -0.5587 0.0744 0.8260
vn 0.6101 0.0460 0.7910
vn 0.1276 -0.9518 0.2789
vn 0.6310 -0.7198 0.2893
vn 0.2490 0.8842 0.3953
vn -0.9764 0.1358 0.1679
vn -0.9764 0.1358 0.1678
vn -0.0482 -0.9573 0.2850
vn 0.1034 0.4715 0.8758
vn -0.1187 -0.4783 -0.8701
vn -0.1042 -0.4359 -0.8940
vn -0.1289 -0.4406 -0.8884
vn 0.3084 0.4671 0.8287
vn 0.5047 0.1077 -0.8565
vn 0.6137 0.0874 -0.7847
vn 0.0027 0.9014 0.4329
vn 0.1034 0.4714 0.8758
vn 0.1033 0.4714 0.8758
vn -0.1041 -0.4359 -0.8940
usemtl Rock.006
s off
f 12//1 36//1 30//1
f 11//2 2//2 5//2
f 30//3 20//3 4//3
f 22//4 3//4 6//4
f 8//5 6//5 3//5
f 4//6 5//6 2//6
f 14//7 32//7 21//7
f 11//8 1//8 10//8
f 8//9 5//9 7//9
f 5//10 9//10 1//10
f 9//11 3//11 1//11
f 6//12 7//12 5//12
f 18//13 2//14 11//13
f 1//15 21//15 10//16
f 16//17 19//17 10//17
f 2//18 17//18 12//18
f 22//19 4//19 20//19
f 15//20 20//20 13//20
f 15//21 21//21 22//21
f 19//22 46//22 10//22
f 26//23 19//24 16//23
f 13//25 25//25 15//25
f 47//26 24//26 14//26
f 17//27 45//27 35//27
f 14//28 33//28 32//28
f 31//29 36//29 37//29
f 46//30 43//30 41//30
f 20//31 30//31 13//31
f 31//32 13//32 30//32
f 32//33 26//33 16//33
f 21//34 16//34 10//34
f 34//35 36//35 35//35
f 31//36 49//36 33//36
f 12//37 17//37 35//37
f 34//38 45//38 44//38
f 41//39 39//39 42//39
f 40//40 41//40 43//40
f 39//41 45//41 42//41
f 28//42 39//42 38//42
f 27//43 44//43 39//43
f 18//44 42//44 17//44
f 29//45 43//46 19//46
f 28//47 40//47 29//47
f 10//48 18//48 11//48
f 31//36 25//36 23//36
f 34//49 27//49 48//49
f 48//36 37//36 34//36
f 48//50 28//50 49//50
f 49//51 29//51 26//51
f 49//36 37//36 48//36
f 12//1 35//1 36//1
f 2//3 12//3 4//3
f 12//3 30//3 4//3
f 22//4 21//4 3//4
f 8//5 7//5 6//5
f 4//6 6//6 5//6
f 11//8 5//8 1//8
f 8//9 9//9 5//9
f 9//11 8//11 3//11
f 18//52 17//52 2//52
f 1//16 3//16 21//16
f 22//53 6//53 4//53
f 15//20 22//20 20//20
f 15//21 14//21 21//21
f 26//23 29//23 19//23
f 13//25 23//25 25//25
f 14//26 15//26 25//26
f 25//26 47//26 14//26
f 17//27 42//27 45//27
f 14//28 24//28 33//28
f 31//54 30//54 36//54
f 41//30 18//30 46//30
f 46//55 19//30 43//30
f 31//32 23//32 13//32
f 32//33 33//33 26//33
f 21//34 32//34 16//34
f 34//35 37//35 36//35
f 49//36 26//36 33//36
f 33//36 24//36 47//36
f 47//36 31//36 33//36
f 34//38 35//38 45//38
f 41//39 38//39 39//39
f 40//40 38//40 41//40
f 39//41 44//41 45//41
f 28//42 27//42 39//42
f 27//43 34//43 44//43
f 18//44 41//44 42//44
f 29//45 40//45 43//45
f 28//47 38//47 40//47
f 10//56 46//56 18//57
f 31//36 47//36 25//36
f 48//58 27//58 28//50
f 49//51 28//51 29//51
f 49//36 31//36 37//36
