# Blender v3.6.5 OBJ File: 'Level2.blend'
# www.blender.org
mtllib Rock_3_Cube.mtl
o Rock_3_Cube.017
v -0.438269 -0.082813 -0.223961
v -0.302785 0.472205 -0.205689
v 0.224723 -0.082813 -0.223961
v 0.171901 0.319176 -0.148458
v -0.375068 -0.082813 0.381058
v -0.322698 0.461472 0.278716
v 0.194329 -0.082813 0.424008
v 0.171901 0.304707 0.204243
v -0.006784 -0.121333 -0.223961
v 0.083519 0.454137 -0.102699
v -0.006784 -0.121333 0.461515
v 0.050830 0.443267 0.276998
v 0.061650 0.541523 0.276998
v -0.257126 0.554656 0.252941
v -0.263927 0.524514 -0.156757
v -0.296295 0.374469 -0.270511
v 0.000000 -0.002045 0.513990
v 0.214758 -0.002045 0.473938
v 0.010394 0.319621 -0.209784
v 0.000000 -0.002045 -0.288593
v -0.460759 -0.002045 -0.288593
v 0.247213 -0.002045 -0.288593
v 0.212838 0.117603 -0.217132
v 0.179872 0.076991 0.405565
v -0.393271 0.182119 0.398852
v -0.007040 0.182119 0.452126
v -0.428604 0.186784 -0.231746
v 0.212838 0.117603 -0.258511
v 0.005197 0.184452 -0.250778
v -0.428604 0.186784 -0.273126
v 0.277600 -0.002045 -0.247213
v 0.245144 -0.002045 0.444716
v -0.393271 -0.002045 0.428075
v 0.177978 0.190849 0.246195
v -0.357984 0.321795 0.280075
v 0.021895 0.312693 0.305853
v 0.167631 0.232749 -0.195645
v 0.177978 0.231688 -0.178264
vn 0.3122 0.4820 -0.8187
vn 0.8341 0.5485 0.0584
vn 0.8341 0.5485 0.0585
vn 0.9822 0.1822 0.0451
vn -0.0274 0.1175 0.9927
vn -0.0964 -0.9953 0.0047
vn -0.0254 0.1434 0.9893
vn 0.8043 0.5915 0.0564
vn 0.1757 -0.9844 0.0040
vn -0.8897 0.4566 0.0023
vn 0.2474 0.5296 -0.8114
vn 0.1396 0.9798 -0.1432
vn 0.2373 0.5638 -0.7911
vn -0.8103 0.5855 -0.0246
vn 0.9906 -0.1091 0.0822
vn 0.3195 0.4419 -0.8382
vn -0.1709 0.2335 0.9572
vn 0.6609 -0.5724 -0.4853
vn 0.0440 -0.5467 -0.8362
vn -0.9879 0.1384 -0.0694
vn -0.8173 0.5762 0.0000
vn -0.0235 -0.5439 -0.8388
vn -0.9601 0.0831 0.2670
vn 0.0154 0.2179 -0.9758
vn 0.0251 0.1381 -0.9901
vn 0.8432 0.2249 -0.4882
vn 0.5077 0.6808 0.5279
vn -0.9967 -0.0174 0.0794
vn 0.5889 -0.5275 0.6123
vn 0.8477 0.4295 -0.3113
vn -0.2126 -0.4448 0.8700
vn 0.8412 -0.5393 0.0395
vn 0.5581 0.1823 0.8095
vn -0.9557 -0.0461 -0.2907
vn 0.2037 -0.4679 0.8600
vn 0.3007 0.4610 0.8349
vn 0.5741 0.6139 0.5418
vn -0.0643 0.7065 0.7048
vn 0.1175 0.0836 -0.9895
vn 0.9982 0.0605 0.0043
vn 0.9098 0.3858 -0.1533
vn 0.1850 0.4017 -0.8969
vn 0.8341 0.5486 0.0585
vn 0.8341 0.5486 0.0584
vn -0.0963 -0.9953 0.0047
vn -0.0254 0.1433 0.9893
vn -0.0235 -0.5439 -0.8389
vn -0.0235 -0.5438 -0.8389
vn 0.0154 0.2179 -0.9759
vn 0.0251 0.1380 -0.9901
vn 0.5580 0.1823 0.8095
vn 0.5740 0.6140 0.5418
vn 0.5741 0.6140 0.5418
vn 0.1175 0.0837 -0.9895
vn 0.9098 0.3858 -0.1532
usemtl Rock.002
s off
f 19//1 10//1 4//1
f 24//2 31//3 23//3
f 23//4 34//4 24//4
f 36//5 6//5 35//5
f 9//6 5//6 1//6
f 12//7 14//7 6//7
f 8//8 10//8 12//8
f 7//9 9//9 3//9
f 35//10 27//10 25//10
f 2//11 19//11 16//11
f 10//12 14//12 13//12
f 10//13 2//13 15//13
f 6//14 15//14 2//14
f 12//15 10//15 13//15
f 19//16 4//16 37//16
f 26//17 33//17 17//17
f 3//18 22//18 31//18
f 3//19 20//19 22//19
f 35//20 2//20 16//20
f 27//21 16//21 30//21
f 1//22 20//22 9//22
f 27//23 21//23 1//23
f 20//24 28//24 22//24
f 30//25 20//25 21//25
f 4//26 38//26 37//26
f 18//27 32//27 24//27
f 5//28 27//28 1//28
f 7//29 32//29 18//29
f 28//30 31//30 22//30
f 5//31 17//31 33//31
f 3//32 32//32 7//32
f 8//33 36//33 34//33
f 25//34 5//34 33//34
f 7//35 17//35 11//35
f 24//36 17//36 18//36
f 34//37 26//37 24//37
f 26//38 35//38 25//38
f 16//39 29//39 30//39
f 38//40 8//40 34//40
f 37//41 23//41 28//41
f 37//42 29//42 19//42
f 24//43 32//44 31//44
f 23//4 38//4 34//4
f 36//5 12//5 6//5
f 9//45 11//45 5//45
f 12//46 13//46 14//46
f 8//8 4//8 10//8
f 7//9 11//9 9//9
f 35//10 16//10 27//10
f 2//11 10//11 19//11
f 10//12 15//12 14//12
f 6//14 14//14 15//14
f 26//17 25//17 33//17
f 3//19 9//19 20//19
f 35//20 6//20 2//20
f 1//47 21//48 20//47
f 27//23 30//23 21//23
f 20//49 29//49 28//49
f 30//50 29//50 20//50
f 5//28 25//28 27//28
f 28//30 23//30 31//30
f 5//31 11//31 17//31
f 3//32 31//32 32//32
f 8//33 12//51 36//33
f 7//35 18//35 17//35
f 24//36 26//36 17//36
f 34//52 36//53 26//53
f 26//38 36//38 35//38
f 16//54 19//39 29//39
f 38//40 4//40 8//40
f 37//55 38//55 23//55
f 37//42 28//42 29//42
