# Blender v3.6.5 OBJ File: 'Level2.blend'
# www.blender.org
mtllib Rock_5_Cube.mtl
o Rock_5_Cube.024
v -0.173477 0.006286 0.349604
v -0.175999 0.550805 0.238668
v 0.194909 0.466562 0.101507
v 0.126443 0.534897 0.182864
v 0.152800 0.013281 0.395222
v 0.287116 0.017038 0.328502
v 0.247978 0.185820 0.274482
v -0.187478 0.278263 0.289753
v 0.127650 0.285096 0.281313
v 0.303605 0.017556 0.298091
v -0.118812 -0.001943 0.390446
v 0.230405 0.442089 0.061941
v 0.286693 0.183612 0.226206
v 0.340535 0.088362 0.213067
v -0.322655 0.004954 0.052786
v -0.275732 0.565005 0.027357
v 0.202127 0.484979 -0.033818
v -0.276056 0.005406 -0.336461
v -0.243284 0.550228 -0.232099
v 0.164643 0.395258 -0.194000
v 0.125672 0.569879 -0.021546
v 0.061153 0.534337 -0.275738
v -0.106078 0.589540 0.016418
v 0.018574 0.012129 -0.483886
v 0.167161 0.016008 -0.463553
v 0.106159 -0.055105 -0.017523
v -0.194044 -0.063243 0.031702
v 0.287027 0.017965 -0.047180
v 0.147276 0.184956 -0.400131
v -0.290216 0.304776 -0.334958
v 0.011109 0.311491 -0.427595
v -0.316151 0.310654 0.051391
v 0.192497 0.016602 -0.440001
v -0.237289 -0.002960 -0.392596
v 0.246359 0.435462 -0.041000
v 0.210425 0.369425 -0.164398
v 0.199380 0.182862 -0.366737
v 0.288817 0.236668 -0.047680
v 0.332865 0.089836 -0.054694
v 0.254641 0.087625 -0.371216
v -0.118812 0.069967 0.426120
v -0.173477 0.078197 0.385279
v -0.130847 0.271292 0.386755
v 0.152800 0.085191 0.430897
v 0.287116 0.088949 0.364176
v 0.131632 0.283035 0.388806
v 0.222532 0.166182 0.323012
vn 0.8543 -0.5185 -0.0354
vn 0.7380 0.3300 0.5886
vn 0.7431 0.4566 0.4891
vn 0.7560 0.6443 0.1156
vn 0.6534 0.3967 0.6448
vn -0.1338 0.9826 0.1292
vn 0.4160 -0.4041 0.8146
vn -0.3956 -0.8915 0.2206
vn 0.8254 0.3365 0.4533
vn -0.8860 0.0375 0.4622
vn 0.1035 0.2718 0.9568
vn 0.1035 0.2719 0.9568
vn -0.5929 -0.3579 0.7214
vn 0.2456 -0.9672 0.0643
vn -0.9319 0.1011 0.3483
vn 0.0975 0.9779 0.1848
vn 0.9275 0.3727 0.0280
vn 0.9690 0.2353 0.0755
vn -0.9780 0.1858 -0.0944
vn 0.7085 0.6981 0.1034
vn 0.8210 -0.5358 -0.1972
vn 0.5117 0.3286 -0.7938
vn 0.5517 0.5787 -0.6006
vn 0.7804 0.5188 -0.3490
vn 0.7012 0.3862 -0.5993
vn -0.1474 0.9863 -0.0746
vn -0.3153 0.1447 -0.9379
vn -0.4410 -0.8949 -0.0686
vn 0.6372 0.3355 -0.6939
vn -0.9956 -0.0126 -0.0930
vn -0.1831 0.4987 -0.8472
vn -0.8248 -0.0362 -0.5642
vn 0.2131 -0.9699 -0.1180
vn 0.2653 0.2533 -0.9303
vn 0.2652 0.2533 -0.9303
vn 0.0406 0.9858 -0.1631
vn 0.8870 0.3766 -0.2672
vn 0.9113 0.2513 -0.3263
vn 0.6273 0.6026 -0.4934
vn -0.0225 0.1981 0.9799
vn -0.5821 0.1224 0.8038
vn 0.6054 0.3974 0.6896
vn 0.9168 0.3981 0.0299
vn 0.9169 0.3981 0.0299
vn 0.7333 0.6523 0.1916
vn -0.0315 0.9981 0.0534
vn 0.0092 -0.4444 0.8958
vn -0.8748 0.1517 0.4601
vn 0.0053 -0.9898 -0.1425
vn 0.0525 -0.9861 0.1575
vn 0.8543 -0.5186 -0.0354
vn -0.3956 -0.8916 0.2206
vn 0.2457 -0.9672 0.0643
vn 0.0976 0.9779 0.1848
vn 0.5516 0.5787 -0.6006
vn 0.5516 0.5787 -0.6007
vn 0.7011 0.3862 -0.5994
vn -0.1830 0.4987 -0.8472
vn 0.0406 0.9858 -0.1630
vn 0.9113 0.2512 -0.3263
vn -0.8748 0.1518 0.4601
vn 0.0054 -0.9898 -0.1425
vn 0.0526 -0.9861 0.1575
usemtl Rock.004
s off
f 28//1 14//1 10//1
f 7//2 14//2 13//2
f 13//3 3//3 7//3
f 3//4 21//4 4//4
f 3//5 9//5 7//5
f 16//6 2//6 23//6
f 5//7 45//7 44//7
f 27//8 1//8 15//8
f 6//9 10//9 7//9
f 8//10 15//10 1//10
f 9//11 2//12 8//12
f 11//13 42//13 1//13
f 10//14 5//14 26//14
f 8//15 42//15 43//15
f 4//16 23//16 2//16
f 13//17 39//17 38//17
f 38//18 12//18 13//18
f 19//19 32//19 16//19
f 17//20 12//20 35//20
f 40//21 28//21 33//21
f 29//22 40//22 33//22
f 37//23 20//23 36//23
f 20//24 21//24 17//24
f 31//25 20//25 29//25
f 16//26 23//26 19//26
f 31//27 34//27 30//27
f 18//28 27//28 15//28
f 25//29 29//29 33//29
f 15//30 30//30 18//30
f 31//31 19//31 22//31
f 30//32 34//32 18//32
f 24//33 25//33 33//33
f 29//34 24//35 31//34
f 22//36 23//36 21//36
f 39//37 37//37 38//37
f 38//38 36//38 35//38
f 17//39 36//39 20//39
f 46//40 41//40 44//40
f 43//41 42//41 41//41
f 47//42 44//42 45//42
f 7//43 45//43 6//44
f 9//45 47//45 7//45
f 9//46 43//46 46//46
f 5//47 41//47 11//47
f 2//48 32//48 8//48
f 34//49 26//49 27//49
f 11//50 26//50 5//50
f 28//51 39//51 14//51
f 7//2 10//2 14//2
f 13//3 12//3 3//3
f 3//4 17//4 21//4
f 3//5 4//5 9//5
f 5//7 6//7 45//7
f 27//52 11//52 1//52
f 8//10 32//10 15//10
f 9//11 4//11 2//11
f 11//13 41//13 42//13
f 26//14 28//14 10//14
f 10//53 6//14 5//14
f 8//15 1//15 42//15
f 4//54 21//54 23//54
f 13//17 14//17 39//17
f 38//18 35//18 12//18
f 19//19 30//19 32//19
f 17//20 3//20 12//20
f 40//21 39//21 28//21
f 29//22 37//22 40//22
f 37//55 29//56 20//55
f 20//24 22//24 21//24
f 31//25 22//57 20//25
f 31//27 24//27 34//27
f 18//28 34//28 27//28
f 15//30 32//30 30//30
f 31//58 30//58 19//58
f 33//33 28//33 26//33
f 26//33 24//33 33//33
f 29//34 25//34 24//34
f 22//59 19//59 23//36
f 39//37 40//37 37//37
f 38//60 37//60 36//60
f 17//39 35//39 36//39
f 46//40 43//40 41//40
f 47//42 46//42 44//42
f 7//44 47//44 45//43
f 9//45 46//45 47//45
f 9//46 8//46 43//46
f 5//47 44//47 41//47
f 2//61 16//61 32//48
f 34//62 24//62 26//62
f 11//63 27//63 26//63
