# Blender v3.6.5 OBJ File: 'Level2.blend'
# www.blender.org
mtllib Rock_2_Cube.mtl
o Rock_2_Cube.016
v -0.283772 -0.044790 -0.247213
v -0.125798 0.472205 -0.205689
v 0.247213 -0.044790 -0.247213
v 0.185011 0.319176 -0.166453
v -0.216284 -0.044790 0.161298
v -0.145711 0.461472 0.161298
v 0.214758 -0.044790 0.207161
v 0.152638 0.304707 0.086825
v 0.000000 -0.090959 -0.247213
v 0.083519 0.454137 -0.102699
v 0.000000 -0.090959 0.247213
v 0.050830 0.443267 0.159579
v 0.061650 0.541523 0.159579
v -0.080139 0.554656 0.135523
v -0.086940 0.524514 -0.156757
v -0.219462 0.375613 -0.216279
v 0.200875 0.237252 -0.187050
v 0.000000 -0.002045 0.276436
v 0.214758 -0.002045 0.236384
v 0.192228 0.055198 0.208862
v 0.010394 0.370948 -0.171583
v 0.000000 -0.002045 -0.288593
v -0.283772 -0.002045 -0.288593
v 0.168633 0.223558 -0.232437
v 0.247213 -0.002045 -0.288593
v 0.010394 0.334761 -0.212963
v -0.192052 0.355073 -0.264095
v 0.224044 0.117603 -0.217132
v 0.174735 0.076991 0.168011
v -0.216284 0.182119 0.161298
v -0.007040 0.182119 0.214572
v -0.251617 0.186784 -0.231746
v 0.224044 0.117603 -0.258511
v 0.005197 0.184452 -0.250778
v -0.251617 0.186784 -0.273126
v 0.254431 0.117603 -0.217132
v 0.277600 -0.002045 -0.247213
v 0.245144 -0.002045 0.207161
v 0.222615 0.055198 0.179640
v -0.216284 0.147285 0.190520
v -0.216284 -0.002045 0.190520
v -0.007040 0.147285 0.243794
vn 0.1534 0.4292 -0.8901
vn -0.3094 0.0961 0.9460
vn -0.3094 0.0961 0.9461
vn 0.9791 0.1492 0.1381
vn -0.1193 0.1285 0.9845
vn -0.1838 -0.9829 0.0138
vn -0.1838 -0.9829 0.0137
vn -0.0510 0.1532 0.9869
vn 0.8259 0.5484 0.1312
vn 0.1965 -0.9805 0.0067
vn -0.9428 0.3210 0.0895
vn -0.9428 0.3210 0.0896
vn 0.3220 0.1166 -0.9395
vn 0.2978 0.9355 -0.1902
vn 0.4287 0.4266 -0.7964
vn -0.8094 0.5863 -0.0333
vn -0.8094 0.5863 -0.0334
vn 0.9870 -0.1087 0.1185
vn 0.1590 0.8545 -0.4946
vn -0.1914 0.6308 0.7520
vn 0.2346 0.3026 0.9238
vn 0.6993 -0.4972 -0.5136
vn 0.1624 0.1112 -0.9804
vn 0.0486 0.2506 -0.9669
vn 0.0496 -0.5315 -0.8456
vn 0.4356 0.7009 -0.5648
vn -0.9060 0.2558 -0.3373
vn -0.0432 -0.5317 -0.8458
vn -0.0433 -0.5317 -0.8458
vn -0.9865 0.1454 0.0751
vn 0.0150 0.2173 -0.9760
vn 0.0415 0.1364 -0.9898
vn 0.8428 0.3867 -0.3743
vn 0.8429 0.3867 -0.3742
vn 0.0000 1.0000 0.0000
vn 0.4825 0.7362 0.4745
vn -0.9897 0.0651 0.1273
vn -0.9897 0.0651 0.1274
vn 0.6218 -0.4420 0.6465
vn 0.9645 0.2479 0.0910
vn -0.3765 -0.3759 0.8467
vn -0.3765 -0.3759 0.8468
vn 0.8137 -0.5784 0.0581
vn 0.2442 0.9578 0.1515
vn 0.5175 0.1942 0.8333
vn 0.5175 0.1943 0.8333
vn 0.3218 0.8857 0.3347
vn -1.0000 0.0000 0.0000
vn 0.2093 -0.3967 0.8937
vn 0.5893 0.5265 0.6128
vn 0.7710 0.2916 -0.5662
vn -0.3095 0.0961 0.9460
vn 0.9791 0.1493 0.1381
vn -0.1839 -0.9829 0.0137
vn 0.1966 -0.9805 0.0067
vn 0.1623 0.1111 -0.9805
vn 0.0485 0.2506 -0.9669
vn 0.2093 -0.3968 0.8937
usemtl Rock.001
s off
f 21//1 4//1 17//1
f 42//2 41//3 18//3
f 17//4 8//4 29//4
f 31//5 6//5 30//5
f 9//6 5//7 1//6
f 12//8 14//8 6//8
f 8//9 10//9 12//9
f 7//10 9//10 3//10
f 6//11 2//11 16//12
f 2//13 21//13 16//13
f 10//14 14//14 13//14
f 10//15 2//15 15//15
f 6//16 15//17 2//17
f 12//18 10//18 13//18
f 21//19 27//19 16//19
f 31//20 40//20 42//20
f 20//21 18//21 19//21
f 3//22 25//22 37//22
f 27//23 34//23 35//23
f 34//24 24//24 33//24
f 3//25 22//25 25//25
f 17//26 26//26 21//26
f 32//27 27//27 35//27
f 1//28 22//29 9//29
f 32//30 23//30 1//30
f 22//31 33//31 25//31
f 35//32 22//32 23//32
f 28//33 24//34 17//33
f 33//35 28//35 36//35
f 29//36 42//36 20//36
f 5//37 32//37 1//38
f 7//39 38//39 19//39
f 37//40 39//40 38//40
f 11//41 41//41 5//42
f 3//43 38//43 7//43
f 29//44 36//44 28//44
f 8//45 31//46 29//46
f 39//47 29//47 20//47
f 30//48 41//48 40//48
f 7//49 18//49 11//49
f 20//50 38//50 39//50
f 33//51 37//51 25//51
f 21//1 10//1 4//1
f 42//2 40//52 41//52
f 29//4 28//4 17//4
f 17//53 4//53 8//53
f 31//5 12//5 6//5
f 9//54 11//54 5//54
f 12//8 13//8 14//8
f 8//9 4//9 10//9
f 7//55 11//55 9//55
f 32//11 30//11 16//11
f 30//11 6//11 16//11
f 2//13 10//13 21//13
f 10//14 15//14 14//14
f 6//17 14//17 15//17
f 21//19 26//19 27//19
f 31//20 30//20 40//20
f 20//21 42//21 18//21
f 27//56 26//56 34//56
f 34//57 26//57 24//57
f 3//25 9//25 22//25
f 17//26 24//26 26//26
f 32//27 16//27 27//27
f 1//29 23//28 22//28
f 32//30 35//30 23//30
f 22//31 34//31 33//31
f 35//32 34//32 22//32
f 28//34 33//34 24//34
f 29//36 31//36 42//36
f 5//37 30//37 32//37
f 37//40 36//40 39//40
f 11//41 18//41 41//41
f 3//43 37//43 38//43
f 29//44 39//44 36//44
f 8//46 12//46 31//46
f 30//48 5//48 41//48
f 7//49 19//58 18//58
f 20//50 19//50 38//50
f 33//51 36//51 37//51
