# Blender v3.6.5 OBJ File: 'Level2.blend'
# www.blender.org
mtllib TreeStump_Cylinder.mtl
o TreeStump_Cylinder.010
v -0.011119 0.001398 -0.446654
v -0.011119 0.363649 -0.395416
v 0.267708 0.001398 -0.317448
v 0.233749 0.363649 -0.278571
v 0.435566 0.001398 -0.127909
v 0.367836 0.346862 -0.106683
v 0.360681 0.001398 0.209833
v 0.299045 0.363649 0.151645
v 0.115058 0.002056 0.344050
v 0.124375 0.337953 0.267064
v -0.142444 0.001398 0.392955
v -0.163306 0.302673 0.309052
v -0.370212 0.001398 0.252719
v -0.314929 0.363649 0.181824
v -0.427624 0.001398 -0.011958
v -0.358124 0.363649 -0.063147
v -0.304240 0.001398 -0.357158
v -0.270282 0.363649 -0.256334
v 0.118175 0.138734 0.326151
v -0.011119 0.142468 -0.434061
v 0.259362 0.142468 -0.307894
v 0.419554 0.139936 -0.123430
v 0.345534 0.153229 0.195532
v -0.150172 0.153842 0.361802
v -0.356625 0.167934 0.235296
v -0.410544 0.167934 -0.024538
v -0.295895 0.090426 -0.332379
v 0.216371 0.365909 -0.262810
v -0.024341 0.365909 -0.344538
v 0.322921 0.340231 -0.101924
v 0.265334 0.363826 0.109531
v 0.102922 0.339614 0.234317
v -0.124587 0.305533 0.261692
v -0.291617 0.365909 0.163442
v -0.308269 0.365909 -0.061806
v 0.201803 0.352174 -0.246801
v -0.022271 0.352174 -0.322880
v 0.305101 0.343295 -0.095453
v 0.227579 0.352174 0.113910
v 0.096536 0.325879 0.217559
v -0.113746 0.291798 0.240095
v -0.271072 0.334362 0.149988
v -0.286573 0.352174 -0.059690
v -0.212315 0.352174 -0.213151
v -0.542009 0.081232 0.167807
v -0.557001 0.000279 0.173684
v -0.494666 0.000279 0.027718
v -0.479282 0.099197 0.026176
v -0.645420 0.064600 0.045096
v -0.648009 -0.000238 0.053299
v -0.673747 -0.000238 -0.010412
v -0.669225 0.064600 -0.017323
v -0.761763 0.021677 0.086421
v -0.763707 -0.006498 0.092581
v -0.806447 -0.006498 0.052049
v -0.803051 0.021677 0.046859
v 0.412286 0.102916 0.364522
v 0.413106 -0.001087 0.380398
v 0.311167 0.091854 0.373101
v 0.300012 -0.000585 0.381334
v 0.385938 0.073121 0.484787
v 0.385441 -0.001087 0.500677
v 0.306918 0.062059 0.487153
v 0.295119 -0.000585 0.494434
v 0.460467 0.039156 0.568848
v 0.459970 0.000158 0.584738
v 0.381447 0.028094 0.571214
v 0.369648 0.000660 0.578496
v -0.222455 0.366623 -0.220705
v 0.213420 0.352174 -0.084232
v -0.236748 0.332754 -0.062145
v 0.312884 0.341957 -0.098279
v 0.304317 0.343362 -0.096601
v -0.184936 0.332754 -0.064687
v 0.165500 0.352174 -0.081881
v -0.147001 0.296425 0.141012
v 0.120700 0.332722 0.121643
v -0.112360 0.509899 -0.348768
v -0.235926 0.481180 -0.275709
v -0.102567 0.512370 -0.318379
v -0.210848 0.484432 -0.251506
v -0.144447 0.477818 -0.320349
v -0.127531 0.480653 -0.292843
v -0.197386 0.612248 -0.291028
v -0.180469 0.615083 -0.263522
v -0.201896 0.001398 0.356351
v -0.202882 0.273056 0.275843
v -0.204061 0.157520 0.328782
v -0.168185 0.275760 0.236047
v -0.154811 0.276849 0.216576
v 0.370270 0.254705 -0.120511
v 0.546459 0.405231 -0.253571
v 0.371942 0.249838 -0.070333
v 0.553119 0.405609 -0.237641
v 0.357764 0.265512 -0.048139
v 0.548177 0.417848 -0.226503
v 0.337317 0.287176 -0.055341
v 0.536575 0.429709 -0.231296
v 0.331047 0.293164 -0.084737
v 0.529915 0.429331 -0.247226
v 0.349681 0.275754 -0.129016
v 0.534857 0.417092 -0.258364
v 0.457873 0.355182 -0.167326
v 0.472391 0.414964 -0.154036
v 0.455331 0.347303 -0.158805
v 0.472276 0.413338 -0.150309
v 0.449018 0.345325 -0.155917
v 0.468778 0.413253 -0.148235
v 0.442849 0.347983 -0.158561
v 0.465395 0.414793 -0.149887
v 0.442994 0.352618 -0.164093
v 0.465510 0.416419 -0.153614
v 0.451869 0.357915 -0.170258
v 0.469008 0.416504 -0.155689
v 0.458959 0.397568 -0.150723
v 0.467383 0.406752 -0.155807
v 0.415414 0.411150 -0.154143
v 0.444735 0.443118 -0.171837
v 0.435987 0.395516 -0.146081
v 0.467570 0.428912 -0.167691
v 0.411713 0.440989 -0.168385
v 0.458835 0.396743 -0.152418
v 0.467259 0.405928 -0.157502
v 0.415290 0.410326 -0.155838
v 0.444610 0.442293 -0.173532
v 0.435863 0.394692 -0.147776
v 0.467446 0.428088 -0.169386
v 0.411589 0.440164 -0.170080
vn 0.4209 0.1615 -0.8926
vn 0.7603 0.2037 -0.6168
vn 0.9459 0.2370 0.2216
vn -0.2005 0.1233 0.9719
vn -0.4521 0.3437 0.8231
vn -0.9455 0.2701 0.1819
vn -0.1297 0.9912 0.0280
vn -0.9017 0.1814 -0.3925
vn -0.4123 0.2261 -0.8826
vn 0.0002 -1.0000 0.0005
vn 0.1610 0.1676 0.9726
vn -0.3231 0.1631 -0.9322
vn -0.9297 0.1093 -0.3518
vn -0.5628 0.0249 -0.8262
vn -0.5153 0.1362 0.8461
vn 0.9697 0.1114 0.2176
vn 0.7485 0.0981 -0.6559
vn 0.4201 0.0833 -0.9036
vn 0.4855 0.2577 0.8354
vn 0.1208 0.3058 0.9444
vn -0.1895 0.7877 -0.5862
vn -0.0850 0.9926 0.0870
vn 0.0233 0.9981 -0.0570
vn -0.0364 0.9948 -0.0953
vn -0.0225 0.9895 0.1425
vn -0.0599 0.9982 0.0076
vn -0.4110 0.8639 -0.2910
vn -0.1662 0.9617 0.2182
vn 0.3459 0.7433 0.5726
vn -0.2300 0.8837 -0.4077
vn -0.1765 0.9754 -0.1319
vn 0.7278 0.6854 -0.0257
vn -0.4010 0.8562 -0.3259
vn -0.1830 0.8222 0.5389
vn -0.0457 0.9987 -0.0205
vn 0.2223 -0.0772 -0.9719
vn 0.0088 -1.0000 0.0001
vn -0.5229 0.8520 0.0266
vn -0.5229 0.8520 0.0267
vn -0.3898 0.1308 0.9116
vn -0.2575 0.9522 0.1643
vn -0.7770 0.1527 0.6107
vn -0.1983 0.9789 0.0484
vn -0.1984 0.9789 0.0484
vn 0.0035 -1.0000 0.0006
vn -0.6751 0.2066 0.7082
vn 0.0397 -0.9989 -0.0261
vn -0.4153 -0.0825 -0.9060
vn -0.4152 -0.0825 -0.9060
vn 0.3004 0.1312 0.9447
vn 0.3004 0.1312 0.9448
vn -0.0050 -1.0000 -0.0006
vn -0.0087 -0.9999 -0.0146
vn 0.0702 0.9385 0.3380
vn 0.9444 0.0202 -0.3283
vn 0.7148 -0.1948 -0.6716
vn 0.7148 -0.1948 -0.6717
vn 0.9737 0.0414 0.2240
vn -0.1047 0.9670 0.2323
vn -0.9893 0.1443 -0.0209
vn -0.0425 0.3361 0.9409
vn -0.1101 0.8838 0.4547
vn -0.6881 0.2879 0.6661
vn -0.0070 -0.9998 0.0210
vn 0.5800 0.7577 0.2990
vn 0.1527 0.9872 -0.0467
vn -0.4377 0.0237 -0.8988
vn 0.5279 0.0945 0.8440
vn -0.4391 -0.0197 -0.8982
vn -0.6235 0.2776 0.7309
vn 0.8531 0.5217 0.0056
vn -0.4976 -0.0108 -0.8673
vn -0.4976 -0.0109 -0.8673
vn 0.4435 0.1856 0.8769
vn -0.6269 0.7472 0.2207
vn 0.4436 -0.0207 0.8960
vn 0.7578 0.4093 -0.5082
vn -0.7639 0.2627 0.5894
vn 0.5789 0.8023 -0.1458
vn 0.3479 0.8390 0.4185
vn 0.3479 0.8390 0.4184
vn -0.5145 0.1444 0.8452
vn -0.6055 0.2717 0.7480
vn -0.6055 0.2717 0.7481
vn 0.5813 -0.8036 -0.1278
vn 0.7558 -0.2192 0.6171
vn 0.2890 0.5552 0.7799
vn -0.4204 0.8781 0.2286
vn 0.7385 0.5919 -0.3228
vn -0.7225 0.4330 -0.5390
vn -0.1863 -0.5192 -0.8341
vn 0.9691 -0.2457 0.0195
vn 0.4775 -0.2331 0.8472
vn -0.4043 0.0159 0.9145
vn -0.9383 0.2980 0.1752
vn 0.2131 0.8931 0.3962
vn -0.6196 0.3450 -0.7050
vn 0.4673 0.0822 -0.8803
vn 0.5882 0.1731 0.7900
vn -0.2005 0.1234 0.9719
vn 0.0000 -1.0000 0.0000
vn 0.0001 -1.0000 0.0003
vn 0.7485 0.0981 -0.6558
vn 0.4201 0.0834 -0.9036
vn 0.4855 0.2578 0.8354
vn 0.1208 0.3059 0.9444
vn -0.1661 0.9617 0.2182
vn -0.1765 0.9754 -0.1320
vn 0.7278 0.6853 -0.0257
vn -0.4010 0.8562 -0.3258
vn -0.0458 0.9987 -0.0205
vn -0.2574 0.9522 0.1643
vn 0.0035 -1.0000 0.0007
vn 0.0397 -0.9989 -0.0260
vn -0.0048 -1.0000 -0.0007
vn -0.0088 -0.9999 -0.0147
vn 0.9738 0.0418 0.2237
vn -0.0425 0.3360 0.9409
vn 0.5800 0.7578 0.2990
vn -0.7639 0.2627 0.5895
vn 0.5789 0.8022 -0.1458
vn 0.2889 0.5553 0.7799
vn 0.7385 0.5920 -0.3228
vn -0.1863 -0.5193 -0.8341
vn 0.4775 -0.2331 0.8471
vn -0.9383 0.2981 0.1752
vn 0.2132 0.8931 0.3962
vn 0.2132 0.8932 0.3959
vn 0.4675 0.0821 -0.8802
vn 0.0956 0.9954 -0.0068
vn -0.1221 0.9918 0.0387
vn 0.3649 0.9296 0.0520
vn 0.0000 1.0000 -0.0000
vn 0.0063 0.9917 0.1286
vn 0.3650 0.9141 0.1766
vn -0.0812 0.9877 0.1333
vn 0.2152 0.9734 0.0790
vn 0.2151 0.9734 0.0790
vn -0.0213 0.9979 0.0612
vn -0.1398 0.9881 0.0646
vn -0.1772 0.9838 0.0255
vn 0.1106 0.9593 0.2599
vn 0.1106 0.9593 0.2600
vn 0.0711 0.4645 0.8827
vn 0.1141 0.4486 0.8864
vn 0.0657 0.4364 0.8973
vn -0.0711 -0.4646 -0.8827
vn -0.1141 -0.4485 -0.8864
vn -0.1141 -0.4485 -0.8865
vn -0.0657 -0.4364 -0.8973
vn 0.5353 0.7436 -0.4007
vn 0.5353 0.7435 -0.4008
vn 0.5353 0.7435 -0.4009
vn 0.1648 -0.8917 0.4215
vn 0.9978 -0.0377 -0.0547
vn 0.7772 -0.5863 0.2285
vn -0.1027 0.8973 -0.4292
vn -0.9916 -0.0717 0.1074
vn -0.6497 -0.6640 0.3703
vn 0.1141 0.4485 0.8865
vn -0.0711 -0.4645 -0.8827
vn 0.5353 0.7436 -0.4006
vn 0.1648 -0.8918 0.4214
vn 0.7772 -0.5864 0.2282
vn -0.6496 -0.6639 0.3703
usemtl Wood.011
s off
f 2//1 21//1 20//1
f 21//2 6//2 22//2
f 6//3 23//3 22//3
f 9//4 59//4 19//4
f 87//5 25//5 88//5
f 14//6 26//6 25//6
f 10//7 33//7 12//7
f 26//8 18//8 27//8
f 18//9 20//9 27//9
f 15//10 3//10 9//10
f 19//11 11//11 9//11
f 27//12 1//12 17//12
f 15//13 27//13 17//13
f 15//14 48//14 26//14
f 88//15 13//15 86//15
f 22//16 7//16 5//16
f 3//17 22//17 5//17
f 20//18 3//18 1//18
f 23//19 10//19 19//19
f 19//20 12//20 24//20
f 32//21 41//21 33//21
f 10//22 31//22 32//22
f 2//23 28//23 4//23
f 6//24 31//24 8//24
f 4//25 30//25 6//25
f 16//26 34//26 35//26
f 12//27 89//27 87//27
f 28//28 36//28 73//28
f 69//29 37//29 29//29
f 89//30 41//30 90//30
f 72//31 38//31 31//31
f 35//32 42//32 43//32
f 32//33 39//33 40//33
f 28//34 37//34 36//34
f 35//35 18//35 16//35
f 47//36 52//36 48//36
f 13//37 47//37 15//37
f 25//38 48//38 45//39
f 13//40 45//40 46//40
f 52//41 53//41 49//41
f 46//42 49//42 50//42
f 48//43 49//44 45//43
f 47//45 50//45 51//45
f 53//46 55//46 54//46
f 51//47 54//47 55//47
f 51//48 56//49 52//49
f 50//50 53//51 54//50
f 60//52 62//52 64//52
f 7//53 60//53 9//53
f 23//54 59//54 57//54
f 7//55 57//55 58//55
f 62//56 65//57 66//57
f 58//58 61//58 62//58
f 59//59 61//59 57//59
f 60//60 63//60 59//60
f 66//61 67//61 68//61
f 61//62 67//62 65//62
f 64//63 67//63 63//63
f 62//64 68//64 64//64
f 69//65 43//65 44//65
f 72//66 73//66 38//66
f 82//67 79//67 84//67
f 69//68 29//68 83//68
f 18//69 79//69 82//69
f 69//70 79//70 18//70
f 29//71 78//71 80//71
f 2//72 82//72 78//73
f 69//74 83//74 81//74
f 82//75 80//75 78//75
f 81//76 83//76 85//76
f 83//77 84//77 85//77
f 81//78 84//78 79//78
f 89//79 42//79 34//79
f 87//80 34//81 14//81
f 24//82 86//82 11//82
f 12//83 88//84 24//84
f 91//85 94//85 93//85
f 93//86 96//86 95//86
f 96//87 97//87 95//87
f 98//88 99//88 97//88
f 100//89 98//89 96//89
f 100//90 101//90 99//90
f 101//91 92//91 91//91
f 103//92 106//92 105//92
f 105//93 108//93 107//93
f 108//94 109//94 107//94
f 110//95 111//95 109//95
f 104//96 112//96 108//96
f 112//97 113//97 111//97
f 113//98 104//98 103//98
f 83//99 29//99 80//99
f 2//1 4//1 21//1
f 21//2 4//2 6//2
f 6//3 8//3 23//3
f 9//100 60//100 59//100
f 87//5 14//5 25//5
f 14//6 16//6 26//6
f 10//7 32//7 33//7
f 26//8 16//8 18//8
f 18//9 2//9 20//9
f 17//101 1//101 15//101
f 1//101 3//101 15//101
f 3//101 5//101 7//101
f 7//102 9//102 3//102
f 9//102 11//102 86//102
f 15//101 86//101 13//101
f 9//102 86//102 15//102
f 19//11 24//11 11//11
f 27//12 20//12 1//12
f 15//13 26//13 27//13
f 15//14 47//14 48//14
f 88//15 25//15 13//15
f 22//16 23//16 7//16
f 3//103 21//103 22//103
f 20//104 21//104 3//104
f 23//105 8//105 10//105
f 19//106 10//106 12//106
f 32//21 40//21 41//21
f 10//22 8//22 31//22
f 2//23 29//23 28//23
f 6//24 30//24 31//24
f 4//25 28//25 30//25
f 16//26 14//26 34//26
f 12//27 33//27 89//27
f 72//28 30//28 73//107
f 30//28 28//28 73//28
f 69//29 44//29 37//29
f 89//30 33//30 41//30
f 39//31 31//31 38//31
f 31//31 30//31 72//108
f 35//109 34//109 42//109
f 32//110 31//33 39//110
f 28//34 29//34 37//34
f 35//111 69//111 18//111
f 47//36 51//36 52//36
f 13//37 46//37 47//37
f 25//38 26//38 48//39
f 13//40 25//40 45//40
f 52//112 56//112 53//112
f 46//42 45//42 49//42
f 48//43 52//43 49//43
f 47//113 46//113 50//113
f 53//46 56//46 55//46
f 51//114 50//114 54//114
f 51//49 55//49 56//49
f 50//51 49//51 53//51
f 60//115 58//115 62//115
f 7//116 58//116 60//116
f 23//54 19//54 59//54
f 7//55 23//55 57//55
f 62//57 61//57 65//57
f 58//117 57//117 61//117
f 59//59 63//59 61//59
f 60//60 64//60 63//60
f 66//118 65//118 67//118
f 61//62 63//62 67//62
f 64//63 68//63 67//63
f 62//64 66//64 68//64
f 69//119 35//119 43//119
f 69//70 81//70 79//70
f 29//71 2//71 78//71
f 2//72 18//72 82//72
f 82//75 83//75 80//75
f 83//77 82//77 84//77
f 81//120 85//120 84//120
f 89//121 90//79 42//121
f 87//81 89//81 34//80
f 24//82 88//82 86//82
f 12//84 87//83 88//83
f 91//85 92//85 94//85
f 93//86 94//86 96//86
f 96//122 98//122 97//122
f 98//88 100//88 99//88
f 96//123 94//123 100//123
f 94//123 92//123 100//123
f 92//123 102//123 100//123
f 100//90 102//90 101//90
f 101//124 102//124 92//124
f 103//92 104//92 106//92
f 105//125 106//125 108//125
f 108//94 110//94 109//94
f 110//126 112//126 111//95
f 108//127 106//127 104//127
f 104//128 114//128 112//128
f 112//96 110//96 108//96
f 112//97 114//97 113//97
f 113//129 114//129 104//129
usemtl LightWood.002
f 36//130 70//130 73//130
f 39//131 75//131 77//131
f 42//132 71//132 43//132
f 44//133 36//133 37//133
f 71//134 74//134 44//134
f 43//135 71//135 44//135
f 70//130 38//130 73//130
f 77//136 74//136 76//136
f 76//137 71//138 42//137
f 44//139 75//139 36//139
f 36//133 75//133 70//133
f 76//140 40//140 77//140
f 77//141 40//141 39//141
f 90//142 76//142 42//142
f 39//131 70//131 75//131
f 70//130 39//130 38//130
f 77//136 75//136 74//136
f 76//138 74//138 71//138
f 44//139 74//139 75//139
f 76//140 41//140 40//140
f 90//142 41//143 76//142
usemtl Green.002
f 119//144 118//144 117//144
f 116//145 119//145 115//145
f 117//146 118//146 121//146
f 126//147 125//147 127//147
f 126//148 123//149 122//148
f 124//150 128//150 125//150
f 120//151 125//152 118//153
f 126//154 115//154 119//154
f 123//155 120//155 116//155
f 122//156 116//156 115//156
f 125//157 121//157 118//157
f 128//158 117//158 121//158
f 117//159 126//159 119//159
f 119//144 120//144 118//144
f 116//160 120//160 119//160
f 126//161 124//161 125//161
f 126//149 127//149 123//149
f 120//162 127//162 125//162
f 126//163 122//163 115//163
f 123//155 127//155 120//155
f 122//164 123//164 116//164
f 125//157 128//157 121//157
f 128//158 124//158 117//158
f 117//165 124//165 126//165
