# Blender v3.6.5 OBJ File: 'Test_Level.blend'
# www.blender.org
mtllib bag_001.mtl
o bag_001_bag_001.001
v -0.050460 0.083105 0.017838
v -0.254566 0.472309 -0.082103
v -0.185508 0.471242 -0.201052
v -0.253142 0.485448 0.057542
v -0.184933 0.499220 0.183035
v -0.062871 0.500516 0.258420
v 0.084800 0.495859 0.258740
v 0.213553 0.485408 0.186004
v 0.283351 0.463657 0.063215
v 0.280497 0.449182 -0.076167
v 0.208700 0.456988 -0.188781
v 0.085046 0.473027 -0.253870
v -0.060626 0.476940 -0.261195
v -0.200330 0.528849 -0.087536
v -0.148006 0.526089 -0.189844
v -0.200128 0.543970 0.038346
v -0.147900 0.561510 0.153330
v -0.050426 0.569439 0.223390
v 0.071592 0.571159 0.225085
v 0.183050 0.563184 0.158083
v 0.247483 0.543075 0.045589
v 0.246301 0.526941 -0.077218
v 0.186550 0.528702 -0.176822
v 0.080309 0.539123 -0.233800
v -0.045759 0.536227 -0.240291
v -0.133589 0.471822 -0.086910
v -0.110078 0.489288 0.090996
v 0.014318 0.479142 0.167068
v 0.161704 0.470131 0.090527
v 0.172523 0.462955 -0.084002
v 0.010334 0.472025 -0.162462
v 0.066325 0.040639 0.203224
v 0.080564 0.000000 0.087245
v 0.198182 0.034313 0.091640
v 0.241086 0.170823 0.087266
v 0.183085 0.168360 0.198896
v 0.060739 0.181178 0.242589
v 0.080264 0.053566 -0.210378
v 0.084110 0.183468 -0.250293
v 0.195948 0.187028 -0.191752
v 0.246600 0.185726 -0.060360
v 0.207649 0.051970 -0.065430
v 0.088944 0.000000 -0.077453
v -0.092879 0.057936 0.198397
v -0.090271 0.195671 0.234369
v -0.209974 0.199349 0.175792
v -0.249289 0.197514 0.061365
v -0.217416 0.062035 0.068541
v -0.087699 0.000000 0.080148
v -0.073310 0.051788 -0.213478
v -0.081810 0.000000 -0.089940
v -0.205803 0.058933 -0.083962
v -0.240787 0.195250 -0.081049
v -0.187550 0.188781 -0.200766
v -0.065700 0.182474 -0.253619
v 0.076694 0.384530 0.247620
v 0.192516 0.372920 0.182881
v 0.260557 0.370587 0.066362
v 0.079017 0.366213 -0.255704
v 0.257392 0.370352 -0.069675
v 0.192833 0.366155 -0.188608
v -0.180409 0.389181 0.175196
v -0.061749 0.391104 0.241916
v -0.242104 0.387723 0.060635
v -0.176556 0.374017 -0.190255
v -0.239221 0.382166 -0.073918
v -0.059017 0.368247 -0.256865
v 0.165223 0.055456 0.184874
v 0.177994 0.079885 -0.175708
v -0.198192 0.087685 0.163895
v -0.174601 0.079688 -0.184705
v -0.207120 0.516900 -0.071497
v -0.147476 0.514059 -0.174214
v -0.207862 0.526410 0.047919
v -0.148907 0.535339 0.151335
v -0.045450 0.535883 0.211511
v 0.074377 0.532132 0.212031
v 0.178215 0.525760 0.152563
v 0.236675 0.513757 0.049210
v 0.235763 0.504796 -0.069703
v 0.176694 0.506958 -0.167528
v 0.074415 0.513678 -0.223857
v -0.044858 0.515611 -0.228118
vt 0.832355 0.226397
vt 0.832355 0.226397
vt 0.832355 0.226397
vt 0.832355 0.226397
vt 0.832355 0.226397
vt 0.832355 0.226397
vt 0.832355 0.226397
vt 0.832355 0.226397
vt 0.832355 0.226397
vt 0.832355 0.226397
vt 0.832355 0.226397
vt 0.832355 0.226397
vt 0.832355 0.226397
vt 0.832355 0.226397
vt 0.832355 0.226397
vt 0.832355 0.226397
vt 0.832355 0.226397
vt 0.832355 0.226397
vt 0.832355 0.226397
vt 0.832355 0.226397
vt 0.832355 0.226397
vt 0.832355 0.226397
vt 0.832355 0.226397
vt 0.832355 0.226397
vt 0.832355 0.226397
vt 0.832355 0.226387
vt 0.832355 0.226387
vt 0.832355 0.226387
vt 0.832355 0.226387
vt 0.832355 0.226387
vt 0.832355 0.226387
vt 0.622004 0.930471
vt 0.620631 0.929511
vt 0.623217 0.929609
vt 0.620583 0.927848
vt 0.622151 0.927158
vt 0.623493 0.927919
vt 0.832356 0.189621
vt 0.832356 0.189611
vt 0.832356 0.189619
vt 0.832356 0.189532
vt 0.832355 0.189523
vt 0.832356 0.189532
vt 0.832356 0.189523
vt 0.832356 0.189532
vt 0.832356 0.189629
vt 0.832356 0.189619
vt 0.832356 0.189629
vt 0.832356 0.189549
vt 0.832356 0.189559
vt 0.832356 0.189532
vt 0.832356 0.189523
vt 0.832356 0.189532
vt 0.832356 0.189532
vt 0.832356 0.189611
vt 0.832356 0.189610
vt 0.832356 0.189549
vt 0.832356 0.189549
vt 0.832356 0.189532
vt 0.832356 0.189596
vt 0.832356 0.189576
vt 0.832356 0.189593
vt 0.832355 0.189532
vt 0.832353 0.189381
vt 0.832353 0.189234
vt 0.832356 0.189602
vt 0.832356 0.189602
vt 0.832356 0.189593
vt 0.832356 0.189596
vt 0.832356 0.189567
vt 0.832356 0.189576
vt 0.832356 0.189549
vt 0.832356 0.189576
vt 0.832356 0.189559
vt 0.832356 0.189567
vt 0.832356 0.189523
vt 0.832356 0.189629
vt 0.832356 0.189523
vt 0.832356 0.189629
vt 0.832356 0.189523
vt 0.832356 0.189602
vt 0.832353 0.189186
vt 0.832356 0.189602
vt 0.832356 0.189576
vt 0.832356 0.189576
vt 0.832356 0.189576
vt 0.832356 0.189576
vt 0.832356 0.189576
vt 0.832356 0.189567
vt 0.832356 0.189549
vt 0.832356 0.189559
vt 0.832356 0.189549
vt 0.832356 0.189549
vt 0.832356 0.189549
vt 0.832356 0.189567
vt 0.832356 0.189559
vn -0.1205 -0.9914 0.0516
vn -0.9632 0.0786 -0.2570
vn -0.6936 -0.0068 -0.7204
vn -0.9616 0.1317 0.2407
vn -0.7359 0.1070 0.6685
vn -0.2877 0.0045 0.9577
vn 0.2674 -0.0501 0.9623
vn 0.7088 -0.0575 0.7031
vn 0.9574 -0.1273 0.2591
vn 0.9439 -0.1880 -0.2715
vn 0.6681 -0.1848 -0.7207
vn 0.2547 -0.1490 -0.9555
vn -0.2109 -0.0935 -0.9730
vn -0.1523 0.9763 -0.1538
vn -0.2514 0.9309 -0.2651
vn -0.1675 0.9845 -0.0521
vn -0.2016 0.9773 0.0650
vn 0.0574 0.9708 0.2329
vn -0.0727 0.9678 0.2410
vn 0.2352 0.9703 0.0572
vn 0.2921 0.9562 -0.0172
vn 0.3210 0.9267 -0.1954
vn 0.3337 0.9071 -0.2567
vn -0.0768 0.9252 -0.3717
vn 0.1152 0.9220 -0.3697
vn 0.5204 0.8345 0.1811
vn 0.5331 0.7325 -0.4235
vn 0.0183 0.6596 -0.7514
vn -0.5858 0.6564 -0.4755
vn -0.5365 0.7982 0.2740
vn -0.0121 0.8235 0.5672
vn 0.0703 0.9974 0.0180
vn 0.0702 0.9972 -0.0243
vn 0.0403 0.9985 -0.0365
vn 0.0711 0.9968 -0.0351
vn 0.0367 0.9980 -0.0506
vn -0.0492 0.9946 -0.0911
vn 0.0784 -0.6726 0.7358
vn -0.2270 -0.9555 0.1883
vn 0.1275 -0.9775 0.1680
vn 0.1335 -0.1228 0.9834
vn -0.2430 -0.6116 0.7529
vn 0.9562 -0.1610 0.2445
vn 0.7547 -0.6305 -0.1813
vn 0.9721 -0.1523 -0.1784
vn 0.6925 -0.6971 0.1857
vn 0.1997 -0.9607 -0.1927
vn 0.6948 0.0875 0.7138
vn 0.2428 0.0914 0.9657
vn 0.6490 -0.0846 0.7561
vn 0.2044 -0.6571 -0.7255
vn -0.1819 -0.1398 -0.9733
vn 0.2458 -0.1421 -0.9588
vn -0.2018 -0.9599 -0.1946
vn -0.1667 -0.6563 -0.7359
vn 0.7212 0.0813 -0.6879
vn 0.9643 0.0474 -0.2607
vn 0.7434 -0.0941 -0.6622
vn -0.7460 -0.0325 0.6652
vn -0.9631 0.1611 0.2156
vn -0.9881 -0.0869 0.1269
vn -0.2595 -0.0993 0.9606
vn -0.6939 0.1743 0.6987
vn -0.7574 -0.6248 -0.1898
vn -0.7759 -0.6178 0.1277
vn -0.9677 -0.0915 -0.2348
vn -0.7108 -0.0627 -0.7006
vn -0.2340 0.1071 -0.9663
vn -0.7104 0.1385 -0.6900
vn 0.9672 0.0610 0.2466
vn -0.9579 0.1269 -0.2574
vn 0.2645 0.0903 -0.9602
vn -0.2652 0.1178 0.9570
vn 0.5271 -0.5533 0.6450
vn 0.6370 -0.5106 -0.5775
vn -0.6647 -0.4676 0.5827
vn -0.6211 -0.4982 -0.6050
vn -0.9358 0.2351 -0.2626
vn -0.6687 0.2254 -0.7086
vn -0.9387 0.2549 0.2319
vn -0.6826 0.2557 0.6846
vn -0.2537 0.2342 0.9385
vn 0.6989 0.2077 0.6844
vn 0.2582 0.2303 0.9382
vn 0.9549 0.1861 0.2316
vn 0.6948 0.1790 -0.6965
vn 0.9490 0.1526 -0.2759
vn -0.2155 0.2137 -0.9528
vn 0.2663 0.2114 -0.9404
usemtl Material.011
s 1
f 1/1/1 2/2/2 3/3/3
f 1/1/1 4/4/4 2/2/2
f 1/1/1 5/5/5 4/4/4
f 1/1/1 6/6/6 5/5/5
f 1/1/1 7/7/7 6/6/6
f 1/1/1 8/8/8 7/7/7
f 1/1/1 9/9/9 8/8/8
f 1/1/1 10/10/10 9/9/9
f 1/1/1 11/11/11 10/10/10
f 1/1/1 12/12/12 11/11/11
f 1/1/1 13/13/13 12/12/12
f 1/1/1 3/3/3 13/13/13
f 3/3/3 14/14/14 15/15/15
f 2/2/2 16/16/16 14/14/14
f 5/5/5 16/16/16 4/4/4
f 6/6/6 17/17/17 5/5/5
f 6/6/6 19/18/18 18/19/19
f 7/7/7 20/20/20 19/18/18
f 8/8/8 21/21/21 20/20/20
f 10/10/10 21/21/21 9/9/9
f 11/11/11 22/22/22 10/10/10
f 12/12/12 23/23/23 11/11/11
f 12/12/12 25/24/24 24/25/25
f 13/13/13 15/15/15 25/24/24
f 15/15/15 14/14/14 26/26/26
f 16/16/16 26/26/26 14/14/14
f 16/16/16 17/17/17 27/27/27
f 18/19/19 27/27/27 17/17/17
f 18/19/19 19/18/18 28/28/28
f 20/20/20 28/28/28 19/18/18
f 20/20/20 21/21/21 29/29/29
f 22/22/22 23/23/23 30/30/30
f 23/23/23 31/31/31 30/30/30
f 15/15/15 31/31/31 25/24/24
f 30/30/30 21/21/21 22/22/22
f 25/24/24 31/31/31 24/25/25
f 28/32/32 29/33/33 27/34/34
f 29/33/33 30/35/35 27/34/34
f 30/35/35 31/36/36 27/34/34
f 26/37/37 27/34/34 31/36/36
f 32/38/38 49/39/39 33/40/40
f 37/41/41 44/42/42 32/38/38
f 35/43/43 42/44/44 41/45/45
f 34/46/46 43/47/47 42/48/44
f 37/41/41 57/49/48 56/50/49
f 35/43/43 57/49/48 36/51/50
f 38/52/51 55/53/52 39/54/53
f 38/52/51 51/55/54 50/56/55
f 41/45/45 61/57/56 60/58/57
f 39/54/53 61/57/56 40/59/58
f 46/60/59 64/61/60 47/62/61
f 45/63/62 62/64/63 46/65/59
f 49/39/39 52/66/64 51/55/54
f 48/67/65 53/68/66 52/66/64
f 54/69/67 67/70/68 55/53/52
f 53/68/66 65/71/69 54/69/67
f 41/45/45 58/72/70 35/43/43
f 47/62/61 66/73/71 53/68/66
f 55/53/52 59/74/72 39/54/53
f 37/41/41 63/75/73 45/63/62
f 37/41/41 68/76/74 36/51/50
f 33/40/40 68/77/74 32/38/38
f 35/43/43 68/76/74 34/78/46
f 43/47/47 69/79/75 42/48/44
f 39/54/53 69/80/75 38/52/51
f 41/45/45 69/80/75 40/59/58
f 49/39/39 70/81/76 48/67/65
f 45/63/62 70/82/76 44/42/42
f 47/62/61 70/81/76 46/60/59
f 55/53/52 71/83/77 54/69/67
f 51/55/54 71/83/77 50/56/55
f 53/68/66 71/83/77 52/66/64
f 65/71/69 72/84/78 73/85/79
f 64/61/60 72/84/78 66/73/71
f 62/86/63 74/87/80 64/61/60
f 63/75/73 75/88/81 62/86/63
f 56/50/49 76/89/82 63/75/73
f 56/50/49 78/90/83 77/91/84
f 58/72/70 78/90/83 57/49/48
f 60/58/57 79/92/85 58/72/70
f 60/58/57 81/93/86 80/94/87
f 59/74/72 81/93/86 61/57/56
f 59/74/72 83/95/88 82/96/89
f 67/70/68 73/85/79 83/95/88
f 49/39/39 43/47/47 33/40/40
f 18/19/19 28/28/28 27/27/27
f 16/16/16 27/27/27 26/26/26
f 20/20/20 29/29/29 28/28/28
f 23/23/23 24/25/25 31/31/31
f 15/15/15 26/26/26 31/31/31
f 30/30/30 29/29/29 21/21/21
f 3/3/3 2/2/2 14/14/14
f 2/2/2 4/4/4 16/16/16
f 5/5/5 17/17/17 16/16/16
f 6/6/6 18/19/19 17/17/17
f 6/6/6 7/7/7 19/18/18
f 7/7/7 8/8/8 20/20/20
f 8/8/8 9/9/9 21/21/21
f 10/10/10 22/22/22 21/21/21
f 11/11/11 23/23/23 22/22/22
f 12/12/12 24/25/25 23/23/23
f 12/12/12 13/13/13 25/24/24
f 13/13/13 3/3/3 15/15/15
f 32/38/38 44/42/42 49/39/39
f 37/41/41 45/63/62 44/42/42
f 35/43/43 34/78/46 42/44/44
f 34/46/46 33/40/40 43/47/47
f 37/41/41 36/51/50 57/49/48
f 35/43/43 58/72/70 57/49/48
f 38/52/51 50/56/55 55/53/52
f 38/52/51 43/47/47 51/55/54
f 41/45/45 40/59/58 61/57/56
f 39/54/53 59/74/72 61/57/56
f 46/60/59 62/86/63 64/61/60
f 45/63/62 63/75/73 62/64/63
f 49/39/39 48/67/65 52/66/64
f 48/67/65 47/62/61 53/68/66
f 54/69/67 65/71/69 67/70/68
f 53/68/66 66/73/71 65/71/69
f 41/45/45 60/58/57 58/72/70
f 47/62/61 64/61/60 66/73/71
f 55/53/52 67/70/68 59/74/72
f 37/41/41 56/50/49 63/75/73
f 37/41/41 32/38/38 68/76/74
f 33/40/40 34/46/46 68/77/74
f 35/43/43 36/51/50 68/76/74
f 43/47/47 38/52/51 69/79/75
f 39/54/53 40/59/58 69/80/75
f 41/45/45 42/44/44 69/80/75
f 49/39/39 44/42/42 70/81/76
f 45/63/62 46/65/59 70/82/76
f 47/62/61 48/67/65 70/81/76
f 55/53/52 50/56/55 71/83/77
f 51/55/54 52/66/64 71/83/77
f 53/68/66 54/69/67 71/83/77
f 65/71/69 66/73/71 72/84/78
f 64/61/60 74/87/80 72/84/78
f 62/86/63 75/88/81 74/87/80
f 63/75/73 76/89/82 75/88/81
f 56/50/49 77/91/84 76/89/82
f 56/50/49 57/49/48 78/90/83
f 58/72/70 79/92/85 78/90/83
f 60/58/57 80/94/87 79/92/85
f 60/58/57 61/57/56 81/93/86
f 59/74/72 82/96/89 81/93/86
f 59/74/72 67/70/68 83/95/88
f 67/70/68 65/71/69 73/85/79
f 49/39/39 51/55/54 43/47/47
