# Blender v3.6.5 OBJ File: 'Test_Level.blend'
# www.blender.org
mtllib box_002.mtl
o box_002
v 0.273751 0.006410 0.220234
v 0.348653 0.006410 0.220298
v 0.273751 0.167120 0.220234
v 0.348653 0.167120 0.220298
v 0.273774 0.167120 0.145320
v 0.348675 0.167120 0.145398
v 0.273774 0.006410 0.145320
v 0.348675 0.006410 0.145398
v -0.348856 0.006410 0.219960
v -0.273928 0.006410 0.220027
v -0.348856 0.167120 0.219960
v -0.273928 0.167120 0.220027
v -0.348834 0.167120 0.145047
v -0.273875 0.167120 0.144963
v -0.348834 0.006410 0.145047
v -0.273875 0.006410 0.144963
v -0.348673 0.006410 -0.142517
v -0.273772 0.006410 -0.142439
v -0.348673 0.167120 -0.142517
v -0.273772 0.167120 -0.142439
v -0.348635 0.167120 -0.217623
v -0.273735 0.167120 -0.217532
v -0.348635 0.006410 -0.217623
v -0.273735 0.006410 -0.217532
v 0.273909 0.006410 -0.142260
v 0.348811 0.006410 -0.142196
v 0.273909 0.167120 -0.142260
v 0.348811 0.167120 -0.142196
v 0.273948 0.167120 -0.217172
v 0.348865 0.167120 -0.217273
v 0.273948 0.006410 -0.217172
v 0.348865 0.006410 -0.217273
v 0.287552 0.025272 -0.181055
v 0.287552 0.144329 -0.181055
v -0.292060 0.025272 -0.181315
v -0.292060 0.144329 -0.181315
v -0.318255 0.025272 -0.203855
v -0.318255 0.144329 -0.203855
v 0.313766 0.025272 -0.203634
v 0.313766 0.144329 -0.203634
v 0.313581 0.025272 0.205268
v 0.313581 0.144329 0.205268
v -0.318425 0.025272 0.205061
v -0.318425 0.144329 0.205061
v -0.292237 0.025272 0.182480
v -0.292237 0.144329 0.182480
v 0.287368 0.025272 0.182726
v 0.287368 0.144329 0.182726
v -0.356442 0.000000 -0.231629
v 0.356644 0.000000 -0.231194
v -0.356468 0.000000 -0.120464
v 0.356603 0.000000 -0.120057
v -0.356468 0.028696 -0.120464
v 0.356603 0.028695 -0.120057
v -0.356442 0.028696 -0.231629
v 0.356644 0.028696 -0.231194
v -0.356503 0.000000 -0.114369
v 0.356582 0.000000 -0.113934
v -0.356528 0.000000 -0.003218
v 0.356540 0.000000 -0.002798
v -0.356528 0.028696 -0.003218
v 0.356540 0.028695 -0.002798
v -0.356503 0.028696 -0.114369
v 0.356582 0.028695 -0.113934
v -0.356624 0.000000 0.120137
v 0.356504 0.000000 0.120382
v -0.356650 0.000000 0.231288
v 0.356432 0.000000 0.231543
v -0.356650 0.028696 0.231288
v 0.356432 0.028695 0.231543
v -0.356624 0.028696 0.120137
v 0.356504 0.028695 0.120382
v -0.197278 0.102781 -0.194155
v -0.098013 0.030157 -0.189149
v -0.185840 0.019588 -0.092267
v -0.087707 0.150132 -0.160248
v -0.076269 0.066963 -0.058360
v -0.175531 0.139564 -0.063393
v 0.086416 0.094395 -0.110948
v 0.079216 0.143125 0.016793
v 0.083056 0.020944 0.000953
v -0.017628 0.148800 -0.068969
v -0.020931 0.075326 0.042909
v -0.013727 0.026596 -0.084998
v -0.190808 0.102781 -0.092471
v -0.091545 0.030157 -0.087438
v -0.179440 0.019588 0.009619
v -0.081213 0.150132 -0.058534
v -0.069803 0.066963 0.043365
v -0.169064 0.139564 0.038332
v 0.037599 0.051891 0.054311
v 0.019947 0.080173 0.188434
v -0.058225 0.004471 0.123438
v 0.001560 0.165250 0.090031
v -0.094293 0.117852 0.158976
v -0.076632 0.089570 0.024840
v -0.356563 0.000000 0.002877
v 0.356563 0.000000 0.003136
v -0.356589 0.000000 0.114028
v 0.356495 0.000000 0.114270
v -0.356589 0.028696 0.114028
v 0.356495 0.028695 0.114270
v -0.356563 0.028696 0.002877
v 0.356563 0.028695 0.003136
v 0.245272 0.011869 0.155277
v 0.234685 0.041989 0.020547
v 0.311252 0.105032 0.103106
v 0.142000 0.064688 0.108726
v 0.207949 0.157852 0.056581
v 0.218566 0.127731 0.191285
v 0.318890 0.038368 -0.033631
v 0.206690 0.033130 -0.090622
v 0.239294 0.130590 -0.013727
v 0.156196 0.050706 0.035031
v 0.268424 0.055944 0.092010
v 0.228918 0.110592 0.061313
v 0.150390 0.015935 0.056944
v 0.107612 0.131316 0.058806
v 0.214748 0.038405 0.173095
v 0.093420 0.059128 0.170614
v 0.171984 0.153808 0.174778
v -0.108525 0.102781 -0.059008
v -0.009202 0.030157 -0.053970
v -0.097070 0.019588 0.042881
v 0.001112 0.150132 -0.025262
v 0.012513 0.066963 0.076637
v -0.086705 0.139564 0.071607
v -0.081663 0.083169 0.024451
v -0.070221 0.053922 0.159279
v -0.165586 0.121928 0.116390
v -0.183525 0.005881 0.158224
v -0.194977 0.035152 0.023409
v 0.315107 0.066687 -0.050906
v 0.286189 0.162562 -0.131820
v 0.204408 0.119598 -0.039828
v 0.296612 0.050145 -0.187441
v 0.185905 0.103033 -0.176349
v 0.214791 0.007159 -0.095258
v 0.104094 0.146042 -0.066233
v 0.013217 0.146180 -0.160398
v 0.004171 0.076382 -0.045809
v 0.121066 0.093338 -0.190851
v 0.021186 0.023678 -0.170409
v 0.112056 0.023563 -0.076452
v 0.057444 0.102781 -0.051874
v 0.156705 0.030157 -0.046841
v 0.068866 0.019588 0.050207
v 0.167021 0.150132 -0.017938
v 0.178458 0.066963 0.083963
v 0.079142 0.139563 0.078926
v 0.256264 0.046363 -0.083952
v 0.166826 0.129464 -0.066235
v 0.166570 0.025709 0.008825
v 0.172026 0.063365 -0.183651
v 0.082365 0.042687 -0.091051
v -0.065035 0.129992 -0.131250
v -0.108360 0.028282 -0.192528
v -0.126699 0.046593 -0.056217
v 0.012775 0.042481 -0.174127
v -0.005552 0.060792 -0.037856
v 0.027026 0.064137 0.016310
v 0.135392 0.042885 0.077833
v 0.030905 0.011524 0.142322
v 0.094211 0.158219 0.064154
v 0.098089 0.105584 0.190166
v -0.010276 0.126858 0.128642
v -0.289361 0.083169 0.049219
v -0.157644 0.053922 0.080206
v -0.228024 0.121928 0.157541
v -0.193828 0.005881 0.187583
v -0.325535 0.035152 0.156608
v -0.178275 0.094395 -0.082768
v -0.185475 0.143125 0.044973
v -0.181635 0.020944 0.029133
v -0.282319 0.148800 -0.040789
v -0.285622 0.075326 0.071089
v -0.278418 0.026596 -0.056818
v -0.294884 0.102781 -0.180253
v -0.195622 0.030157 -0.175220
v -0.283462 0.019588 -0.078173
v -0.185306 0.150132 -0.146317
v -0.173870 0.066963 -0.044416
v -0.273185 0.139563 -0.049454
vt 0.832370 0.224608
vt 0.832363 0.225494
vt 0.832363 0.224608
vt 0.832370 0.226380
vt 0.832363 0.227266
vt 0.832363 0.226380
vt 0.832378 0.224608
vt 0.832370 0.225494
vt 0.832355 0.225494
vt 0.832355 0.224608
vt 0.832310 0.322325
vt 0.832327 0.324256
vt 0.832310 0.324256
vt 0.832370 0.224608
vt 0.832363 0.225494
vt 0.832363 0.224608
vt 0.832370 0.226380
vt 0.832363 0.227266
vt 0.832363 0.226380
vt 0.832378 0.224608
vt 0.832370 0.225494
vt 0.832355 0.225494
vt 0.832355 0.224608
vt 0.832310 0.324256
vt 0.832327 0.322325
vt 0.832327 0.324256
vt 0.832370 0.224608
vt 0.832363 0.225494
vt 0.832363 0.224608
vt 0.832370 0.226380
vt 0.832363 0.227266
vt 0.832363 0.226380
vt 0.832378 0.224608
vt 0.832370 0.225494
vt 0.832355 0.225494
vt 0.832355 0.224608
vt 0.832310 0.322325
vt 0.832327 0.324256
vt 0.832310 0.324256
vt 0.832370 0.224608
vt 0.832363 0.225494
vt 0.832363 0.224608
vt 0.832370 0.226380
vt 0.832363 0.227266
vt 0.832363 0.226380
vt 0.832378 0.224608
vt 0.832370 0.225494
vt 0.832355 0.225494
vt 0.832355 0.224608
vt 0.832310 0.324256
vt 0.832327 0.322325
vt 0.832327 0.324256
vt 0.832370 0.224608
vt 0.832363 0.225494
vt 0.832363 0.224608
vt 0.832370 0.226380
vt 0.832363 0.227266
vt 0.832363 0.226380
vt 0.832378 0.224608
vt 0.832370 0.225494
vt 0.832370 0.224608
vt 0.832363 0.225494
vt 0.832363 0.224608
vt 0.832370 0.226380
vt 0.832363 0.227266
vt 0.832363 0.226380
vt 0.832378 0.224608
vt 0.832370 0.225494
vt 0.832370 0.227266
vt 0.832370 0.227266
vt 0.832378 0.225494
vt 0.832378 0.225494
vt 0.832354 0.189431
vt 0.832353 0.189279
vt 0.832354 0.189279
vt 0.832352 0.189355
vt 0.832354 0.189355
vt 0.832353 0.189583
vt 0.832351 0.189431
vt 0.832353 0.189431
vt 0.832354 0.189583
vt 0.832355 0.189431
vt 0.832353 0.189431
vt 0.832354 0.189279
vt 0.832354 0.189431
vt 0.832352 0.189355
vt 0.832354 0.189355
vt 0.832353 0.189583
vt 0.832354 0.189583
vt 0.832355 0.189431
vt 0.832354 0.189431
vt 0.832353 0.189279
vt 0.832354 0.189279
vt 0.832354 0.189355
vt 0.832352 0.189355
vt 0.832353 0.189431
vt 0.832353 0.189583
vt 0.832354 0.189583
vt 0.832355 0.189431
vt 0.044149 0.803707
vt 0.041313 0.803707
vt 0.041313 0.802289
vt 0.041313 0.806543
vt 0.039895 0.806543
vt 0.041313 0.809380
vt 0.042731 0.806543
vt 0.039895 0.809380
vt 0.041313 0.812216
vt 0.042731 0.809380
vt 0.041313 0.802289
vt 0.041313 0.803707
vt 0.038477 0.803707
vt 0.044149 0.803707
vt 0.041313 0.806543
vt 0.041313 0.809380
vt 0.042731 0.806543
vt 0.041313 0.812216
vt 0.042731 0.809380
vt 0.044149 0.803707
vt 0.041313 0.803707
vt 0.041313 0.802289
vt 0.041313 0.806543
vt 0.039895 0.806543
vt 0.041313 0.809380
vt 0.042731 0.806543
vt 0.039895 0.809380
vt 0.041313 0.812216
vt 0.042731 0.809380
vt 0.044149 0.803707
vt 0.041313 0.803707
vt 0.041313 0.802289
vt 0.038477 0.803707
vt 0.041313 0.806543
vt 0.039895 0.806543
vt 0.041313 0.809380
vt 0.042731 0.806543
vt 0.041313 0.812216
vt 0.042731 0.809380
vt 0.832353 0.189431
vt 0.832354 0.189279
vt 0.832354 0.189431
vt 0.832353 0.189279
vt 0.832354 0.189355
vt 0.832352 0.189355
vt 0.832353 0.189583
vt 0.832354 0.189583
vt 0.832355 0.189431
vt 0.038477 0.803707
vt 0.041313 0.803707
vt 0.041313 0.806543
vt 0.044149 0.803707
vt 0.039895 0.806543
vt 0.041313 0.809380
vt 0.042731 0.806543
vt 0.039895 0.809380
vt 0.041313 0.812216
vt 0.042731 0.809380
vt 0.041313 0.802289
vt 0.041313 0.803707
vt 0.038477 0.803707
vt 0.041313 0.806543
vt 0.039895 0.806543
vt 0.041313 0.809380
vt 0.039895 0.809380
vt 0.041313 0.812216
vt 0.041313 0.802289
vt 0.041313 0.803707
vt 0.038477 0.803707
vt 0.039895 0.806543
vt 0.041313 0.806543
vt 0.041313 0.809380
vt 0.042731 0.806543
vt 0.039895 0.809380
vt 0.041313 0.812216
vt 0.042731 0.809380
vt 0.044149 0.803707
vt 0.041313 0.803707
vt 0.041313 0.802289
vt 0.041313 0.806543
vt 0.039895 0.806543
vt 0.041313 0.809380
vt 0.042731 0.806543
vt 0.039895 0.809380
vt 0.041313 0.812216
vt 0.042731 0.809380
vt 0.044149 0.803707
vt 0.041313 0.803707
vt 0.041313 0.802289
vt 0.041313 0.806543
vt 0.041313 0.809380
vt 0.042731 0.806543
vt 0.041313 0.812216
vt 0.042731 0.809380
vt 0.041313 0.802289
vt 0.041313 0.803707
vt 0.038477 0.803707
vt 0.044149 0.803707
vt 0.041313 0.806543
vt 0.039895 0.806543
vt 0.041313 0.809380
vt 0.041313 0.802289
vt 0.041313 0.803707
vt 0.038477 0.803707
vt 0.044149 0.803707
vt 0.041313 0.806543
vt 0.039895 0.809380
vt 0.041313 0.809380
vt 0.041313 0.812216
vt 0.042731 0.809380
vt 0.044149 0.803707
vt 0.041313 0.803707
vt 0.041313 0.802289
vt 0.041313 0.806543
vt 0.039895 0.806543
vt 0.041313 0.809380
vt 0.042731 0.806543
vt 0.039895 0.809380
vt 0.041313 0.812216
vt 0.042731 0.809380
vt 0.041313 0.802289
vt 0.041313 0.803707
vt 0.038477 0.803707
vt 0.044149 0.803707
vt 0.041313 0.806543
vt 0.041313 0.802289
vt 0.041313 0.803707
vt 0.038477 0.803707
vt 0.044149 0.803707
vt 0.039895 0.809380
vt 0.041313 0.809380
vt 0.041313 0.812216
vt 0.042731 0.809380
vt 0.044149 0.803707
vt 0.041313 0.803707
vt 0.041313 0.802289
vt 0.041313 0.806543
vt 0.039895 0.806543
vt 0.041313 0.809380
vt 0.042731 0.806543
vt 0.039895 0.809380
vt 0.041313 0.812216
vt 0.042731 0.809380
vt 0.044149 0.803707
vt 0.041313 0.803707
vt 0.041313 0.802289
vt 0.041313 0.806543
vt 0.041313 0.809380
vt 0.042731 0.806543
vt 0.041313 0.812216
vt 0.042731 0.809380
vt 0.041313 0.802289
vt 0.041313 0.803707
vt 0.038477 0.803707
vt 0.044149 0.803707
vt 0.041313 0.806543
vt 0.041313 0.809380
vt 0.042731 0.806543
vt 0.041313 0.812216
vt 0.042731 0.809380
vt 0.044149 0.803707
vt 0.041313 0.803707
vt 0.041313 0.802289
vt 0.041313 0.806543
vt 0.039895 0.806543
vt 0.041313 0.809380
vt 0.042731 0.806543
vt 0.039895 0.809380
vt 0.041313 0.812216
vt 0.042731 0.809380
vt 0.832370 0.227266
vt 0.832378 0.225494
vt 0.832327 0.322325
vt 0.832370 0.227266
vt 0.832378 0.225494
vt 0.832310 0.322325
vt 0.832370 0.227266
vt 0.832378 0.225494
vt 0.832327 0.322325
vt 0.832370 0.227266
vt 0.832378 0.225494
vt 0.832310 0.322325
vt 0.832353 0.189279
vt 0.832351 0.189431
vt 0.832351 0.189431
vt 0.832351 0.189431
vn -0.0009 0.0000 1.0000
vn 0.0010 0.0000 -1.0000
vn 1.0000 0.0000 0.0003
vn -1.0000 0.0000 -0.0003
vn 0.0000 1.0000 -0.0000
vn -0.0011 0.0000 -1.0000
vn 1.0000 0.0000 0.0007
vn -0.0010 0.0000 1.0000
vn 0.0012 0.0000 -1.0000
vn 1.0000 0.0000 0.0005
vn -1.0000 0.0000 -0.0005
vn -0.0013 0.0000 -1.0000
vn -0.0004 0.0000 1.0000
vn 0.0003 0.0000 -1.0000
vn -0.0003 0.0000 1.0000
vn 0.0004 0.0000 -1.0000
vn -1.0000 0.0000 -0.0004
vn -0.0006 0.0000 1.0000
vn 1.0000 0.0000 0.0004
vn -1.0000 0.0000 -0.0002
vn 0.0006 0.0000 -1.0000
vn 1.0000 0.0000 0.0006
vn 0.5626 0.7484 -0.3513
vn 0.7293 0.1004 -0.6768
vn -0.5509 0.6296 -0.5478
vn 0.6411 0.2496 0.7257
vn -0.7496 -0.0933 0.6552
vn -0.4406 0.6219 0.6474
vn 0.5022 0.5548 -0.6633
vn 0.5306 0.6657 0.5248
vn 0.8136 -0.0495 0.5792
vn -0.5769 0.7329 -0.3607
vn -0.5386 0.3534 0.7649
vn -0.8028 0.0523 -0.5939
vn 0.5628 0.7483 -0.3512
vn 0.7294 0.1002 -0.6767
vn -0.5503 0.6300 -0.5480
vn 0.6412 0.2501 0.7255
vn -0.7494 -0.0921 0.6557
vn -0.4404 0.6223 0.6471
vn 0.3432 0.9234 -0.1721
vn 0.3449 0.3591 0.8673
vn 0.7786 0.3999 -0.4836
vn -0.8016 -0.3955 0.4483
vn -0.7524 0.3767 0.5403
vn -0.5973 0.4872 -0.6371
vn 0.7792 0.6226 0.0728
vn -0.0947 0.2756 -0.9566
vn -0.2134 0.8336 -0.5095
vn -0.9707 0.2038 0.1269
vn -0.0902 0.4812 0.8720
vn 0.0965 -0.2750 0.9566
vn 0.6746 0.6555 -0.3394
vn -0.2210 0.6486 -0.7284
vn 0.0199 0.9885 -0.1498
vn -0.6341 0.7567 0.1590
vn 0.2403 0.8230 0.5148
vn 0.5229 0.6794 -0.5147
vn 0.0250 0.0254 -0.9994
vn -0.2472 0.8112 -0.5299
vn -0.4862 0.3686 0.7923
vn 0.1233 0.7855 0.6064
vn 0.5505 0.1921 0.8125
vn 0.5626 0.7481 -0.3520
vn 0.7293 0.0993 -0.6770
vn -0.5516 0.6293 -0.5475
vn 0.6413 0.2499 0.7255
vn -0.7490 -0.0924 0.6561
vn -0.4401 0.6224 0.6473
vn -0.3787 0.8885 0.2593
vn 0.2244 0.7252 0.6510
vn 0.1065 0.9473 -0.3021
vn -0.6865 0.3382 0.6437
vn -0.7506 0.5845 -0.3082
vn 0.7955 0.5126 0.3231
vn 0.4100 0.8924 -0.1884
vn -0.5554 0.7168 0.4217
vn 0.6647 0.3799 -0.6433
vn -0.6713 0.6107 -0.4199
vn -0.9745 -0.1650 0.1521
vn 0.4729 0.6983 0.5374
vn -0.5653 0.7017 -0.4337
vn -0.6033 0.3654 0.7089
vn 0.5394 0.5407 -0.6455
vn -0.7595 0.0038 -0.6505
vn 0.7669 -0.0037 0.6418
vn 0.5627 0.7484 -0.3512
vn 0.7294 0.1003 -0.6767
vn -0.5504 0.6297 -0.5482
vn 0.6412 0.2502 0.7254
vn -0.7493 -0.0928 0.6557
vn -0.4407 0.6221 0.6471
vn 0.6888 0.7086 0.1532
vn -0.0285 0.9751 0.2198
vn -0.0420 0.5857 0.8094
vn -0.0022 0.8714 -0.4906
vn -0.7272 0.6790 0.1007
vn -0.0930 0.9817 -0.1664
vn -0.4717 0.5937 -0.6519
vn -0.6068 0.7305 0.3133
vn 0.4908 0.6943 -0.5263
vn 0.3169 0.8474 0.4260
vn 0.3622 0.8400 -0.4040
vn 0.8664 0.2587 -0.4272
vn -0.4928 0.2281 -0.8397
vn 0.1774 0.6376 0.7497
vn -0.8598 -0.2545 0.4426
vn -0.8358 0.4821 0.2626
vn 0.0000 -1.0000 0.0000
vn 0.1289 0.8885 0.4405
vn 0.6885 0.7252 -0.0111
vn -0.2541 0.9473 -0.1951
vn 0.3987 0.3382 0.8525
vn -0.5261 0.5845 0.6177
vn 0.6412 0.2502 0.7255
usemtl Material.018
s 1
f 2/1/1 3/2/1 1/3/1
f 6/4/2 7/5/2 5/6/2
f 8/7/3 4/8/3 2/1/3
f 1/3/4 5/9/4 7/10/4
f 6/11/5 3/12/5 4/13/5
f 10/14/1 11/15/1 9/16/1
f 14/17/6 15/18/6 13/19/6
f 16/20/7 12/21/7 10/14/7
f 9/16/4 13/22/4 15/23/4
f 12/24/5 13/25/5 11/26/5
f 18/27/8 19/28/8 17/29/8
f 22/30/9 23/31/9 21/32/9
f 24/33/10 20/34/10 18/27/10
f 17/29/11 21/35/11 23/36/11
f 22/37/5 19/38/5 20/39/5
f 26/40/1 27/41/1 25/42/1
f 30/43/12 31/44/12 29/45/12
f 32/46/7 28/47/7 26/40/7
f 25/42/11 29/48/11 31/49/11
f 28/50/5 29/51/5 27/52/5
f 34/53/13 35/54/13 33/55/13
f 38/56/14 39/57/14 37/58/14
f 40/59/5 36/60/5 34/53/5
f 42/61/15 43/62/15 41/63/15
f 46/64/16 47/65/16 45/66/16
f 48/67/5 44/68/5 42/61/5
f 33/55/11 48/69/11 34/53/11
f 40/70/10 41/63/10 39/57/10
f 34/53/5 42/61/5 40/59/5
f 38/71/5 46/72/5 36/60/5
f 37/58/17 44/68/17 38/56/17
f 36/60/10 45/66/10 35/54/10
f 51/73/18 54/74/18 53/75/18
f 53/75/5 56/76/5 55/77/5
f 50/78/19 54/79/19 52/80/19
f 49/81/20 53/82/20 55/77/20
f 55/77/21 50/78/21 49/81/21
f 60/83/18 61/84/18 59/85/18
f 61/84/5 64/86/5 63/87/5
f 64/86/19 60/83/19 58/88/19
f 57/89/20 61/90/20 63/87/20
f 63/87/21 58/88/21 57/89/21
f 67/91/13 70/92/13 69/93/13
f 70/92/5 71/94/5 69/93/5
f 72/95/22 68/96/22 66/97/22
f 65/98/20 69/99/20 71/94/20
f 71/94/14 66/97/14 65/98/14
f 76/100/23 74/101/24 73/102/25
f 77/103/26 74/101/24 76/100/23
f 75/104/27 77/103/26 78/105/28
f 78/105/28 77/103/26 76/106/23
f 75/107/27 78/105/28 73/108/25
f 73/108/25 78/105/28 76/109/23
f 79/110/29 80/111/30 81/112/31
f 82/113/32 80/111/30 79/110/29
f 81/112/31 80/111/30 83/114/33
f 83/114/33 80/111/30 82/113/32
f 84/115/34 83/114/33 82/116/32
f 79/117/29 84/115/34 82/118/32
f 88/119/35 86/120/36 85/121/37
f 89/122/38 86/120/36 88/119/35
f 87/123/39 89/122/38 90/124/40
f 90/124/40 89/122/38 88/125/35
f 87/126/39 90/124/40 85/127/37
f 85/127/37 90/124/40 88/128/35
f 94/129/41 92/130/42 91/131/43
f 93/132/44 92/130/42 95/133/45
f 95/133/45 92/130/42 94/129/41
f 93/134/44 95/133/45 96/135/46
f 96/135/46 95/133/45 94/136/41
f 91/137/43 96/135/46 94/138/41
f 100/139/15 101/140/15 99/141/15
f 102/142/5 103/143/5 101/140/5
f 104/144/22 100/139/22 98/145/22
f 97/146/20 101/147/20 103/143/20
f 103/143/16 98/145/16 97/146/16
f 107/148/47 106/149/48 109/150/49
f 109/150/49 106/149/48 108/151/50
f 107/152/47 109/150/49 110/153/51
f 110/153/51 109/150/49 108/154/50
f 107/155/47 110/153/51 105/156/52
f 105/156/52 110/153/51 108/157/50
f 111/158/53 112/159/54 113/160/55
f 113/160/55 112/159/54 114/161/56
f 113/162/55 114/161/56 115/163/57
f 113/164/55 115/163/57 111/165/53
f 116/166/58 117/167/59 118/168/60
f 118/169/60 120/170/61 121/171/62
f 121/171/62 120/170/61 119/172/63
f 118/173/60 121/171/62 116/174/58
f 116/174/58 121/171/62 119/175/63
f 125/176/64 123/177/65 122/178/66
f 126/179/67 123/177/65 125/176/64
f 124/180/68 126/179/67 127/181/69
f 127/181/69 126/179/67 125/182/64
f 124/183/68 127/181/69 122/184/66
f 122/184/66 127/181/69 125/185/64
f 130/186/70 129/187/71 128/188/72
f 131/189/73 129/187/71 130/186/70
f 132/190/74 131/189/73 130/191/70
f 128/192/72 132/190/74 130/193/70
f 133/194/75 134/195/76 135/196/77
f 136/197/78 134/195/76 133/194/75
f 135/196/77 134/195/76 137/198/79
f 137/198/79 134/195/76 136/197/78
f 135/199/77 137/198/79 138/200/80
f 139/201/81 140/202/82 141/203/83
f 142/204/84 140/202/82 139/201/81
f 141/203/83 140/202/82 143/205/85
f 143/205/85 140/202/82 142/204/84
f 141/206/83 144/207/86 139/208/81
f 139/208/81 144/207/86 142/209/84
f 148/210/87 146/211/88 145/212/89
f 149/213/90 146/211/88 148/210/87
f 147/214/91 149/213/90 150/215/92
f 150/215/92 149/213/90 148/216/87
f 147/217/91 150/215/92 145/218/89
f 145/218/89 150/215/92 148/219/87
f 151/220/93 152/221/94 153/222/95
f 154/223/96 152/221/94 151/220/93
f 153/222/95 152/221/94 155/224/97
f 155/224/97 152/221/94 154/223/96
f 156/225/98 157/226/99 158/227/100
f 159/228/101 157/226/99 156/225/98
f 158/229/100 160/230/102 156/231/98
f 156/231/98 160/230/102 159/232/101
f 164/233/103 162/234/104 161/235/105
f 165/236/106 162/234/104 164/233/103
f 163/237/107 165/236/106 166/238/108
f 166/238/108 165/236/106 164/239/103
f 163/240/107 166/238/108 161/241/105
f 161/241/105 166/238/108 164/242/103
f 51/73/109 50/78/109 52/80/109
f 59/85/109 58/88/109 60/83/109
f 97/146/109 100/139/109 99/141/109
f 65/98/109 68/96/109 67/91/109
f 169/243/110 168/244/111 167/245/112
f 170/246/113 168/244/111 169/243/110
f 171/247/114 170/246/113 169/248/110
f 167/249/112 171/247/114 169/250/110
f 172/251/29 173/252/30 174/253/31
f 175/254/32 173/252/30 172/251/29
f 174/253/31 173/252/30 176/255/33
f 176/255/33 173/252/30 175/254/32
f 177/256/34 176/255/33 175/257/32
f 172/258/29 177/256/34 175/259/32
f 181/260/87 179/261/88 178/262/89
f 182/263/115 179/261/88 181/260/87
f 180/264/91 182/263/115 183/265/92
f 183/265/92 182/263/115 181/266/87
f 180/267/91 183/265/92 178/268/89
f 178/268/89 183/265/92 181/269/87
f 2/1/1 4/8/1 3/2/1
f 6/4/2 8/270/2 7/5/2
f 8/7/3 6/271/3 4/8/3
f 1/3/4 3/2/4 5/9/4
f 6/11/5 5/272/5 3/12/5
f 10/14/1 12/21/1 11/15/1
f 14/17/6 16/273/6 15/18/6
f 16/20/7 14/274/7 12/21/7
f 9/16/4 11/15/4 13/22/4
f 12/24/5 14/275/5 13/25/5
f 18/27/8 20/34/8 19/28/8
f 22/30/9 24/276/9 23/31/9
f 24/33/10 22/277/10 20/34/10
f 17/29/11 19/28/11 21/35/11
f 22/37/5 21/278/5 19/38/5
f 26/40/1 28/47/1 27/41/1
f 30/43/12 32/279/12 31/44/12
f 32/46/7 30/280/7 28/47/7
f 25/42/11 27/41/11 29/48/11
f 28/50/5 30/281/5 29/51/5
f 34/53/13 36/60/13 35/54/13
f 38/56/14 40/70/14 39/57/14
f 40/59/5 38/71/5 36/60/5
f 42/61/15 44/68/15 43/62/15
f 46/64/16 48/69/16 47/65/16
f 48/67/5 46/72/5 44/68/5
f 33/55/11 47/65/11 48/69/11
f 40/70/10 42/61/10 41/63/10
f 34/53/5 48/67/5 42/61/5
f 38/71/5 44/68/5 46/72/5
f 37/58/17 43/62/17 44/68/17
f 36/60/10 46/64/10 45/66/10
f 51/73/18 52/80/18 54/74/18
f 53/75/5 54/74/5 56/76/5
f 50/78/19 56/76/19 54/79/19
f 49/81/20 51/73/20 53/82/20
f 55/77/21 56/76/21 50/78/21
f 60/83/18 62/282/18 61/84/18
f 61/84/5 62/282/5 64/86/5
f 64/86/19 62/283/19 60/83/19
f 57/89/20 59/85/20 61/90/20
f 63/87/21 64/86/21 58/88/21
f 67/91/13 68/96/13 70/92/13
f 70/92/5 72/95/5 71/94/5
f 72/95/22 70/284/22 68/96/22
f 65/98/20 67/91/20 69/99/20
f 71/94/14 72/95/14 66/97/14
f 100/139/15 102/142/15 101/140/15
f 102/142/5 104/144/5 103/143/5
f 104/144/22 102/285/22 100/139/22
f 97/146/20 99/141/20 101/147/20
f 103/143/16 104/144/16 98/145/16
f 51/73/109 49/81/109 50/78/109
f 59/85/109 57/89/109 58/88/109
f 97/146/109 98/145/109 100/139/109
f 65/98/109 66/97/109 68/96/109
