# Blender v3.6.5 OBJ File: 'Test_Level.blend'
# www.blender.org
mtllib fabulous_mushroom_003.mtl
o fabulous_mushroom_003
v -0.109637 0.000000 -0.063299
v -0.109641 0.000000 0.063299
v -0.000002 0.000000 0.126598
v 0.109633 0.000000 0.063299
v 0.109637 0.000000 -0.063299
v -0.000002 0.000000 -0.126598
v -0.106754 0.306036 -0.038042
v -0.107103 0.305779 0.037409
v -0.042203 0.311632 0.075450
v 0.023042 0.317741 0.038042
v 0.023383 0.317997 -0.037409
v -0.041514 0.312145 -0.075450
v -0.111458 0.758389 -0.030132
v -0.111257 0.758515 0.030463
v -0.058779 0.755283 0.060596
v -0.006511 0.751924 0.030132
v -0.006711 0.751798 -0.030464
v -0.059185 0.755031 -0.060596
v -0.062864 1.471673 -0.015363
v -0.062413 1.471929 0.037836
v -0.016681 1.464842 0.064085
v 0.028595 1.457500 0.037135
v 0.028144 1.457243 -0.016065
v -0.017584 1.464330 -0.042314
v -0.146494 1.568059 -0.072239
v -0.145059 1.568869 0.096231
v -0.000248 1.546427 0.179356
v 0.143139 1.523175 0.094010
v 0.141716 1.522364 -0.074460
v -0.003098 1.544807 -0.157585
v -0.061884 1.853441 -0.042223
v -0.060895 1.854001 0.073990
v 0.039000 1.838520 0.131330
v 0.137910 1.822480 0.072458
v 0.136930 1.821921 -0.043755
v 0.037031 1.837402 -0.101095
v 0.002943 1.948112 -0.012630
v 0.003418 1.948383 0.043607
v 0.051762 1.940891 0.071355
v 0.099626 1.933130 0.042866
v 0.099151 1.932859 -0.013372
v 0.050807 1.940350 -0.041120
v -0.009143 2.008211 -0.025320
v -0.008442 2.008606 0.056636
v 0.062011 1.997688 0.097074
v 0.131759 1.986376 0.055556
v 0.131066 1.985982 -0.026401
v 0.060617 1.996900 -0.066839
v 0.078485 2.111793 0.015118
v -0.097842 1.139074 -0.022374
v -0.097514 1.139265 0.034523
v -0.048412 1.134106 0.062714
v 0.000359 1.128755 0.034007
v 0.000039 1.128564 -0.022891
v -0.049068 1.133724 -0.051081
vt 0.397742 0.328685
vt 0.397372 0.328658
vt 0.397391 0.328656
vt 0.397702 0.328686
vt 0.397361 0.328585
vt 0.397690 0.328565
vt 0.397368 0.328511
vt 0.397757 0.328435
vt 0.397717 0.328442
vt 0.397770 0.328558
vt 0.397387 0.328507
vt 0.397398 0.328581
vt 0.396877 0.328624
vt 0.396871 0.328567
vt 0.396868 0.328625
vt 0.396883 0.328507
vt 0.396893 0.328505
vt 0.396890 0.328564
vt 0.396439 0.328578
vt 0.396064 0.328508
vt 0.396443 0.328577
vt 0.396076 0.328460
vt 0.396064 0.328510
vt 0.396447 0.328524
vt 0.396088 0.328408
vt 0.396459 0.328468
vt 0.396089 0.328405
vt 0.396456 0.328520
vt 0.396463 0.328465
vt 0.396077 0.328456
vt 0.395945 0.328595
vt 0.395947 0.328597
vt 0.395986 0.328440
vt 0.396023 0.328264
vt 0.396023 0.328277
vt 0.395983 0.328425
vt 0.395621 0.328473
vt 0.395660 0.328369
vt 0.395629 0.328478
vt 0.395683 0.328255
vt 0.395675 0.328246
vt 0.395644 0.328356
vt 0.395519 0.328392
vt 0.395540 0.328342
vt 0.395524 0.328395
vt 0.395550 0.328286
vt 0.395545 0.328282
vt 0.395530 0.328335
vt 0.395446 0.328399
vt 0.395455 0.328404
vt 0.395479 0.328327
vt 0.395485 0.328239
vt 0.395493 0.328246
vt 0.395462 0.328317
vt 0.395339 0.328292
vn -0.8544 0.0498 -0.5173
vn -0.8732 0.0252 0.4866
vn -0.8686 0.0249 -0.4948
vn -0.8545 0.0493 0.5170
vn -0.0287 0.0990 0.9947
vn 0.0374 0.1644 0.9857
vn 0.8443 0.1712 0.5077
vn 0.8431 0.2673 -0.4666
vn 0.8433 0.2669 0.4664
vn 0.0374 0.1653 -0.9855
vn 0.8495 0.1707 -0.4992
vn -0.0189 0.0982 -0.9950
vn -0.8689 0.0207 -0.4945
vn -0.0067 0.0130 0.9999
vn -0.8680 0.0128 0.4965
vn 0.8661 0.0243 0.4993
vn 0.8607 0.0322 -0.5080
vn -0.0124 0.0288 -0.9995
vn -0.8644 0.0563 0.4997
vn -0.8716 0.1020 -0.4795
vn -0.8685 0.0713 -0.4906
vn -0.0126 -0.0031 0.9999
vn -0.8601 0.0857 0.5028
vn -0.0060 -0.0049 1.0000
vn 0.8588 -0.0788 0.5062
vn 0.8647 -0.0498 0.4998
vn 0.8584 -0.0630 -0.5092
vn -0.0137 0.0262 -0.9996
vn 0.8604 -0.0336 -0.5085
vn -0.0234 0.0289 -0.9993
vn -0.6293 -0.7171 0.2998
vn -0.8605 -0.1993 -0.4689
vn -0.6345 -0.7185 -0.2847
vn -0.1280 -0.8008 0.5851
vn -0.8540 -0.2043 0.4785
vn 0.3639 -0.8853 0.2895
vn -0.0396 -0.3304 0.9430
vn 0.7564 -0.4461 -0.4783
vn 0.7632 -0.4507 0.4631
vn 0.3597 -0.8870 -0.2896
vn -0.0527 -0.3207 -0.9457
vn -0.1375 -0.8040 -0.5786
vn -0.7681 0.4380 -0.4670
vn 0.0557 0.3159 0.9471
vn -0.7623 0.4313 0.4826
vn 0.8601 0.2081 0.4657
vn 0.8532 0.2150 -0.4751
vn 0.0432 0.3295 -0.9432
vn -0.6775 0.5978 -0.4285
vn 0.0764 0.4969 0.8644
vn -0.6710 0.5982 0.4381
vn 0.8143 0.3954 0.4249
vn 0.8072 0.3950 -0.4386
vn 0.0629 0.4961 -0.8660
vn -0.8453 -0.2667 0.4630
vn -0.8411 0.2223 -0.4931
vn -0.8523 -0.2664 -0.4501
vn -0.0627 -0.4023 0.9134
vn -0.8333 0.2232 0.5057
vn 0.7126 -0.5375 0.4509
vn 0.0243 0.0845 0.9961
vn 0.8621 -0.0552 -0.5038
vn 0.8699 -0.0543 0.4902
vn 0.7057 -0.5373 -0.4618
vn 0.0086 0.0828 -0.9965
vn -0.0767 -0.4017 -0.9125
vn 0.1507 0.9886 -0.0018
usemtl Material.026
s 1
f 1/1/1 8/2/2 7/3/3
f 2/4/4 9/5/5 8/2/2
f 3/6/6 10/7/7 9/5/5
f 5/8/8 10/7/7 4/9/9
f 6/10/10 11/11/11 5/8/8
f 1/1/1 12/12/12 6/10/10
f 8/2/2 13/13/13 7/3/3
f 8/2/2 15/14/14 14/15/15
f 9/5/5 16/16/16 15/14/14
f 11/11/11 16/16/16 10/7/7
f 12/12/12 17/17/17 11/11/11
f 7/3/3 18/18/18 12/12/12
f 51/19/19 19/20/20 50/21/21
f 51/19/19 21/22/22 20/23/23
f 52/24/24 22/25/25 21/22/22
f 53/26/26 23/27/27 22/25/25
f 55/28/28 23/27/27 54/29/29
f 50/21/21 24/30/30 55/28/28
f 20/23/31 25/31/32 19/20/33
f 21/22/34 26/32/35 20/23/31
f 22/25/36 27/33/37 21/22/34
f 22/25/36 29/34/38 28/35/39
f 23/27/40 30/36/41 29/34/38
f 24/30/42 25/31/32 30/36/41
f 26/32/35 31/37/43 25/31/32
f 26/32/35 33/38/44 32/39/45
f 27/33/37 34/40/46 33/38/44
f 28/35/39 35/41/47 34/40/46
f 30/36/41 35/41/47 29/34/38
f 25/31/32 36/42/48 30/36/41
f 32/39/45 37/43/49 31/37/43
f 32/39/45 39/44/50 38/45/51
f 33/38/44 40/46/52 39/44/50
f 34/40/46 41/47/53 40/46/52
f 36/42/48 41/47/53 35/41/47
f 31/37/43 42/48/54 36/42/48
f 38/45/55 43/49/56 37/43/57
f 39/44/58 44/50/59 38/45/55
f 40/46/60 45/51/61 39/44/58
f 40/46/60 47/52/62 46/53/63
f 41/47/64 48/54/65 47/52/62
f 42/48/66 43/49/56 48/54/65
f 43/49/56 44/50/59 49/55/67
f 44/50/59 45/51/61 49/55/67
f 45/51/61 46/53/63 49/55/67
f 46/53/63 47/52/62 49/55/67
f 47/52/62 48/54/65 49/55/67
f 48/54/65 43/49/56 49/55/67
f 14/15/15 50/21/21 13/13/13
f 14/15/15 52/24/24 51/19/19
f 15/14/14 53/26/26 52/24/24
f 16/16/16 54/29/29 53/26/26
f 18/18/18 54/29/29 17/17/17
f 13/13/13 55/28/28 18/18/18
f 1/1/1 2/4/4 8/2/2
f 2/4/4 3/6/6 9/5/5
f 3/6/6 4/9/9 10/7/7
f 5/8/8 11/11/11 10/7/7
f 6/10/10 12/12/12 11/11/11
f 1/1/1 7/3/3 12/12/12
f 8/2/2 14/15/15 13/13/13
f 8/2/2 9/5/5 15/14/14
f 9/5/5 10/7/7 16/16/16
f 11/11/11 17/17/17 16/16/16
f 12/12/12 18/18/18 17/17/17
f 7/3/3 13/13/13 18/18/18
f 51/19/19 20/23/23 19/20/20
f 51/19/19 52/24/24 21/22/22
f 52/24/24 53/26/26 22/25/25
f 53/26/26 54/29/29 23/27/27
f 55/28/28 24/30/30 23/27/27
f 50/21/21 19/20/20 24/30/30
f 20/23/31 26/32/35 25/31/32
f 21/22/34 27/33/37 26/32/35
f 22/25/36 28/35/39 27/33/37
f 22/25/36 23/27/40 29/34/38
f 23/27/40 24/30/42 30/36/41
f 24/30/42 19/20/33 25/31/32
f 26/32/35 32/39/45 31/37/43
f 26/32/35 27/33/37 33/38/44
f 27/33/37 28/35/39 34/40/46
f 28/35/39 29/34/38 35/41/47
f 30/36/41 36/42/48 35/41/47
f 25/31/32 31/37/43 36/42/48
f 32/39/45 38/45/51 37/43/49
f 32/39/45 33/38/44 39/44/50
f 33/38/44 34/40/46 40/46/52
f 34/40/46 35/41/47 41/47/53
f 36/42/48 42/48/54 41/47/53
f 31/37/43 37/43/49 42/48/54
f 38/45/55 44/50/59 43/49/56
f 39/44/58 45/51/61 44/50/59
f 40/46/60 46/53/63 45/51/61
f 40/46/60 41/47/64 47/52/62
f 41/47/64 42/48/66 48/54/65
f 42/48/66 37/43/57 43/49/56
f 14/15/15 51/19/19 50/21/21
f 14/15/15 15/14/14 52/24/24
f 15/14/14 16/16/16 53/26/26
f 16/16/16 17/17/17 54/29/29
f 18/18/18 55/28/28 54/29/29
f 13/13/13 50/21/21 55/28/28
