# Blender v3.6.5 OBJ File: 'Test_Level.blend'
# www.blender.org
mtllib jug_003.mtl
o jug_003
v 0.050709 0.000000 -0.087863
v -0.050711 0.000000 -0.087863
v -0.101425 0.000000 0.000000
v -0.050711 0.000000 0.087863
v 0.050709 0.000000 0.087863
v 0.101430 0.000000 0.000000
v 0.097186 0.373421 -0.168351
v -0.097187 0.373421 -0.168351
v -0.194367 0.373421 0.000000
v -0.097187 0.373421 0.168323
v 0.097186 0.373421 0.168323
v 0.194372 0.373421 0.000000
v 0.081726 0.106350 -0.134017
v -0.081728 0.106350 -0.134018
v -0.163449 0.106350 0.000000
v -0.081728 0.106350 0.133990
v 0.081726 0.106350 0.133990
v 0.163447 0.106350 0.000000
v 0.047318 0.570425 -0.081952
v -0.047319 0.570425 -0.081952
v -0.094635 0.570425 0.000000
v -0.047319 0.570425 0.081952
v 0.047318 0.570425 0.081952
v 0.094639 0.570425 0.000000
v 0.039592 0.570425 -0.068583
v -0.039594 0.570425 -0.068583
v -0.079183 0.570425 0.000000
v -0.039594 0.570425 0.068583
v 0.039592 0.570425 0.068583
v 0.079185 0.570425 0.000000
v -0.000001 0.457989 0.000000
v 0.033213 0.524463 -0.057507
v -0.033208 0.524463 -0.057507
v -0.066422 0.524463 0.000000
v -0.033208 0.524463 0.057535
v 0.033213 0.524463 0.057535
v 0.066420 0.524463 0.000000
v 0.076819 0.446887 -0.133051
v -0.076814 0.446887 -0.133051
v -0.153628 0.446887 0.000000
v -0.076814 0.446887 0.133051
v 0.076819 0.446887 0.133051
v 0.153625 0.446887 0.000000
vt 0.800297 0.334452
vt 0.800297 0.334738
vt 0.800297 0.334738
vt 0.800297 0.334452
vt 0.800297 0.334738
vt 0.800297 0.334452
vt 0.800297 0.334452
vt 0.800297 0.334452
vt 0.800297 0.334768
vt 0.800297 0.334738
vt 0.800297 0.334768
vt 0.800297 0.334452
vt 0.800297 0.333722
vt 0.800297 0.333722
vt 0.800297 0.333927
vt 0.800297 0.333928
vt 0.800297 0.334166
vt 0.800297 0.334166
vt 0.800297 0.334166
vt 0.800297 0.334166
vt 0.800297 0.334166
vt 0.800297 0.334166
vt 0.800297 0.335180
vt 0.800297 0.335180
vt 0.800297 0.335180
vt 0.800297 0.334974
vt 0.800297 0.335180
vt 0.800297 0.334974
vt 0.800297 0.334768
vt 0.800297 0.334768
vt 0.800297 0.334768
vt 0.800297 0.334974
vt 0.800297 0.334768
vt 0.800297 0.334974
vt 0.800297 0.335180
vt 0.800297 0.334974
vt 0.800297 0.335180
vt 0.800297 0.334768
vt 0.800297 0.334768
vt 0.800297 0.334974
vt 0.832324 0.125096
vt 0.832309 0.125096
vt 0.832316 0.128200
vt 0.832316 0.125096
vt 0.832324 0.125096
vt 0.832308 0.128200
vt 0.832300 0.128200
vt 0.832296 0.125076
vt 0.832289 0.121972
vt 0.832296 0.121972
vt 0.832304 0.121972
vt 0.800297 0.335180
vt 0.800297 0.335180
vt 0.800297 0.334974
vt 0.800297 0.334768
vt 0.800297 0.334768
vt 0.800297 0.334974
vt 0.800297 0.335180
vt 0.800297 0.334974
vt 0.800297 0.335180
vt 0.800297 0.334974
vn 0.4779 -0.2902 -0.8291
vn -0.4910 0.1666 -0.8550
vn 0.4910 0.1666 -0.8551
vn -0.4779 -0.2902 -0.8291
vn -0.9849 0.1731 0.0000
vn -0.4779 -0.2902 0.8291
vn -0.9548 -0.2974 0.0000
vn 0.4779 -0.2902 0.8291
vn -0.4910 0.1665 0.8551
vn 0.9849 0.1731 0.0000
vn 0.4910 0.1665 0.8551
vn 0.9548 -0.2974 0.0000
vn 0.0000 -1.0000 0.0000
vn -0.4336 -0.4622 -0.7736
vn 0.4335 -0.4622 -0.7736
vn -0.8703 -0.4926 0.0000
vn 0.4335 -0.4620 0.7737
vn -0.4336 -0.4620 0.7737
vn 0.8703 -0.4926 0.0000
vn -0.4261 -0.5233 -0.7380
vn 0.4260 -0.5233 -0.7380
vn 0.4261 -0.5233 -0.7380
vn -0.8522 -0.5232 -0.0000
vn -0.8523 -0.5231 -0.0001
vn -0.4262 -0.5230 0.7381
vn -0.4261 -0.5230 0.7382
vn 0.4262 -0.5230 0.7381
vn 0.8522 -0.5232 -0.0000
vn 0.4262 -0.5229 0.7382
vn 0.0000 1.0000 0.0000
vn -0.1620 0.9460 0.2806
vn 0.3241 0.9460 0.0000
vn 0.1620 0.9460 0.2806
vn -0.1620 0.9460 -0.2806
vn 0.1620 0.9460 -0.2806
vn -0.3241 0.9460 -0.0000
vn -0.4001 0.5998 -0.6929
vn 0.3323 0.7472 -0.5755
vn 0.4001 0.5998 -0.6929
vn -0.8002 0.5997 -0.0000
vn -0.3323 0.7472 -0.5755
vn -0.4001 0.5997 0.6930
vn -0.6647 0.7472 -0.0001
vn 0.4002 0.5996 0.6930
vn -0.3323 0.7471 0.5756
vn 0.8002 0.5997 0.0000
vn 0.3323 0.7472 0.5756
vn 0.6647 0.7472 -0.0001
usemtl Material.036
s 1
f 13/1/1 8/2/2 7/3/3
f 14/4/4 9/5/5 8/2/2
f 16/6/6 9/5/5 15/7/7
f 17/8/8 10/9/9 16/6/6
f 17/8/8 12/10/10 11/11/11
f 13/1/1 12/10/10 18/12/12
f 2/13/13 1/14/13 6/15/13
f 3/16/13 2/13/13 6/15/13
f 4/17/13 3/16/13 6/15/13
f 5/18/13 4/17/13 6/15/13
f 2/19/14 13/1/1 1/20/15
f 3/21/16 14/4/4 2/19/14
f 3/21/16 16/6/6 15/7/7
f 5/18/17 16/6/6 4/17/18
f 6/22/19 17/8/8 5/18/17
f 6/22/19 13/1/1 18/12/12
f 33/23/20 19/24/21 32/25/22
f 33/23/20 21/26/23 20/27/20
f 34/28/24 22/29/25 21/26/23
f 35/30/26 23/31/27 22/29/25
f 37/32/28 23/31/27 36/33/29
f 32/25/22 24/34/28 37/32/28
f 20/27/30 25/35/31 19/24/30
f 20/27/30 27/36/32 26/37/33
f 22/29/30 27/36/32 21/26/30
f 22/29/30 29/38/34 28/39/35
f 23/31/30 30/40/36 29/38/34
f 19/24/30 30/40/36 24/34/30
f 25/41/31 26/42/33 31/43/30
f 26/42/33 27/44/32 31/43/30
f 27/44/32 28/45/35 31/43/30
f 28/46/35 29/47/34 31/48/30
f 29/49/34 30/50/36 31/48/30
f 30/50/36 25/51/31 31/48/30
f 39/52/37 32/25/38 38/53/39
f 40/54/40 33/23/41 39/52/37
f 41/55/42 34/28/43 40/54/40
f 42/56/44 35/30/45 41/55/42
f 43/57/46 36/33/47 42/56/44
f 43/57/46 32/25/38 37/32/48
f 7/58/3 39/52/37 38/53/39
f 9/59/5 39/52/37 8/60/2
f 10/9/9 40/54/40 9/59/5
f 11/11/11 41/55/42 10/9/9
f 11/11/11 43/57/46 42/56/44
f 12/61/10 38/53/39 43/57/46
f 13/1/1 14/4/4 8/2/2
f 14/4/4 15/7/7 9/5/5
f 16/6/6 10/9/9 9/5/5
f 17/8/8 11/11/11 10/9/9
f 17/8/8 18/12/12 12/10/10
f 13/1/1 7/3/3 12/10/10
f 2/19/14 14/4/4 13/1/1
f 3/21/16 15/7/7 14/4/4
f 3/21/16 4/17/18 16/6/6
f 5/18/17 17/8/8 16/6/6
f 6/22/19 18/12/12 17/8/8
f 6/22/19 1/20/15 13/1/1
f 33/23/20 20/27/20 19/24/21
f 33/23/20 34/28/24 21/26/23
f 34/28/24 35/30/26 22/29/25
f 35/30/26 36/33/29 23/31/27
f 37/32/28 24/34/28 23/31/27
f 32/25/22 19/24/21 24/34/28
f 20/27/30 26/37/33 25/35/31
f 20/27/30 21/26/30 27/36/32
f 22/29/30 28/39/35 27/36/32
f 22/29/30 23/31/30 29/38/34
f 23/31/30 24/34/30 30/40/36
f 19/24/30 25/35/31 30/40/36
f 39/52/37 33/23/41 32/25/38
f 40/54/40 34/28/43 33/23/41
f 41/55/42 35/30/45 34/28/43
f 42/56/44 36/33/47 35/30/45
f 43/57/46 37/32/48 36/33/47
f 43/57/46 38/53/39 32/25/38
f 7/58/3 8/60/2 39/52/37
f 9/59/5 40/54/40 39/52/37
f 10/9/9 41/55/42 40/54/40
f 11/11/11 42/56/44 41/55/42
f 11/11/11 12/61/10 43/57/46
f 12/61/10 7/58/3 38/53/39
