# Blender v3.6.5 OBJ File: 'Test_Level.blend'
# www.blender.org
mtllib log_003.mtl
o log_003
v -0.241728 0.152972 -0.236285
v -0.241728 0.095149 -0.181112
v -0.241728 0.018455 -0.203623
v -0.241728 -0.000415 -0.281280
v -0.241728 0.057408 -0.336453
v -0.241728 0.134102 -0.313955
v 0.216017 0.164986 -0.232763
v 0.216017 0.098105 -0.168958
v 0.216017 0.009398 -0.194978
v 0.216017 -0.012429 -0.284787
v 0.216017 0.054452 -0.348606
v 0.216017 0.143159 -0.322601
v -0.225092 0.113723 -0.457889
v -0.225092 0.151167 -0.393035
v -0.225092 0.113723 -0.328180
v -0.225092 0.038834 -0.328180
v -0.225092 0.001390 -0.393035
v -0.225092 0.038834 -0.457889
v 0.200037 0.116626 -0.458759
v 0.200037 0.156973 -0.388878
v 0.200037 0.116626 -0.318996
v 0.200037 0.035931 -0.318996
v 0.200037 -0.004416 -0.388878
v 0.200037 0.035931 -0.458759
v -0.241728 0.292695 0.036294
v -0.241728 0.234872 0.091467
v -0.241728 0.158178 0.068983
v -0.241728 0.139308 -0.008687
v -0.241728 0.197131 -0.063860
v -0.241728 0.273825 -0.041377
v 0.216017 0.304709 0.039816
v 0.216017 0.237828 0.103634
v 0.216017 0.149121 0.077629
v 0.216017 0.127295 -0.012209
v 0.216017 0.194175 -0.076027
v 0.216017 0.282882 -0.050022
v -0.225092 0.113723 -0.231658
v -0.225092 0.151167 -0.166790
v -0.225092 0.113723 -0.101936
v -0.225092 0.038834 -0.101936
v -0.225092 0.001390 -0.166790
v -0.225092 0.038834 -0.231658
v 0.200037 0.116626 -0.232528
v 0.200037 0.156973 -0.162647
v 0.200037 0.116626 -0.092752
v 0.200037 0.035931 -0.092752
v 0.200037 -0.004416 -0.162647
v 0.200037 0.035931 -0.232528
v -0.225092 0.113723 0.263933
v -0.225092 0.151167 0.328773
v -0.225092 0.113723 0.393628
v -0.225092 0.038834 0.393628
v -0.225092 0.001390 0.328773
v -0.225092 0.038834 0.263933
v 0.200037 0.116626 0.263063
v 0.200037 0.156973 0.332944
v 0.200037 0.116626 0.402826
v 0.200037 0.035931 0.402826
v 0.200037 -0.004416 0.332944
v 0.200037 0.035931 0.263063
v -0.205251 0.140146 0.421497
v -0.205251 0.150926 0.501460
v -0.205251 0.087059 0.550792
v -0.205251 0.012411 0.520132
v -0.205251 0.001631 0.440155
v -0.205251 0.065498 0.390838
v 0.179540 0.140146 0.421497
v 0.179540 0.150926 0.501460
v 0.179540 0.087059 0.550792
v 0.179540 0.012411 0.520132
v 0.179540 0.001631 0.440156
v 0.179540 0.065498 0.390838
v -0.205251 0.254150 0.274843
v -0.205251 0.190282 0.324161
v -0.205251 0.115635 0.293501
v -0.205251 0.104855 0.213538
v -0.205251 0.168722 0.164221
v -0.205251 0.243369 0.194866
v 0.179540 0.254149 0.274843
v 0.179540 0.190282 0.324161
v 0.179540 0.115635 0.293501
v 0.179540 0.104855 0.213538
v 0.179540 0.168722 0.164221
v 0.179540 0.243369 0.194866
v -0.205251 0.201901 -0.039996
v -0.205251 0.127254 -0.070655
v -0.205251 0.116474 -0.150618
v -0.205251 0.180341 -0.199936
v -0.205251 0.254988 -0.169290
v -0.205251 0.265769 -0.089313
v 0.179540 0.201901 -0.039996
v 0.179540 0.127254 -0.070655
v 0.179540 0.116474 -0.150618
v 0.179540 0.180341 -0.199936
v 0.179540 0.254988 -0.169290
v 0.179540 0.265768 -0.089313
v -0.205251 0.140146 -0.101729
v -0.205251 0.150926 -0.021752
v -0.205251 0.087059 0.027566
v -0.205251 0.012411 -0.003080
v -0.205251 0.001631 -0.083043
v -0.205251 0.065498 -0.132374
v 0.179540 0.140146 -0.101729
v 0.179540 0.150926 -0.021752
v 0.179540 0.087059 0.027566
v 0.179540 0.012411 -0.003080
v 0.179540 0.001631 -0.083043
v 0.179540 0.065498 -0.132374
v -0.253786 0.143111 0.188182
v -0.253786 0.133619 0.259873
v -0.253786 0.066787 0.287494
v -0.253786 0.009446 0.243424
v -0.253786 0.018938 0.171748
v -0.253786 0.085770 0.144113
v 0.227266 0.135117 0.185710
v 0.227266 0.126760 0.248824
v 0.227266 0.067922 0.273145
v 0.227266 0.017440 0.234365
v 0.227266 0.025796 0.171237
v 0.227266 0.084635 0.146902
v -0.241728 0.152972 0.101438
v -0.241728 0.095149 0.156611
v -0.241728 0.018455 0.134128
v -0.241728 -0.000415 0.056471
v -0.241728 0.057408 0.001298
v -0.241728 0.134102 0.023781
v 0.216017 0.164986 0.104960
v 0.216017 0.098105 0.168778
v 0.216017 0.009398 0.142773
v 0.216017 -0.012429 0.052936
v 0.216017 0.054452 -0.010883
v 0.216017 0.143159 0.015136
vt 0.832332 0.126450
vt 0.832307 0.131659
vt 0.832332 0.131659
vt 0.832307 0.126450
vt 0.832312 0.131659
vt 0.832312 0.126450
vt 0.832317 0.131659
vt 0.832317 0.126450
vt 0.832322 0.131659
vt 0.832327 0.126450
vt 0.832322 0.126450
vt 0.832327 0.131659
vt 0.775006 0.334497
vt 0.775006 0.334372
vt 0.775006 0.334123
vt 0.775006 0.334372
vt 0.775006 0.334123
vt 0.775006 0.333998
vt 0.775006 0.334875
vt 0.775006 0.335000
vt 0.775006 0.334625
vt 0.775006 0.334875
vt 0.775006 0.334625
vt 0.775006 0.334501
vt 0.832307 0.126450
vt 0.832332 0.131659
vt 0.832332 0.126450
vt 0.832312 0.126450
vt 0.832307 0.131659
vt 0.832317 0.126450
vt 0.832312 0.131659
vt 0.832322 0.131659
vt 0.832317 0.131659
vt 0.832322 0.126450
vt 0.832327 0.131659
vt 0.832327 0.126450
vt 0.800317 0.450613
vt 0.800317 0.450080
vt 0.800317 0.449013
vt 0.800317 0.450080
vt 0.800317 0.449013
vt 0.800317 0.448480
vt 0.800317 0.452227
vt 0.800317 0.452761
vt 0.800317 0.451161
vt 0.800317 0.452227
vt 0.800317 0.451161
vt 0.800317 0.450627
vt 0.832332 0.126450
vt 0.832307 0.131659
vt 0.832332 0.131659
vt 0.832307 0.126450
vt 0.832312 0.131659
vt 0.832312 0.126450
vt 0.832317 0.131659
vt 0.832322 0.126450
vt 0.832317 0.126450
vt 0.832327 0.126450
vt 0.832322 0.131659
vt 0.832327 0.131659
vt 0.800317 0.449978
vt 0.800317 0.449917
vt 0.800317 0.449797
vt 0.800317 0.449917
vt 0.800317 0.449797
vt 0.800317 0.449736
vt 0.800317 0.450160
vt 0.800317 0.450220
vt 0.800317 0.450039
vt 0.800317 0.450160
vt 0.800317 0.450039
vt 0.800317 0.449979
vt 0.832307 0.126450
vt 0.832332 0.131659
vt 0.832332 0.126450
vt 0.832312 0.126450
vt 0.832307 0.131659
vt 0.832317 0.126450
vt 0.832312 0.131659
vt 0.832322 0.131659
vt 0.832317 0.131659
vt 0.832322 0.126450
vt 0.832327 0.131659
vt 0.832327 0.126450
vt 0.800317 0.450613
vt 0.800317 0.450080
vt 0.800317 0.449013
vt 0.800317 0.450080
vt 0.800317 0.449013
vt 0.800317 0.448480
vt 0.800317 0.452227
vt 0.800317 0.452761
vt 0.800317 0.451161
vt 0.800317 0.452227
vt 0.800317 0.451161
vt 0.800317 0.450627
vt 0.832307 0.126450
vt 0.832332 0.131659
vt 0.832332 0.126450
vt 0.832312 0.126450
vt 0.832307 0.131659
vt 0.832317 0.126450
vt 0.832312 0.131659
vt 0.832322 0.131659
vt 0.832317 0.131659
vt 0.832322 0.126450
vt 0.832327 0.131659
vt 0.832327 0.126450
vt 0.800317 0.450613
vt 0.800317 0.450080
vt 0.800317 0.449013
vt 0.800317 0.450080
vt 0.800317 0.449013
vt 0.800317 0.448480
vt 0.800317 0.452227
vt 0.800317 0.452761
vt 0.800317 0.451161
vt 0.800317 0.452227
vt 0.800317 0.451161
vt 0.800317 0.450627
vt 0.832307 0.126450
vt 0.832332 0.131659
vt 0.832332 0.126450
vt 0.832312 0.126450
vt 0.832307 0.131659
vt 0.832317 0.126450
vt 0.832312 0.131659
vt 0.832322 0.131659
vt 0.832317 0.131659
vt 0.832322 0.126450
vt 0.832327 0.131659
vt 0.832327 0.126450
vt 0.800264 0.386471
vt 0.800264 0.385898
vt 0.800264 0.384751
vt 0.800264 0.385898
vt 0.800264 0.384751
vt 0.800264 0.384178
vt 0.800264 0.388206
vt 0.800264 0.388780
vt 0.800264 0.387060
vt 0.800264 0.388206
vt 0.800264 0.387060
vt 0.800264 0.386486
vt 0.832307 0.126450
vt 0.832332 0.131659
vt 0.832332 0.126450
vt 0.832312 0.126450
vt 0.832307 0.131659
vt 0.832317 0.126450
vt 0.832312 0.131659
vt 0.832322 0.126450
vt 0.832317 0.131659
vt 0.832327 0.126450
vt 0.832322 0.131659
vt 0.832327 0.131659
vt 0.800264 0.386471
vt 0.800264 0.385898
vt 0.800264 0.384751
vt 0.800264 0.385898
vt 0.800264 0.384751
vt 0.800264 0.384178
vt 0.800264 0.388206
vt 0.800264 0.388780
vt 0.800264 0.387060
vt 0.800264 0.388206
vt 0.800264 0.387060
vt 0.800264 0.386486
vt 0.832307 0.126450
vt 0.832332 0.131659
vt 0.832332 0.126450
vt 0.832312 0.126450
vt 0.832307 0.131659
vt 0.832317 0.126450
vt 0.832312 0.131659
vt 0.832322 0.126450
vt 0.832317 0.131659
vt 0.832327 0.126450
vt 0.832322 0.131659
vt 0.832327 0.131659
vt 0.800264 0.386471
vt 0.800264 0.385898
vt 0.800264 0.384751
vt 0.800264 0.385898
vt 0.800264 0.384751
vt 0.800264 0.384178
vt 0.800264 0.388206
vt 0.800264 0.388780
vt 0.800264 0.387060
vt 0.800264 0.388206
vt 0.800264 0.387060
vt 0.800264 0.386486
vt 0.832307 0.126450
vt 0.832332 0.131659
vt 0.832332 0.126450
vt 0.832312 0.126450
vt 0.832307 0.131659
vt 0.832317 0.126450
vt 0.832312 0.131659
vt 0.832322 0.126450
vt 0.832317 0.131659
vt 0.832327 0.126450
vt 0.832322 0.131659
vt 0.832327 0.131659
vt 0.800264 0.386471
vt 0.800264 0.385898
vt 0.800264 0.384751
vt 0.800264 0.385898
vt 0.800264 0.384751
vt 0.800264 0.384178
vt 0.800264 0.388206
vt 0.800264 0.388780
vt 0.800264 0.387060
vt 0.800264 0.388206
vt 0.800264 0.387060
vt 0.800264 0.386486
vt 0.832332 0.126450
vt 0.832307 0.131659
vt 0.832332 0.131659
vt 0.832307 0.126450
vt 0.832312 0.131659
vt 0.832317 0.126450
vt 0.832312 0.126450
vt 0.832322 0.126450
vt 0.832317 0.131659
vt 0.832327 0.126450
vt 0.832322 0.131659
vt 0.832327 0.131659
vt 0.774992 0.384348
vt 0.774992 0.381765
vt 0.774992 0.376599
vt 0.774992 0.381765
vt 0.774992 0.376599
vt 0.774992 0.374016
vt 0.774992 0.392166
vt 0.774992 0.394749
vt 0.774992 0.387000
vt 0.774992 0.392166
vt 0.774992 0.387000
vt 0.774992 0.384416
vt 0.832307 0.126450
vt 0.832332 0.131659
vt 0.832332 0.126450
vt 0.832312 0.126450
vt 0.832307 0.131659
vt 0.832317 0.126450
vt 0.832312 0.131659
vt 0.832322 0.126450
vt 0.832317 0.131659
vt 0.832327 0.131659
vt 0.832322 0.131659
vt 0.832327 0.126450
vt 0.775006 0.334497
vt 0.775006 0.334372
vt 0.775006 0.334123
vt 0.775006 0.334372
vt 0.775006 0.334123
vt 0.775006 0.333998
vt 0.775006 0.334875
vt 0.775006 0.335000
vt 0.775006 0.334625
vt 0.775006 0.334875
vt 0.775006 0.334625
vt 0.775006 0.334501
vn -0.0273 0.9592 0.2813
vn -0.0273 0.2359 0.9714
vn -0.0273 -0.7232 0.6901
vn -0.0273 -0.7233 0.6900
vn -0.0273 -0.9592 -0.2812
vn -0.0273 -0.9592 -0.2813
vn -0.0273 -0.2361 -0.9714
vn -0.0273 0.7233 -0.6900
vn -0.0273 -0.2360 -0.9714
vn -0.0273 0.7232 -0.6901
vn -1.0000 0.0000 0.0000
vn 1.0000 0.0000 0.0000
vn -0.0136 0.9999 -0.0031
vn -0.0052 0.5013 -0.8652
vn -0.0052 0.4986 -0.8668
vn -0.0221 0.5012 0.8650
vn -0.0137 0.9999 0.0031
vn -0.0221 -0.5012 0.8650
vn -0.0221 0.4985 0.8666
vn -0.0137 -0.9999 0.0031
vn -0.0221 -0.4985 0.8666
vn -0.0136 -0.9999 -0.0031
vn -0.0052 -0.5013 -0.8652
vn -0.0052 -0.4986 -0.8668
vn -0.0273 0.2361 0.9714
vn -0.0273 0.2360 0.9714
vn -0.0052 0.4987 -0.8668
vn -0.0137 0.9999 0.0030
vn -0.0221 0.4986 0.8666
vn -0.0137 -0.9999 0.0030
vn -0.0221 -0.4986 0.8666
vn -0.0052 -0.4987 -0.8668
vn -0.0136 0.9999 -0.0032
vn -0.0222 0.4985 0.8666
vn -0.0222 -0.4985 0.8666
vn -0.0136 -0.9999 -0.0032
vn 0.0000 0.9251 0.3798
vn 0.0000 0.7915 -0.6112
vn 0.0000 0.1336 0.9910
vn -0.0000 -0.7915 0.6112
vn 0.0000 -0.9251 -0.3798
vn -0.0000 -0.9250 -0.3798
vn 0.0000 -0.1335 -0.9910
vn 0.0000 0.1335 0.9910
vn 0.0000 0.9250 0.3798
vn 0.0000 -0.1336 -0.9910
vn 0.0000 0.9250 0.3799
vn 0.0000 -0.7914 0.6112
vn 0.0000 -0.1337 -0.9910
vn 0.0134 0.9254 -0.3787
vn 0.0253 0.7945 0.6067
vn 0.0133 0.9227 -0.3852
vn 0.0253 0.7908 0.6115
vn 0.0299 -0.1316 0.9909
vn 0.0226 -0.9226 0.3851
vn 0.0299 -0.1308 0.9910
vn 0.0107 -0.7947 -0.6069
vn 0.0225 -0.9252 0.3787
vn 0.0061 0.1317 -0.9913
vn 0.0106 -0.7911 -0.6116
vn 0.0061 0.1307 -0.9914
vn -0.0274 -0.9592 -0.2813
vn -0.0274 -0.2360 -0.9714
vn -0.0274 0.7232 -0.6901
usemtl Material.041
s 1
f 1/1/1 8/2/2 7/3/1
f 2/4/2 9/5/3 8/2/2
f 3/6/4 10/7/5 9/5/3
f 4/8/6 11/9/7 10/7/5
f 6/10/8 11/9/7 5/11/9
f 6/10/8 7/3/1 12/12/10
f 3/13/11 2/14/11 1/15/11
f 4/16/11 3/13/11 1/15/11
f 5/17/11 4/16/11 1/15/11
f 6/18/11 5/17/11 1/15/11
f 8/19/12 9/20/12 7/21/12
f 9/20/12 10/22/12 7/21/12
f 10/22/12 11/23/12 7/21/12
f 11/23/12 12/24/12 7/21/12
f 14/25/13 19/26/14 13/27/15
f 15/28/16 20/29/17 14/25/13
f 16/30/18 21/31/19 15/28/16
f 16/30/18 23/32/20 22/33/21
f 17/34/22 24/35/23 23/32/20
f 13/27/15 24/35/23 18/36/24
f 15/37/11 14/38/11 13/39/11
f 16/40/11 15/37/11 13/39/11
f 17/41/11 16/40/11 13/39/11
f 18/42/11 17/41/11 13/39/11
f 20/43/12 21/44/12 19/45/12
f 21/44/12 22/46/12 19/45/12
f 22/46/12 23/47/12 19/45/12
f 23/47/12 24/48/12 19/45/12
f 25/49/1 32/50/25 31/51/1
f 26/52/26 33/53/3 32/50/25
f 27/54/3 34/55/6 33/53/3
f 29/56/7 34/55/6 28/57/6
f 30/58/10 35/59/7 29/56/7
f 30/58/10 31/51/1 36/60/10
f 27/61/11 26/62/11 25/63/11
f 28/64/11 27/61/11 25/63/11
f 29/65/11 28/64/11 25/63/11
f 30/66/11 29/65/11 25/63/11
f 32/67/12 33/68/12 31/69/12
f 33/68/12 34/70/12 31/69/12
f 34/70/12 35/71/12 31/69/12
f 35/71/12 36/72/12 31/69/12
f 38/73/13 43/74/14 37/75/27
f 39/76/16 44/77/28 38/73/13
f 40/78/18 45/79/29 39/76/16
f 40/78/18 47/80/30 46/81/31
f 41/82/22 48/83/23 47/80/30
f 37/75/27 48/83/23 42/84/32
f 39/85/11 38/86/11 37/87/11
f 40/88/11 39/85/11 37/87/11
f 41/89/11 40/88/11 37/87/11
f 42/90/11 41/89/11 37/87/11
f 44/91/12 45/92/12 43/93/12
f 45/92/12 46/94/12 43/93/12
f 46/94/12 47/95/12 43/93/12
f 47/95/12 48/96/12 43/93/12
f 50/97/33 55/98/14 49/99/15
f 51/100/16 56/101/17 50/97/33
f 52/102/18 57/103/34 51/100/16
f 52/102/18 59/104/20 58/105/35
f 53/106/36 60/107/23 59/104/20
f 49/99/15 60/107/23 54/108/24
f 51/109/11 50/110/11 49/111/11
f 52/112/11 51/109/11 49/111/11
f 53/113/11 52/112/11 49/111/11
f 54/114/11 53/113/11 49/111/11
f 56/115/12 57/116/12 55/117/12
f 57/116/12 58/118/12 55/117/12
f 58/118/12 59/119/12 55/117/12
f 59/119/12 60/120/12 55/117/12
f 62/121/37 67/122/38 61/123/38
f 63/124/39 68/125/37 62/121/37
f 64/126/40 69/127/39 63/124/39
f 64/126/40 71/128/41 70/129/40
f 65/130/42 72/131/43 71/128/41
f 61/123/38 72/131/43 66/132/43
f 63/133/11 62/134/11 61/135/11
f 64/136/11 63/133/11 61/135/11
f 65/137/11 64/136/11 61/135/11
f 66/138/11 65/137/11 61/135/11
f 68/139/12 69/140/12 67/141/12
f 69/140/12 70/142/12 67/141/12
f 70/142/12 71/143/12 67/141/12
f 71/143/12 72/144/12 67/141/12
f 74/145/44 79/146/45 73/147/37
f 75/148/40 80/149/44 74/145/44
f 76/150/41 81/151/40 75/148/40
f 77/152/46 82/153/41 76/150/41
f 78/154/38 83/155/46 77/152/46
f 73/147/37 84/156/38 78/154/38
f 75/157/11 74/158/11 73/159/11
f 76/160/11 75/157/11 73/159/11
f 77/161/11 76/160/11 73/159/11
f 78/162/11 77/161/11 73/159/11
f 80/163/12 81/164/12 79/165/12
f 81/164/12 82/166/12 79/165/12
f 82/166/12 83/167/12 79/165/12
f 83/167/12 84/168/12 79/165/12
f 86/169/40 91/170/44 85/171/44
f 87/172/41 92/173/40 86/169/40
f 88/174/46 93/175/41 87/172/41
f 89/176/38 94/177/46 88/174/46
f 90/178/45 95/179/38 89/176/38
f 85/171/44 96/180/47 90/178/45
f 87/181/11 86/182/11 85/183/11
f 88/184/11 87/181/11 85/183/11
f 89/185/11 88/184/11 85/183/11
f 90/186/11 89/185/11 85/183/11
f 92/187/12 93/188/12 91/189/12
f 93/188/12 94/190/12 91/189/12
f 94/190/12 95/191/12 91/189/12
f 95/191/12 96/192/12 91/189/12
f 98/193/37 103/194/38 97/195/38
f 99/196/39 104/197/37 98/193/37
f 100/198/48 105/199/39 99/196/39
f 101/200/41 106/201/48 100/198/48
f 102/202/49 107/203/41 101/200/41
f 97/195/38 108/204/49 102/202/49
f 99/205/11 98/206/11 97/207/11
f 100/208/11 99/205/11 97/207/11
f 101/209/11 100/208/11 97/207/11
f 102/210/11 101/209/11 97/207/11
f 104/211/12 105/212/12 103/213/12
f 105/212/12 106/214/12 103/213/12
f 106/214/12 107/215/12 103/213/12
f 107/215/12 108/216/12 103/213/12
f 109/217/50 116/218/51 115/219/52
f 110/220/53 117/221/54 116/218/51
f 112/222/55 117/221/54 111/223/56
f 113/224/57 118/225/58 112/222/55
f 114/226/59 119/227/60 113/224/57
f 114/226/59 115/219/52 120/228/61
f 111/229/11 110/230/11 109/231/11
f 112/232/11 111/229/11 109/231/11
f 113/233/11 112/232/11 109/231/11
f 114/234/11 113/233/11 109/231/11
f 116/235/12 117/236/12 115/237/12
f 117/236/12 118/238/12 115/237/12
f 118/238/12 119/239/12 115/237/12
f 119/239/12 120/240/12 115/237/12
f 122/241/25 127/242/1 121/243/1
f 123/244/3 128/245/25 122/241/25
f 124/246/62 129/247/3 123/244/3
f 125/248/63 130/249/62 124/246/62
f 125/248/63 132/250/64 131/251/63
f 126/252/10 127/242/1 132/250/64
f 123/253/11 122/254/11 121/255/11
f 124/256/11 123/253/11 121/255/11
f 125/257/11 124/256/11 121/255/11
f 126/258/11 125/257/11 121/255/11
f 128/259/12 129/260/12 127/261/12
f 129/260/12 130/262/12 127/261/12
f 130/262/12 131/263/12 127/261/12
f 131/263/12 132/264/12 127/261/12
f 1/1/1 2/4/2 8/2/2
f 2/4/2 3/6/4 9/5/3
f 3/6/4 4/8/6 10/7/5
f 4/8/6 5/11/9 11/9/7
f 6/10/8 12/12/10 11/9/7
f 6/10/8 1/1/1 7/3/1
f 14/25/13 20/29/17 19/26/14
f 15/28/16 21/31/19 20/29/17
f 16/30/18 22/33/21 21/31/19
f 16/30/18 17/34/22 23/32/20
f 17/34/22 18/36/24 24/35/23
f 13/27/15 19/26/14 24/35/23
f 25/49/1 26/52/26 32/50/25
f 26/52/26 27/54/3 33/53/3
f 27/54/3 28/57/6 34/55/6
f 29/56/7 35/59/7 34/55/6
f 30/58/10 36/60/10 35/59/7
f 30/58/10 25/49/1 31/51/1
f 38/73/13 44/77/28 43/74/14
f 39/76/16 45/79/29 44/77/28
f 40/78/18 46/81/31 45/79/29
f 40/78/18 41/82/22 47/80/30
f 41/82/22 42/84/32 48/83/23
f 37/75/27 43/74/14 48/83/23
f 50/97/33 56/101/17 55/98/14
f 51/100/16 57/103/34 56/101/17
f 52/102/18 58/105/35 57/103/34
f 52/102/18 53/106/36 59/104/20
f 53/106/36 54/108/24 60/107/23
f 49/99/15 55/98/14 60/107/23
f 62/121/37 68/125/37 67/122/38
f 63/124/39 69/127/39 68/125/37
f 64/126/40 70/129/40 69/127/39
f 64/126/40 65/130/42 71/128/41
f 65/130/42 66/132/43 72/131/43
f 61/123/38 67/122/38 72/131/43
f 74/145/44 80/149/44 79/146/45
f 75/148/40 81/151/40 80/149/44
f 76/150/41 82/153/41 81/151/40
f 77/152/46 83/155/46 82/153/41
f 78/154/38 84/156/38 83/155/46
f 73/147/37 79/146/45 84/156/38
f 86/169/40 92/173/40 91/170/44
f 87/172/41 93/175/41 92/173/40
f 88/174/46 94/177/46 93/175/41
f 89/176/38 95/179/38 94/177/46
f 90/178/45 96/180/47 95/179/38
f 85/171/44 91/170/44 96/180/47
f 98/193/37 104/197/37 103/194/38
f 99/196/39 105/199/39 104/197/37
f 100/198/48 106/201/48 105/199/39
f 101/200/41 107/203/41 106/201/48
f 102/202/49 108/204/49 107/203/41
f 97/195/38 103/194/38 108/204/49
f 109/217/50 110/220/53 116/218/51
f 110/220/53 111/223/56 117/221/54
f 112/222/55 118/225/58 117/221/54
f 113/224/57 119/227/60 118/225/58
f 114/226/59 120/228/61 119/227/60
f 114/226/59 109/217/50 115/219/52
f 122/241/25 128/245/25 127/242/1
f 123/244/3 129/247/3 128/245/25
f 124/246/62 130/249/62 129/247/3
f 125/248/63 131/251/63 130/249/62
f 125/248/63 126/252/10 132/250/64
f 126/252/10 121/243/1 127/242/1
