# Blender v3.6.5 OBJ File: 'Test_Level.blend'
# www.blender.org
mtllib plate_003.mtl
o plate_003
v -0.152625 0.033732 -0.088134
v -0.152625 0.033732 0.088117
v 0.000000 0.033732 0.176228
v 0.152625 0.033732 0.088117
v 0.152625 0.033732 -0.088134
v 0.000000 0.033732 -0.176245
v -0.152625 0.068731 -0.088134
v -0.152625 0.068731 0.088117
v 0.000000 0.068731 0.176228
v 0.152625 0.068731 0.088117
v 0.152625 0.068731 -0.088134
v 0.000000 0.068731 -0.176245
v -0.083530 0.028498 -0.048221
v -0.083530 0.028498 0.048204
v 0.000000 0.028498 0.096430
v 0.083531 0.028498 0.048204
v 0.083531 0.028498 -0.048221
v 0.000000 0.028498 -0.096448
v 0.000000 -0.000003 -0.108079
v 0.093597 -0.000002 -0.054046
v 0.093603 0.000001 0.054043
v 0.000000 0.000004 0.108086
v -0.093603 0.000001 0.054043
v -0.093598 -0.000002 -0.054046
vt 0.800261 0.382400
vt 0.800261 0.382400
vt 0.800261 0.382400
vt 0.800261 0.382400
vt 0.800261 0.382400
vt 0.800261 0.382400
vt 0.800261 0.382400
vt 0.800261 0.382400
vt 0.800261 0.382400
vt 0.800261 0.382400
vt 0.800261 0.382400
vt 0.800261 0.382400
vt 0.800261 0.382400
vt 0.800261 0.382400
vt 0.800261 0.382400
vt 0.800261 0.382400
vt 0.800261 0.382400
vt 0.800261 0.382400
vt 0.800261 0.382400
vt 0.800261 0.382400
vt 0.800261 0.382400
vt 0.800261 0.382400
vt 0.800261 0.382400
vt 0.800261 0.382400
vn -0.8660 0.0000 0.5000
vn -0.8660 0.0000 -0.5000
vn -0.0000 0.0000 1.0000
vn 0.8660 0.0000 0.5000
vn 0.8660 0.0000 -0.5000
vn 0.0000 0.0000 -1.0000
vn -0.0000 -0.8962 0.4436
vn -0.3841 -0.8962 0.2218
vn 0.3841 -0.8962 0.2218
vn 0.3842 -0.8962 0.2218
vn 0.3841 -0.8962 -0.2218
vn 0.0000 -0.8963 -0.4435
vn 0.0000 -0.8962 -0.4435
vn -0.3842 -0.8962 0.2218
vn -0.3841 -0.8962 -0.2218
vn 0.0000 1.0000 0.0000
vn 0.3899 0.8929 0.2251
vn 0.0000 0.8929 0.4502
vn 0.3899 0.8929 -0.2251
vn 0.0000 0.8929 -0.4502
vn -0.3899 0.8929 -0.2251
vn -0.3899 0.8929 0.2251
vn 0.0000 -1.0000 0.0000
usemtl Material.010
s 1
f 2/1/1 7/2/2 1/3/2
f 3/4/3 8/5/1 2/1/1
f 4/6/4 9/7/3 3/4/3
f 5/8/5 10/9/4 4/6/4
f 6/10/6 11/11/5 5/8/5
f 1/3/2 12/12/6 6/10/6
f 3/4/7 23/13/8 22/14/7
f 3/4/7 21/15/9 4/6/10
f 4/6/10 20/16/11 5/8/11
f 5/8/11 19/17/12 6/10/13
f 2/1/14 24/18/15 23/13/8
f 15/19/16 16/20/16 17/21/16
f 7/2/17 18/22/18 12/12/18
f 7/2/17 14/23/19 13/24/17
f 8/5/19 15/19/20 14/23/19
f 10/9/21 15/19/20 9/7/20
f 11/11/22 16/20/21 10/9/21
f 11/11/22 18/22/18 17/21/22
f 23/13/23 24/18/23 20/16/23
f 1/3/15 19/17/12 24/18/15
f 2/1/1 8/5/1 7/2/2
f 3/4/3 9/7/3 8/5/1
f 4/6/4 10/9/4 9/7/3
f 5/8/5 11/11/5 10/9/4
f 6/10/6 12/12/6 11/11/5
f 1/3/2 7/2/2 12/12/6
f 3/4/7 2/1/14 23/13/8
f 3/4/7 22/14/7 21/15/9
f 4/6/10 21/15/9 20/16/11
f 5/8/11 20/16/11 19/17/12
f 2/1/14 1/3/15 24/18/15
f 17/21/16 18/22/16 15/19/16
f 18/22/16 13/24/16 15/19/16
f 13/24/16 14/23/16 15/19/16
f 7/2/17 13/24/17 18/22/18
f 7/2/17 8/5/19 14/23/19
f 8/5/19 9/7/20 15/19/20
f 10/9/21 16/20/21 15/19/20
f 11/11/22 17/21/22 16/20/21
f 11/11/22 12/12/18 18/22/18
f 24/18/23 19/17/23 20/16/23
f 20/16/23 21/15/23 22/14/23
f 22/14/23 23/13/23 20/16/23
f 1/3/15 6/10/13 19/17/12
