# Blender v3.6.5 OBJ File: 'Test_Level.blend'
# www.blender.org
mtllib plate_002.mtl
o plate_002
v -0.110723 0.036350 -0.063916
v -0.110723 0.036350 0.063914
v 0.000000 0.036350 0.127857
v 0.110722 0.036350 0.063914
v 0.110722 0.036350 -0.063916
v 0.000000 0.036350 -0.127831
v -0.110723 0.071350 -0.063916
v -0.110723 0.071350 0.063914
v 0.000000 0.071350 0.127857
v 0.110722 0.071350 0.063914
v 0.110722 0.071350 -0.063916
v 0.000000 0.071350 -0.127831
v -0.060599 0.031117 -0.034969
v -0.060599 0.031117 0.034995
v 0.000000 0.031117 0.069963
v 0.060598 0.031117 0.034995
v 0.060598 0.031117 -0.034969
v 0.000000 0.031117 -0.069965
v 0.000000 0.000004 -0.074565
v 0.064579 0.000000 -0.037280
v 0.064579 0.000000 0.037278
v 0.000000 -0.000003 0.074568
v -0.064580 0.000000 0.037278
v -0.064580 0.000000 -0.037279
vt 0.800261 0.382400
vt 0.800261 0.382400
vt 0.800261 0.382400
vt 0.800261 0.382400
vt 0.800261 0.382400
vt 0.800261 0.382400
vt 0.800261 0.382400
vt 0.800261 0.382400
vt 0.800261 0.382400
vt 0.800261 0.382400
vt 0.800261 0.382400
vt 0.800261 0.382400
vt 0.800261 0.382400
vt 0.800261 0.382400
vt 0.800261 0.382400
vt 0.800261 0.382400
vt 0.800261 0.382400
vt 0.800261 0.382400
vt 0.800261 0.382400
vt 0.800261 0.382400
vt 0.800261 0.382400
vt 0.800261 0.382400
vt 0.800261 0.382400
vt 0.800261 0.382400
vn -0.8661 0.0000 0.5000
vn -0.8660 0.0000 -0.5000
vn 0.0000 0.0000 1.0000
vn 0.8661 0.0000 0.4999
vn 0.8660 0.0000 -0.5000
vn 0.0000 0.0000 -1.0000
vn -0.4881 -0.8261 0.2818
vn 0.0000 -0.8261 0.5635
vn 0.4881 -0.8261 0.2818
vn 0.4881 -0.8261 -0.2818
vn -0.0000 -0.8260 -0.5636
vn -0.4881 -0.8261 -0.2818
vn 0.0000 1.0000 0.0000
vn 0.4943 0.8211 0.2854
vn -0.0000 0.8211 0.5708
vn -0.0000 0.8210 0.5709
vn 0.4944 0.8211 -0.2854
vn 0.4943 0.8211 0.2853
vn -0.0000 0.8211 -0.5708
vn 0.4943 0.8211 -0.2854
vn -0.4943 0.8211 -0.2854
vn -0.0000 0.8212 -0.5707
vn -0.4944 0.8211 -0.2854
vn -0.4943 0.8211 0.2853
vn -0.4943 0.8211 0.2854
vn 0.0000 -1.0000 -0.0000
usemtl Material.009
s 1
f 2/1/1 7/2/2 1/3/2
f 3/4/3 8/5/1 2/1/1
f 4/6/4 9/7/3 3/4/3
f 5/8/5 10/9/4 4/6/4
f 6/10/6 11/11/5 5/8/5
f 1/3/2 12/12/6 6/10/6
f 2/1/7 22/13/8 3/4/8
f 4/6/9 22/13/8 21/14/9
f 4/6/9 20/15/10 5/8/10
f 6/10/11 20/15/10 19/16/11
f 2/1/7 24/17/12 23/18/7
f 13/19/13 15/20/13 17/21/13
f 7/2/14 18/22/15 12/12/16
f 8/5/17 13/19/18 7/2/14
f 9/7/19 14/23/20 8/5/17
f 9/7/19 16/24/21 15/20/22
f 10/9/23 17/21/24 16/24/21
f 11/11/25 18/22/15 17/21/24
f 22/13/26 23/18/26 24/17/26
f 6/10/11 24/17/12 1/3/12
f 2/1/1 8/5/1 7/2/2
f 3/4/3 9/7/3 8/5/1
f 4/6/4 10/9/4 9/7/3
f 5/8/5 11/11/5 10/9/4
f 6/10/6 12/12/6 11/11/5
f 1/3/2 7/2/2 12/12/6
f 2/1/7 23/18/7 22/13/8
f 4/6/9 3/4/8 22/13/8
f 4/6/9 21/14/9 20/15/10
f 6/10/11 5/8/10 20/15/10
f 2/1/7 1/3/12 24/17/12
f 17/21/13 18/22/13 13/19/13
f 13/19/13 14/23/13 15/20/13
f 15/20/13 16/24/13 17/21/13
f 7/2/14 13/19/18 18/22/15
f 8/5/17 14/23/20 13/19/18
f 9/7/19 15/20/22 14/23/20
f 9/7/19 10/9/23 16/24/21
f 10/9/23 11/11/25 17/21/24
f 11/11/25 12/12/16 18/22/15
f 24/17/26 19/16/26 22/13/26
f 19/16/26 20/15/26 22/13/26
f 20/15/26 21/14/26 22/13/26
f 6/10/11 19/16/11 24/17/12
