# Blender v3.6.5 OBJ File: 'Test_Level.blend'
# www.blender.org
mtllib table_001.mtl
o table_001
v 0.734846 0.468230 0.464221
v 0.734846 0.468230 -0.474123
v -0.774486 0.303590 0.464221
v -0.774486 0.303590 -0.474123
v 0.734846 0.714634 0.464221
v 0.673252 0.776228 0.464221
v 0.673253 0.776228 -0.474123
v 0.734846 0.714634 -0.474123
v -0.712893 0.776228 0.464221
v -0.774486 0.714635 0.464221
v -0.774486 0.714635 -0.474123
v -0.712893 0.776228 -0.474123
v 0.734846 0.474206 0.255433
v 0.734846 0.436547 -0.284145
v -0.774486 0.651810 -0.474123
v -0.774486 0.288503 0.289738
v -0.774486 0.321477 -0.196835
v 0.648597 0.716704 0.464221
v 0.648597 0.716704 -0.474123
v -0.688237 0.716704 -0.474123
v -0.688237 0.716704 0.464221
v 0.675322 0.474206 0.171769
v -0.714961 0.321477 -0.196835
v 0.675322 0.468230 0.464221
v 0.675322 0.436547 -0.188548
v 0.675322 0.468230 -0.474123
v -0.714961 0.303590 -0.474123
v -0.714961 0.288503 0.206074
v -0.714961 0.303590 0.464221
v 0.734846 0.714634 0.255433
v 0.673253 0.776228 0.251345
v -0.712893 0.776228 0.271315
v -0.774486 0.714635 0.296948
v -0.774486 0.714635 -0.312760
v -0.712893 0.776228 -0.314031
v 0.673253 0.776228 -0.319804
v 0.734846 0.714634 -0.319279
v -0.774486 0.699011 -0.312816
v 0.734846 0.448820 -0.107729
v 0.734846 0.461976 0.080757
v 0.734846 0.714634 0.065980
v 0.734846 0.714634 -0.122617
v 0.673253 0.776228 0.064019
v 0.673253 0.776228 -0.124550
v -0.712893 0.776228 0.075288
v -0.712893 0.776228 -0.114082
v -0.774486 0.714635 0.087414
v -0.774486 0.714635 -0.103531
v -0.774486 0.298332 0.139563
v -0.774486 0.312135 -0.063839
v 0.665614 0.694719 1.129551
v 0.665614 0.694719 -1.042958
v 0.665614 0.757091 1.129551
v 0.665614 0.757091 -1.042958
v 0.365997 0.757091 1.129551
v 0.334302 0.757091 -1.042958
v 0.365997 0.694719 1.129551
v 0.334302 0.694719 -1.042958
v 0.334671 0.694719 1.129551
v 0.314441 0.694719 -1.042958
v 0.334671 0.757091 1.129551
v 0.314441 0.757091 -1.042958
v -0.070079 0.757091 1.129551
v -0.019235 0.757091 -1.042958
v -0.070079 0.694719 1.129551
v -0.019235 0.694719 -1.042958
v 0.297639 0.000000 -0.920071
v 0.292967 0.000000 -0.785363
v 0.409615 0.000000 -0.718051
v 0.526262 0.000000 -0.785363
v 0.526262 0.000000 -0.920071
v 0.409615 0.000000 -0.987411
v 0.318256 0.725905 -0.905487
v 0.318256 0.725905 -0.799975
v 0.409615 0.725905 -0.747218
v 0.500973 0.725905 -0.799975
v 0.500973 0.725905 -0.905487
v 0.409615 0.725905 -0.958216
v -0.526651 0.000000 -0.920071
v -0.526651 0.000000 -0.785363
v -0.410004 0.000000 -0.718051
v -0.293357 0.000000 -0.785363
v -0.293357 0.000000 -0.920071
v -0.410004 0.000000 -0.987412
v -0.501363 0.725905 -0.905487
v -0.501363 0.725905 -0.799975
v -0.410004 0.725905 -0.747219
v -0.318647 0.725905 -0.799975
v -0.318647 0.725905 -0.905487
v -0.410004 0.725905 -0.958216
v 0.292967 0.000000 0.785227
v 0.292967 0.000000 0.919935
v 0.409614 0.000000 0.987248
v 0.526262 0.000000 0.919935
v 0.526262 0.000000 0.785227
v 0.409614 0.000000 0.717859
v 0.318256 0.725905 0.799811
v 0.318256 0.725905 0.905323
v 0.409614 0.725905 0.958052
v 0.500973 0.725905 0.905323
v 0.500973 0.725905 0.799811
v 0.409614 0.725905 0.747082
v -0.375085 0.694719 1.129551
v -0.389070 0.694719 -1.042958
v -0.375085 0.757091 1.129551
v -0.389070 0.757091 -1.042958
v -0.715706 0.757092 1.129551
v -0.715706 0.757092 -1.042958
v -0.715706 0.694719 1.129551
v -0.715706 0.694719 -1.042958
v -0.091683 0.694719 1.129551
v -0.055916 0.694719 -1.042958
v -0.091683 0.757091 1.129551
v -0.055916 0.757091 -1.042958
v -0.350161 0.757091 1.129551
v -0.364144 0.757091 -1.042958
v -0.350161 0.694719 1.129551
v -0.364144 0.694719 -1.042958
v -0.526652 0.000000 0.785227
v -0.526652 0.000000 0.919935
v -0.410004 0.000000 0.987247
v -0.293357 0.000000 0.919935
v -0.293357 0.000000 0.785227
v -0.410004 0.000000 0.717859
v -0.501364 0.725905 0.799811
v -0.501364 0.725905 0.905323
v -0.410004 0.725905 0.958052
v -0.318647 0.725905 0.905323
v -0.318647 0.725905 0.799811
v -0.410004 0.725905 0.747082
vt 0.026626 0.528010
vt 0.025629 0.527958
vt 0.025629 0.531472
vt 0.029549 0.531472
vt 0.029549 0.527958
vt 0.028348 0.527945
vt 0.026792 0.527959
vt 0.025629 0.527958
vt 0.025629 0.531384
vt 0.029647 0.531632
vt 0.029549 0.527958
vt 0.028486 0.527959
vt 0.028079 0.530858
vt 0.027790 0.529958
vt 0.028079 0.529958
vt 0.026596 0.527958
vt 0.026851 0.531094
vt 0.025629 0.531094
vt 0.027773 0.530898
vt 0.027769 0.530858
vt 0.027820 0.529918
vt 0.028079 0.529918
vt 0.025629 0.527958
vt 0.029549 0.531094
vt 0.028356 0.527958
vt 0.029549 0.527958
vt 0.028825 0.530934
vt 0.026787 0.527958
vt 0.025629 0.530846
vt 0.025629 0.527958
vt 0.029549 0.531367
vt 0.028481 0.527958
vt 0.029549 0.527958
vt 0.028476 0.531208
vt 0.027099 0.530858
vt 0.027099 0.529958
vt 0.027099 0.530858
vt 0.028079 0.529958
vt 0.025629 0.531367
vt 0.025629 0.531571
vt 0.028079 0.530858
vt 0.028079 0.530898
vt 0.027099 0.530898
vt 0.027099 0.529958
vt 0.027099 0.529918
vt 0.027265 0.530858
vt 0.027282 0.529958
vt 0.027286 0.529918
vt 0.026382 0.531232
vt 0.027168 0.527958
vt 0.027782 0.527958
vt 0.027787 0.527722
vt 0.027527 0.531094
vt 0.027153 0.527847
vt 0.027520 0.530898
vt 0.027602 0.530858
vt 0.027604 0.530898
vt 0.027454 0.529958
vt 0.027619 0.529958
vt 0.027548 0.529928
vt 0.027634 0.529918
vt 0.027771 0.531367
vt 0.027282 0.527892
vt 0.027991 0.527795
vt 0.027634 0.527958
vt 0.027976 0.527958
vt 0.025832 0.531923
vt 0.029231 0.530612
vt 0.026836 0.528392
vt 0.029652 0.531471
vt 0.473781 0.834015
vt 0.473781 0.834015
vt 0.473388 0.834015
vt 0.472831 0.834015
vt 0.472485 0.834015
vt 0.472485 0.834015
vt 0.472471 0.831778
vt 0.472475 0.831677
vt 0.472973 0.831671
vt 0.472825 0.834117
vt 0.472960 0.832640
vt 0.473067 0.832667
vt 0.472942 0.832667
vt 0.472975 0.832021
vt 0.473078 0.832640
vt 0.473088 0.831994
vt 0.473090 0.832021
vt 0.473141 0.831859
vt 0.473374 0.834125
vt 0.472571 0.834015
vt 0.472225 0.831869
vt 0.472965 0.834015
vt 0.472684 0.831859
vt 0.472983 0.834157
vt 0.473204 0.832021
vt 0.473320 0.831994
vt 0.473321 0.832021
vt 0.473310 0.832640
vt 0.473191 0.832640
vt 0.473307 0.832667
vt 0.473181 0.832667
vt 0.473430 0.831671
vt 0.473929 0.831764
vt 0.473650 0.834015
vt 0.473650 0.834015
vt 0.473320 0.834015
vt 0.472571 0.834015
vt 0.832379 0.223824
vt 0.832375 0.224290
vt 0.832375 0.223824
vt 0.832379 0.224290
vt 0.832375 0.224757
vt 0.832379 0.224757
vt 0.832375 0.225224
vt 0.832379 0.225691
vt 0.832375 0.225691
vt 0.832383 0.223824
vt 0.832371 0.224290
vt 0.832371 0.223824
vt 0.832379 0.223824
vt 0.832375 0.224290
vt 0.832375 0.223824
vt 0.832379 0.224757
vt 0.832375 0.224757
vt 0.832375 0.225224
vt 0.832379 0.225224
vt 0.832375 0.225691
vt 0.832383 0.223824
vt 0.832379 0.224290
vt 0.832371 0.224290
vt 0.832371 0.223824
vt 0.832358 0.265422
vt 0.832354 0.266236
vt 0.832358 0.266236
vt 0.832355 0.265422
vt 0.832354 0.265422
vt 0.832356 0.266236
vt 0.832355 0.266236
vt 0.832356 0.265422
vt 0.832356 0.265422
vt 0.832357 0.265422
vt 0.832356 0.266236
vt 0.832357 0.266236
vt 0.832358 0.265422
vt 0.832354 0.266236
vt 0.832358 0.266236
vt 0.832355 0.265422
vt 0.832354 0.265422
vt 0.832356 0.266236
vt 0.832355 0.266236
vt 0.832356 0.265422
vt 0.832356 0.265422
vt 0.832357 0.265422
vt 0.832356 0.266236
vt 0.832357 0.266236
vt 0.832358 0.265422
vt 0.832354 0.266236
vt 0.832358 0.266236
vt 0.832355 0.265422
vt 0.832354 0.265422
vt 0.832356 0.266236
vt 0.832355 0.266236
vt 0.832356 0.265422
vt 0.832356 0.265422
vt 0.832357 0.266236
vt 0.832356 0.266236
vt 0.832357 0.265422
vt 0.832379 0.223824
vt 0.832375 0.224290
vt 0.832375 0.223824
vt 0.832379 0.224290
vt 0.832375 0.224757
vt 0.832379 0.224757
vt 0.832375 0.225224
vt 0.832379 0.225691
vt 0.832375 0.225691
vt 0.832383 0.223824
vt 0.832371 0.223824
vt 0.832371 0.224290
vt 0.832379 0.223824
vt 0.832375 0.224290
vt 0.832375 0.223824
vt 0.832379 0.224757
vt 0.832375 0.224757
vt 0.832375 0.225224
vt 0.832379 0.225224
vt 0.832375 0.225691
vt 0.832383 0.223824
vt 0.832379 0.224290
vt 0.832371 0.224290
vt 0.832371 0.223824
vt 0.832358 0.265422
vt 0.832354 0.266236
vt 0.832358 0.266236
vt 0.832355 0.265422
vt 0.832354 0.265422
vt 0.832356 0.266236
vt 0.832355 0.266236
vt 0.832356 0.265422
vt 0.832356 0.265422
vt 0.832357 0.266236
vt 0.832356 0.266236
vt 0.832357 0.265422
vt 0.025629 0.531344
vt 0.029549 0.531260
vt 0.027267 0.530898
vt 0.026378 0.531367
vt 0.028192 0.531094
vt 0.027435 0.530858
vt 0.027106 0.531367
vt 0.025688 0.530980
vt 0.472972 0.831994
vt 0.473606 0.831859
vt 0.473202 0.831994
vt 0.473932 0.831671
vt 0.832379 0.225224
vt 0.832383 0.224290
vt 0.832379 0.225691
vt 0.832383 0.224290
vt 0.832379 0.225224
vt 0.832383 0.224290
vt 0.832379 0.225691
vt 0.832383 0.224290
vn -0.9944 -0.1056 0.0008
vn -0.9943 -0.1069 -0.0022
vn -0.9941 -0.1081 -0.0012
vn -0.9948 -0.1020 -0.0036
vn -0.9942 -0.1069 -0.0119
vn -0.9959 -0.0907 0.0042
vn 0.9979 -0.0650 0.0004
vn 0.9979 -0.0646 0.0042
vn 0.9978 -0.0663 0.0016
vn 0.9980 -0.0639 -0.0002
vn 0.9979 -0.0646 0.0038
vn 0.9981 -0.0610 -0.0021
vn 0.3827 0.9239 0.0000
vn -0.3827 0.9239 0.0000
vn 1.0000 0.0000 0.0000
vn 0.9239 0.3827 0.0000
vn -0.9239 0.3827 0.0000
vn -1.0000 -0.0000 0.0000
vn -0.0000 0.0000 -1.0000
vn 0.0000 0.0000 1.0000
vn 0.0051 -0.9996 -0.0272
vn 0.0012 -1.0000 -0.0034
vn 0.0000 -0.9996 -0.0286
vn -0.1076 -0.9907 -0.0829
vn -0.0338 -0.9875 -0.1541
vn 0.0000 -0.9864 -0.1645
vn 0.0000 -0.9979 0.0644
vn 0.0000 -1.0000 -0.0029
vn 0.0391 -0.9986 0.0368
vn 0.0171 -0.9966 0.0803
vn 0.0000 -0.9963 0.0861
vn -0.0442 -0.9945 0.0952
vn 0.0490 -0.9980 0.0398
vn 0.1105 -0.9915 0.0692
vn -0.0267 -0.9965 -0.0790
vn -0.0524 -0.9977 -0.0424
vn -0.0894 -0.9938 -0.0669
vn 0.0000 -1.0000 0.0000
vn -0.0633 -0.9963 0.0582
vn -0.0035 -1.0000 -0.0044
vn 0.0000 1.0000 -0.0000
vn -0.9999 0.0000 0.0146
vn 1.0000 0.0000 -0.0093
vn -0.9997 0.0000 -0.0234
vn -0.8611 0.0386 -0.5070
vn -0.8665 0.0369 0.4978
vn -0.8660 0.0346 -0.4989
vn 0.0000 0.0402 0.9992
vn -0.8737 0.0402 0.4848
vn 0.8653 0.0402 0.4996
vn 0.0000 0.0401 0.9992
vn 0.8653 0.0402 -0.4996
vn 0.8653 0.0402 0.4997
vn -0.0088 0.0402 -0.9992
vn 0.8653 0.0402 -0.4997
vn -0.0010 0.0385 -0.9993
vn -0.8653 0.0402 -0.4996
vn -0.8653 0.0402 0.4996
vn -0.8653 0.0402 -0.4997
vn -0.8653 0.0402 0.4997
vn 0.0000 0.0402 -0.9992
vn -0.8654 0.0402 -0.4995
vn 0.8654 0.0402 -0.4995
vn 1.0000 0.0000 -0.0064
vn 0.9999 0.0000 0.0165
vn -1.0000 0.0000 0.0064
usemtl Material.006
s 1
f 22/1/1 24/2/2 18/3/3
f 19/4/4 26/5/5 25/6/6
f 23/7/7 27/8/8 20/9/9
f 21/10/10 29/11/11 28/12/12
f 6/13/13 32/14/14 9/15/14
f 13/16/15 30/17/16 5/18/16
f 6/13/13 30/19/16 31/20/13
f 9/15/14 33/21/17 10/22/17
f 13/16/15 5/18/16 1/23/15
f 8/24/16 14/25/15 2/26/15
f 8/24/16 37/27/16 14/25/15
f 17/28/18 15/29/18 4/30/18
f 10/31/17 16/32/18 3/33/18
f 10/31/17 33/34/17 16/32/18
f 19/35/19 12/36/19 7/37/19
f 21/38/20 6/13/20 9/15/20
f 11/39/19 20/40/19 15/29/19
f 6/13/20 18/41/20 5/42/20
f 8/43/19 19/35/19 7/37/19
f 10/22/20 21/38/20 9/15/20
f 12/36/19 20/44/19 11/45/19
f 5/18/20 24/2/20 1/23/20
f 24/2/21 13/16/22 1/23/23
f 14/25/24 26/5/25 2/26/26
f 26/5/19 8/24/19 2/26/19
f 15/29/19 27/8/19 4/30/19
f 27/8/27 17/28/28 4/30/27
f 16/32/29 29/11/30 3/33/31
f 29/11/20 10/31/20 3/33/20
f 36/46/13 8/43/16 7/37/13
f 36/46/13 12/36/14 35/47/14
f 35/47/14 11/45/17 34/48/17
f 38/49/18 11/39/17 15/29/18
f 40/50/32 25/6/33 39/51/34
f 39/52/15 41/53/16 40/54/15
f 42/55/16 43/56/13 41/57/16
f 43/56/13 46/58/14 45/59/14
f 45/59/14 48/60/17 47/61/17
f 47/62/17 50/63/18 49/64/18
f 50/65/35 28/12/36 49/66/37
f 23/7/7 21/10/10 28/12/12
f 20/44/38 18/41/38 21/38/38
f 18/67/3 19/68/4 22/69/1
f 22/1/1 19/70/4 25/6/6
f 13/71/22 22/72/39 40/73/32
f 49/74/37 28/75/36 16/76/29
f 16/76/18 33/77/17 49/74/18
f 33/78/17 47/79/17 49/80/18
f 32/81/14 47/82/17 33/83/17
f 31/84/13 45/85/14 32/81/14
f 31/84/13 41/86/16 43/87/13
f 41/88/16 13/71/15 40/89/15
f 14/90/15 37/91/16 39/92/15
f 37/91/16 42/93/16 39/94/15
f 44/95/13 37/96/16 36/97/13
f 44/95/13 35/98/14 46/99/14
f 46/99/14 34/100/17 48/101/17
f 48/102/17 38/103/18 17/104/18
f 17/104/28 23/105/40 50/106/35
f 39/92/34 25/107/33 14/90/24
f 52/108/15 53/109/15 51/110/15
f 54/111/41 55/112/41 53/109/41
f 56/113/42 57/114/42 55/112/42
f 57/114/38 52/115/38 51/116/38
f 58/117/19 54/111/19 52/108/19
f 51/110/20 55/118/20 57/119/20
f 60/120/43 61/121/43 59/122/43
f 61/121/41 64/123/41 63/124/41
f 64/123/44 65/125/44 63/124/44
f 66/126/38 59/127/38 65/125/38
f 66/128/19 62/129/19 60/120/19
f 59/122/20 63/130/20 65/131/20
f 67/132/45 74/133/46 73/134/47
f 69/135/48 74/133/46 68/136/49
f 69/135/48 76/137/50 75/138/51
f 71/139/52 76/137/50 70/140/53
f 72/141/54 77/142/55 71/139/52
f 67/132/45 78/143/56 72/141/54
f 79/144/57 86/145/58 85/146/59
f 81/147/48 86/145/58 80/148/60
f 81/147/48 88/149/50 87/150/51
f 83/151/52 88/149/50 82/152/53
f 84/153/61 89/154/55 83/151/52
f 84/153/61 85/146/59 90/155/61
f 91/156/62 98/157/60 97/158/59
f 93/159/48 98/157/60 92/160/60
f 93/159/48 100/161/53 99/162/48
f 95/163/63 100/161/53 94/164/53
f 95/163/63 102/165/61 101/166/55
f 91/156/62 102/165/61 96/167/61
f 104/168/64 105/169/64 103/170/64
f 106/171/41 107/172/41 105/169/41
f 108/173/18 109/174/18 107/172/18
f 109/174/38 104/175/38 103/176/38
f 110/177/19 106/171/19 104/168/19
f 109/178/20 105/169/20 107/179/20
f 112/180/65 113/181/65 111/182/65
f 113/181/41 116/183/41 115/184/41
f 116/183/66 117/185/66 115/184/66
f 118/186/38 111/187/38 117/185/38
f 118/188/19 114/189/19 112/180/19
f 111/182/20 115/190/20 117/191/20
f 119/192/62 126/193/60 125/194/59
f 121/195/48 126/193/60 120/196/60
f 121/195/48 128/197/53 127/198/48
f 123/199/63 128/197/53 122/200/53
f 123/199/63 130/201/61 129/202/55
f 119/192/62 130/201/61 124/203/61
f 123/199/38 122/200/38 121/195/38
f 95/163/38 94/164/38 93/159/38
f 70/140/38 69/135/38 67/132/38
f 83/151/38 82/152/38 81/147/38
f 6/13/13 31/20/13 32/14/14
f 6/13/13 5/42/16 30/19/16
f 9/15/14 32/14/14 33/21/17
f 19/35/19 20/44/19 12/36/19
f 21/38/20 18/41/20 6/13/20
f 5/18/20 18/204/20 24/2/20
f 24/2/21 22/1/39 13/16/22
f 14/25/24 25/6/33 26/5/25
f 26/5/19 19/205/19 8/24/19
f 15/29/19 20/9/19 27/8/19
f 27/8/27 23/7/40 17/28/28
f 16/32/29 28/12/36 29/11/30
f 29/11/20 21/10/20 10/31/20
f 36/46/13 37/206/16 8/43/16
f 36/46/13 7/37/13 12/36/14
f 35/47/14 12/36/14 11/45/17
f 15/29/18 17/28/18 38/49/18
f 38/49/18 34/207/17 11/39/17
f 40/50/32 22/1/39 25/6/33
f 39/52/15 42/208/16 41/53/16
f 42/55/16 44/209/13 43/56/13
f 43/56/13 44/209/13 46/58/14
f 45/59/14 46/58/14 48/60/17
f 47/62/17 48/210/17 50/63/18
f 50/65/35 23/7/40 28/12/36
f 23/7/7 20/211/9 21/10/10
f 20/44/38 19/35/38 18/41/38
f 32/81/14 45/85/14 47/82/17
f 31/84/13 43/87/13 45/85/14
f 31/84/13 30/212/16 41/86/16
f 41/88/16 30/213/16 13/71/15
f 44/95/13 42/214/16 37/96/16
f 44/95/13 36/97/13 35/98/14
f 46/99/14 35/98/14 34/100/17
f 17/104/18 50/106/18 48/102/17
f 48/102/17 34/215/17 38/103/18
f 52/108/15 54/111/15 53/109/15
f 54/111/41 56/113/41 55/112/41
f 56/113/42 58/216/42 57/114/42
f 57/114/38 58/216/38 52/115/38
f 58/117/19 56/217/19 54/111/19
f 51/110/20 53/109/20 55/118/20
f 60/120/43 62/129/43 61/121/43
f 61/121/41 62/129/41 64/123/41
f 64/123/44 66/126/44 65/125/44
f 66/126/38 60/218/38 59/127/38
f 66/128/19 64/219/19 62/129/19
f 59/122/20 61/121/20 63/130/20
f 67/132/45 68/136/49 74/133/46
f 69/135/48 75/138/51 74/133/46
f 69/135/48 70/140/53 76/137/50
f 71/139/52 77/142/55 76/137/50
f 72/141/54 78/143/56 77/142/55
f 67/132/45 73/134/47 78/143/56
f 79/144/57 80/148/60 86/145/58
f 81/147/48 87/150/51 86/145/58
f 81/147/48 82/152/53 88/149/50
f 83/151/52 89/154/55 88/149/50
f 84/153/61 90/155/61 89/154/55
f 84/153/61 79/144/57 85/146/59
f 91/156/62 92/160/60 98/157/60
f 93/159/48 99/162/48 98/157/60
f 93/159/48 94/164/53 100/161/53
f 95/163/63 101/166/55 100/161/53
f 95/163/63 96/167/61 102/165/61
f 91/156/62 97/158/59 102/165/61
f 104/168/64 106/171/64 105/169/64
f 106/171/41 108/173/41 107/172/41
f 108/173/18 110/220/18 109/174/18
f 109/174/38 110/220/38 104/175/38
f 110/177/19 108/221/19 106/171/19
f 109/178/20 103/170/20 105/169/20
f 112/180/65 114/189/65 113/181/65
f 113/181/41 114/189/41 116/183/41
f 116/183/66 118/186/66 117/185/66
f 118/186/38 112/222/38 111/187/38
f 118/188/19 116/223/19 114/189/19
f 111/182/20 113/181/20 115/190/20
f 119/192/62 120/196/60 126/193/60
f 121/195/48 127/198/48 126/193/60
f 121/195/48 122/200/53 128/197/53
f 123/199/63 129/202/55 128/197/53
f 123/199/63 124/203/61 130/201/61
f 119/192/62 125/194/59 130/201/61
f 120/196/38 119/192/38 121/195/38
f 119/192/38 124/203/38 123/199/38
f 121/195/38 119/192/38 123/199/38
f 92/160/38 91/156/38 93/159/38
f 91/156/38 96/167/38 95/163/38
f 93/159/38 91/156/38 95/163/38
f 68/136/38 67/132/38 69/135/38
f 67/132/38 72/141/38 71/139/38
f 70/140/38 67/132/38 71/139/38
f 80/148/38 79/144/38 81/147/38
f 79/144/38 84/153/38 81/147/38
f 84/153/38 83/151/38 81/147/38
